<?xml version="1.0" encoding="UTF-8"?>
<svg width="31px" height="31px" viewBox="0 0 31 31" version="1.1" xmlns="http://www.w3.org/2000/svg" xmlns:xlink="http://www.w3.org/1999/xlink">
    <!-- Generator: Sketch 50.2 (55047) - http://www.bohemiancoding.com/sketch -->
    <title>CS_I</title>
    <desc>Created with Sketch.</desc>
    <defs></defs>
    <g id="CS_I" stroke="none" stroke-width="1" fill="none" fill-rule="evenodd">
        <path d="M15.5,2 C8.07339357,2 2,8.07339357 2,15.5 C2,22.9266064 8.07339357,29 15.5,29 C22.9266064,29 29,22.9266064 29,15.5 C29,8.03695568 22.9909932,2 15.5,2 Z" id="Combined-Shape" stroke="#00263A" stroke-width="3"></path>
        <path d="M14.06,12.56 L16.94,12.56 L16.94,24.08 L14.06,24.08 L14.06,12.56 Z M13.652,8.648 C13.652,8.18399768 13.8239983,7.78000172 14.168,7.436 C14.5120017,7.09199828 14.9479974,6.92 15.476,6.92 C16.0040026,6.92 16.4479982,7.08399836 16.808,7.412 C17.1680018,7.74000164 17.348,8.15199752 17.348,8.648 C17.348,9.14400248 17.1680018,9.55599836 16.808,9.884 C16.4479982,10.2120016 16.0040026,10.376 15.476,10.376 C14.9479974,10.376 14.5120017,10.2040017 14.168,9.86 C13.8239983,9.51599828 13.652,9.11200232 13.652,8.648 Z" id="i" fill="#00263A"></path>
    </g>
</svg>