<svg height="58" viewBox="0 0 58 58" width="58" xmlns="http://www.w3.org/2000/svg"><g fill="none" fill-rule="nonzero"><path d="m29 1c-15.4576271 0-28 12.6101695-28 28 0 15.4576271 12.5423729 28 28 28s28-12.5423729 28-28c0-15.3898305-12.5423729-28-28-28zm0 51.7966102c-13.0847458 0-23.72881356-10.6440678-23.72881356-23.7288136s10.57627116-23.72881355 23.72881356-23.72881355c13.0847458 0 23.7288136 10.57627115 23.7288136 23.72881355-.0677967 13.0169492-10.6440678 23.7288136-23.7288136 23.7288136z" fill="#FFFFFF"/><g fill="#fff" transform="translate(8 8.5)"><path d="m24.6 17.015c-.205-.205-.5466667-.205-.82 0l-4.0316667 3.895-1.7766666-1.7766667c-.205-.205-.5466667-.205-.82 0l-.7516667.7516667c-.205.205-.205.5466667 0 .82l2.87 2.87.0683333.0683333c.205.205.5466667.0683334.7516667-.0683333l5.125-5.125c.205-.205.205-.5466667 0-.82z"/><path d="m20.6366667.205c-11.2066667 0-20.36333337 9.15666667-20.36333337 20.3633333 0 11.2066667 9.15666667 20.3633334 20.36333337 20.3633334 11.2066666 0 20.3633333-9.1566667 20.3633333-20.3633334 0-11.20666663-9.02-20.3633333-20.3633333-20.3633333zm10.3183333 21.32c0 5.2616667-3.5533333 8.61-9.635 12.7783333-.2733333.205-.6833333.205-.9566667 0-6.15-4.1-9.635-7.4483333-9.635-12.7783333 0-4.2366667 0-9.1566667 0-10.7283333 0-.2733334.2733334-.5466667.5466667-.5466667 3.485-.0683333 5.8083333-.95666667 9.1566667-3.82666667.2733333-.205.6833333-.205.82 0 3.3483333 2.87 5.6716666 3.75833337 9.1566666 3.82666667.2733334 0 .5466667.2733333.5466667.5466667z"/></g></g></svg>