<?xml version="1.0" encoding="UTF-8"?>
<svg width="31px" height="31px" viewBox="0 0 31 31" version="1.1" xmlns="http://www.w3.org/2000/svg" xmlns:xlink="http://www.w3.org/1999/xlink">
    <!-- Generator: Sketch 50.2 (55047) - http://www.bohemiancoding.com/sketch -->
    <title>CS_save</title>
    <desc>Created with Sketch.</desc>
    <defs></defs>
    <g id="CS_save" stroke="none" stroke-width="1" fill="none" fill-rule="evenodd">
        <g id="diskette" transform="translate(0.500000, 0.500000)" fill="#00263A" fill-rule="nonzero">
            <path d="M20.2734375,24.7265625 L9.7265625,24.7265625 C9.24117188,24.7265625 8.84765625,25.1200781 8.84765625,25.6054688 C8.84765625,26.0908594 9.24117188,26.484375 9.7265625,26.484375 L20.2734375,26.484375 C20.7588281,26.484375 21.1523438,26.0908594 21.1523438,25.6054688 C21.1523438,25.1200781 20.7588281,24.7265625 20.2734375,24.7265625 Z" id="Shape"></path>
            <path d="M20.2734375,17.6953125 L9.7265625,17.6953125 C9.24117188,17.6953125 8.84765625,18.0888281 8.84765625,18.5742188 C8.84765625,19.0596094 9.24117188,19.453125 9.7265625,19.453125 L20.2734375,19.453125 C20.7588281,19.453125 21.1523438,19.0596094 21.1523438,18.5742188 C21.1523438,18.0888281 20.7588281,17.6953125 20.2734375,17.6953125 Z" id="Shape"></path>
            <path d="M20.2734375,21.2109375 L9.7265625,21.2109375 C9.24117188,21.2109375 8.84765625,21.6044531 8.84765625,22.0898438 C8.84765625,22.5752344 9.24117188,22.96875 9.7265625,22.96875 L20.2734375,22.96875 C20.7588281,22.96875 21.1523438,22.5752344 21.1523438,22.0898438 C21.1523438,21.6044531 20.7588281,21.2109375 20.2734375,21.2109375 Z" id="Shape"></path>
            <rect id="Rectangle-path" x="7.08984375" y="0" width="12.3046875" height="7.6171875"></rect>
            <path d="M29.7425391,4.94496094 L25.0550391,0.257460938 C24.8902148,0.0926367187 24.6666797,0 24.4335938,0 L21.1523438,0 L21.1523438,8.49609375 C21.1523438,8.98148437 20.7588281,9.375 20.2734375,9.375 L6.2109375,9.375 C5.72554688,9.375 5.33203125,8.98148437 5.33203125,8.49609375 L5.33203125,0 L0.87890625,0 C0.393515625,0 0,0.393515625 0,0.87890625 L0,29.1210938 C0,29.6064844 0.393515625,30 0.87890625,30 C1.15107422,30 28.7555859,30 29.1210938,30 C29.6064844,30 30,29.6064844 30,29.1210938 L30,5.56640625 C30,5.33332031 29.9073633,5.10978516 29.7425391,4.94496094 Z M22.9101562,28.2421875 L7.08984375,28.2421875 L7.08984375,15.9375 L22.9101562,15.9375 L22.9101562,28.2421875 Z" id="Shape"></path>
        </g>
    </g>
</svg>