<?xml version="1.0" encoding="UTF-8"?>
<svg width="31px" height="31px" viewBox="0 0 31 31" version="1.1" xmlns="http://www.w3.org/2000/svg" xmlns:xlink="http://www.w3.org/1999/xlink">
    <!-- Generator: Sketch 50.2 (55047) - http://www.bohemiancoding.com/sketch -->
    <title>CS_settings</title>
    <desc>Created with Sketch.</desc>
    <defs></defs>
    <g id="CS_settings" stroke="#00263A" stroke-width="1" fill="none" fill-rule="evenodd">
        <g id="settings-work-tool" transform="translate(0.500000, 0.500000)" fill="#FFFFFF" fill-rule="nonzero">
            <path d="M29.8795539,13.3227881 C29.8321561,12.9014498 29.3408922,12.5848327 28.9160967,12.5848327 C27.5426766,12.5848327 26.3239405,11.7784015 25.8128253,10.5312268 C25.2906691,9.253829 25.6273606,7.76408922 26.6509294,6.82516729 C26.9731227,6.53063197 27.0122677,6.03758364 26.7420446,5.69509294 C26.0391078,4.80245353 25.2401487,3.99613383 24.3678067,3.29732342 C24.0262082,3.02319703 23.5250186,3.06133829 23.2288104,3.38933086 C22.3355019,4.37866171 20.7308922,4.74635688 19.4909665,4.22899628 C18.200632,3.68620818 17.3869517,2.37869888 17.4665799,0.975167286 C17.4927881,0.534312268 17.1705948,0.151003717 16.7310781,0.0998141264 C15.6115985,-0.0296654275 14.4823048,-0.0336802974 13.3594796,0.0908921933 C12.9249814,0.138847584 12.6027881,0.513122677 12.6173978,0.948401487 C12.6662454,2.33810409 11.8427509,3.62275093 10.5652416,4.1460223 C9.3401487,4.64643123 7.74680297,4.28185874 6.85527881,3.30133829 C6.56063197,2.97836431 6.06758364,2.93866171 5.72431227,3.20620818 C4.82609665,3.91092937 4.00918216,4.71791822 3.29977695,5.60319703 C3.0230855,5.94736059 3.06379182,6.44620818 3.38921933,6.74230483 C4.43230483,7.6869145 4.76910781,9.18959108 4.2272119,10.48171 C3.7098513,11.7136059 2.43066914,12.5075465 0.966245353,12.5075465 C0.491040892,12.4922677 0.152565056,12.8112268 0.100594796,13.2432714 C-0.0312267658,14.3692193 -0.0327881041,15.5164684 0.0941263941,16.6515613 C0.141189591,17.074684 0.64739777,17.388513 1.07687732,17.388513 C2.38193309,17.3551673 3.63490706,18.1631599 4.16052045,19.4422305 C4.68446097,20.7196283 4.34765799,22.2084758 3.32252788,23.1481784 C3.00189591,23.4427138 2.96118959,23.9349814 3.23141264,24.2774721 C3.92776952,25.1644238 4.72684015,25.9715242 5.60230483,26.6761338 C5.94568773,26.9528253 6.44531599,26.9137918 6.74297398,26.5857993 C7.63962825,25.5940149 9.24412639,25.2269888 10.479145,25.7453532 C11.7727138,26.2864684 12.5863941,27.5938662 12.5067658,28.9981784 C12.4807807,29.4392565 12.8045353,29.8232342 13.2422677,29.8736431 C13.8149442,29.9404461 14.3910781,29.9737918 14.9687732,29.9737918 C15.5171375,29.9737918 16.0656134,29.9436803 16.6139777,29.8826766 C17.0485874,29.8347212 17.3705576,29.4604461 17.355948,29.0243866 C17.3056506,27.6354647 18.1305948,26.3508178 19.4064312,25.8284387 C20.639777,25.324684 22.2264312,25.6933829 23.1180669,26.6728996 C23.4143866,26.9952045 23.9039777,27.0341264 24.249145,26.7674721 C25.1456877,26.0644238 25.9609294,25.2581041 26.6736803,24.3703717 C26.9502602,24.0269888 26.9112268,23.5273606 26.5841264,23.2313755 C25.5410409,22.2867658 25.2025651,20.7838662 25.744461,19.4926394 C26.2539033,18.2771375 27.4855762,17.4610037 28.8103717,17.4610037 L28.9957249,17.4657993 C29.4254275,17.5007063 29.8207807,17.1697026 29.8728625,16.7310781 C30.0049071,15.6041264 30.0064684,14.457881 29.8795539,13.3227881 Z M15.0105948,20.0175836 C12.2539405,20.0175836 10.0116357,17.7752788 10.0116357,15.0186245 C10.0116357,12.2620818 12.2539405,10.0196654 15.0105948,10.0196654 C17.7671375,10.0196654 20.0094424,12.2620818 20.0094424,15.0186245 C20.0094424,17.7752788 17.7671375,20.0175836 15.0105948,20.0175836 Z" id="Shape"></path>
        </g>
    </g>
</svg>