<?xml version="1.0" encoding="UTF-8"?>
<svg width="31px" height="31px" viewBox="0 0 16 16" version="1.1" xmlns="http://www.w3.org/2000/svg" xmlns:xlink="http://www.w3.org/1999/xlink">
    <!-- Generator: Sketch 50.2 (55047) - http://www.bohemiancoding.com/sketch -->
    <title>CS_bug_small</title>
    <desc>Created with Sketch.</desc>
    <defs></defs>
    <g id="CS_bug_small" stroke="none" stroke-width="1" fill="none" fill-rule="evenodd">
        <path d="M15.5,0.5 C23.8557047,0.5 30.5,7.24496644 30.5,15.5 C30.5,23.7550336 23.7550336,30.5 15.5,30.5 C7.24496644,30.5 0.5,23.7550336 0.5,15.5 C0.5,7.24496644 7.24496644,0.5 15.5,0.5 Z M23.1006711,16.204698 C23.1006711,13.0838926 23.1006711,9.45973154 23.1006711,8.30201342 C23.1006711,8.10067114 22.8993289,7.89932886 22.6979866,7.89932886 C20.1308725,7.84899329 18.4194631,7.19463087 15.9530201,5.08053691 C15.852349,4.9295302 15.5503356,4.9295302 15.3489933,5.08053691 C12.8825503,7.19463087 11.1711409,7.84899329 8.60402685,7.89932886 C8.40268456,7.89932886 8.20134228,8.10067114 8.20134228,8.30201342 C8.20134228,9.45973154 8.20134228,13.0838926 8.20134228,16.204698 C8.20134228,20.1308725 10.7684564,22.5973154 15.2986577,25.6174497 C15.5,25.7684564 15.8020134,25.7684564 16.0033557,25.6174497 C20.4832215,22.5469799 23.1006711,20.0805369 23.1006711,16.204698 Z M18.2936242,13.0768501 L18.7466443,13.5298702 C18.897651,13.7312125 18.897651,13.9828904 18.7466443,14.1338971 L14.9714765,17.9090649 C14.8204698,18.009736 14.5687919,18.1104072 14.4177852,17.9594004 L14.3674497,17.9090649 L12.2533557,15.7949709 C12.102349,15.5936286 12.102349,15.3419508 12.2533557,15.1909441 L12.807047,14.6372528 C13.0083893,14.4862461 13.2600671,14.4862461 13.4110738,14.6372528 L14.7197987,15.9459776 L17.6895973,13.0768501 C17.8909396,12.9258434 18.1426174,12.9258434 18.2936242,13.0768501 Z" id="Combined-Shape" fill="#2c6094"></path>
    </g>
</svg>