<?xml version="1.0" encoding="utf-8"?>
<!-- Generator: Adobe Illustrator 24.0.1, SVG Export Plug-In . SVG Version: 6.00 Build 0)  -->
<svg version="1.1" id="Layer_1" xmlns="http://www.w3.org/2000/svg" xmlns:xlink="http://www.w3.org/1999/xlink" x="0px" y="0px"
	 viewBox="0 0 265 56" style="enable-background:new 0 0 265 56;" xml:space="preserve">
<style type="text/css">
	.st0{fill:#00263A;}
	.st1{fill:#2C6094;}
	.st2{fill-rule:evenodd;clip-rule:evenodd;fill:#00263A;}
</style>
<title>Group 3</title>
<desc>Created with Sketch.</desc>
<g>
	<g id="Group-2_1_">
		<path id="Shape_19_" class="st0" d="M27.9,0C12.5,0,0.1,12.5,0.1,27.8c0,15.4,12.5,27.8,27.8,27.8s27.8-12.5,27.8-27.8
			C55.7,12.5,43.2,0,27.9,0z M27.9,51.4c-13,0-23.6-10.6-23.6-23.6S14.8,4.3,27.9,4.3c13,0,23.6,10.5,23.6,23.6
			C51.4,40.8,40.9,51.4,27.9,51.4z"/>
		<g id="Group_2_" transform="translate(7.000000, 8.000000)">
			<path class="st1" d="M24.5,16.8c-0.2-0.2-0.5-0.2-0.8,0l-4,3.9l-1.8-1.8c-0.2-0.2-0.5-0.2-0.8,0l-0.7,0.7c-0.2,0.2-0.2,0.5,0,0.8
				l2.9,2.9l0.1,0.1c0.2,0.2,0.5,0.1,0.7-0.1l5.1-5.1c0.2-0.2,0.2-0.5,0-0.8L24.5,16.8z"/>
			<path class="st1" d="M20.5,0.1C9.4,0.1,0.3,9.2,0.3,20.4s9.1,20.2,20.2,20.2s20.2-9.1,20.2-20.2S31.8,0.1,20.5,0.1z M30.8,21.3
				c0,5.2-3.5,8.6-9.6,12.7c-0.3,0.2-0.7,0.2-1,0c-6.1-4.1-9.6-7.4-9.6-12.7c0-4.2,0-9.1,0-10.7c0-0.3,0.3-0.5,0.5-0.5
				c3.5-0.1,5.8-1,9.1-3.8c0.3-0.2,0.7-0.2,0.8,0c3.3,2.9,5.6,3.7,9.1,3.8c0.3,0,0.5,0.3,0.5,0.5C30.8,12.2,30.8,17.1,30.8,21.3z"/>
		</g>
	</g>
	<g transform="translate(66.000000, 13.000000)">
		<path class="st0" d="M0.2,9c0-5.7,3.1-8.2,8.4-8.2c2.9,0,4.8,0.8,6.3,2.3l-2.4,2.4C11.5,4.6,10.4,4,8.6,4c-3.4,0-4.8,1.7-4.8,5
			c0,3.2,1.2,5,4.8,5c2.1,0,3-0.7,4-1.6l2.4,2.3c-1.3,1.3-3,2.5-6.6,2.5C2.5,17.2,0.2,14.2,0.2,9z"/>
		<path class="st0" d="M16,10.9c0-4.1,1.8-6.3,6.4-6.3s6.3,2.3,6.3,6.3s-1.7,6.3-6.3,6.3C17.7,17.2,16,15,16,10.9z M25.3,10.9
			c0-2.1-0.7-3.4-3-3.4c-2.4,0-3,1.3-3,3.4s0.6,3.4,3,3.4C24.6,14.3,25.3,13,25.3,10.9z"/>
		<path class="st0" d="M30.6,5l2.6-0.2l0.3,1.1c0.5-0.7,1.8-1.3,4.3-1.3c2.7,0,3.2,0.6,3.6,1.3c0.6-0.8,1.9-1.3,4.5-1.3
			c3.7,0,4.2,2,4.2,5V17h-3.4v-6.7c0-1.5,0-2.6-2.1-2.6c-2.4,0-2.6,1.1-2.6,2.7V17h-3.4v-6.7c0-1.5-0.1-2.6-2.1-2.6
			c-2.4,0-2.6,1.1-2.6,2.7V17h-3.4L30.6,5L30.6,5z"/>
		<path class="st0" d="M52.4,5L55,4.8l0.3,1.1c0.7-0.8,1.9-1.3,4.4-1.3c4.2,0,5.2,2.8,5.2,6.3s-1.1,6.3-5.4,6.3
			c-2.2,0-3.2-0.4-3.8-1.1v4.5h-3.4V5z M61.5,11c0-2-0.4-3.4-2.6-3.4c-2.4,0-3.1,1.1-3.1,3.4s0.7,3.3,3.1,3.3
			C61.1,14.3,61.5,13,61.5,11z"/>
		<path class="st0" d="M66.9,13.3v-13h3.4v12.6c0,1,0.2,1.3,1.2,1.3h0.4v2.8C71.6,17,71,17,70.3,17C68.1,17,66.9,16.2,66.9,13.3z"/>
		<path class="st0" d="M74,0.6h3.4v3.1H74V0.6z M74,4.8h3.4V17H74V4.8z"/>
		<path class="st0" d="M83.8,17.2c-3.8,0-4.6-1.6-4.6-3.8c0-3.4,2.4-4.2,7.8-4.2h0.5c0-1.1-0.3-1.7-2.4-1.7c-1.5,0-2.8,0.5-3.5,1
			L79.9,6c0.9-0.6,3-1.5,5.6-1.5c4.4,0,5.3,1.4,5.3,4.8v3.7c0,0.9,0.1,1.1,1.1,1.1V17c-0.3,0.1-0.7,0.1-1.4,0.1
			c-1.3,0-1.9-0.3-2.4-1.2C87.5,16.7,86.1,17.2,83.8,17.2z M87.6,12v-0.5h-0.3c-4.3,0-4.8,0.3-4.8,1.7c0,0.9,0.5,1.3,2,1.3
			C86.6,14.4,87.6,13.7,87.6,12z"/>
		<path class="st0" d="M93.7,5l2.6-0.2l0.3,1.1c0.7-0.7,1.8-1.3,4.4-1.3c3.7,0,4.4,2,4.4,5V17H102v-6.7c0-1.5-0.2-2.6-2.2-2.6
			c-2.4,0-2.8,1.1-2.8,2.7V17h-3.4V5z"/>
		<path class="st0" d="M107.2,10.9c0-3.5,1.1-6.3,6.4-6.3c2.2,0,3.8,0.7,5,2l-2.4,2.2c-0.5-0.5-1.2-1.1-2.6-1.1c-2.4,0-3,1.3-3,3.4
			s0.5,3.4,3,3.4c1.1,0,1.9-0.3,2.8-1.2l2.2,2.1c-1.4,1.3-2.6,2-5,2C108.3,17.2,107.2,14.4,107.2,10.9z"/>
		<path class="st0" d="M125.5,17.2c-5.2,0-6.3-2.9-6.3-6.3s1.1-6.3,6.3-6.3c5.4,0,5.5,3.6,5.4,7.7h-8.5c0.2,1.5,0.9,2.4,3.1,2.4
			c1.9,0,2.9-0.5,3.8-1.1l1.7,2.2C129.4,16.7,127.9,17.2,125.5,17.2z M122.4,9.7h5.4c-0.1-1.4-0.3-2.4-2.4-2.4
			C123.2,7.3,122.6,8.3,122.4,9.7z"/>
		<path class="st0" d="M138.8,17.2c-2.4,0-4.4-0.6-6.3-1.7l0.6-0.9c1.7,1.1,3.6,1.6,5.7,1.6c1.7,0,3-0.3,3.8-0.9
			c0.8-0.5,1.3-1.5,1.3-2.7c0-0.5-0.1-0.9-0.3-1.3c-0.1-0.3-0.3-0.7-0.6-0.9c-0.3-0.2-0.6-0.4-1-0.5c-0.4-0.1-0.9-0.3-1.3-0.4
			c-0.5-0.1-1-0.2-1.6-0.3c-0.1,0-0.2,0-0.3-0.1C138,9,137.4,8.9,137,8.7c-0.4-0.1-0.9-0.3-1.5-0.5c-0.5-0.2-0.9-0.5-1.2-0.7
			c-0.3-0.3-0.5-0.6-0.7-1.1c-0.2-0.5-0.3-1-0.3-1.6c0-1.4,0.5-2.5,1.3-3.1c0.9-0.7,2.3-1,4.1-1c2.2,0,3.9,0.5,5.2,1.3l-0.6,0.9
			c-1.2-0.8-2.8-1.3-4.6-1.3c-1.5,0-2.6,0.3-3.3,0.7c-0.7,0.5-1.1,1.3-1.1,2.3c0,0.5,0.1,0.8,0.2,1.1c0.1,0.3,0.3,0.6,0.5,0.8
			c0.2,0.2,0.5,0.4,1,0.5c0.5,0.2,0.9,0.3,1.3,0.4c0.4,0.1,0.9,0.2,1.6,0.3c0.7,0.1,1.1,0.2,1.4,0.3c0.3,0.1,0.7,0.1,1.2,0.3
			s0.9,0.3,1.1,0.4c0.3,0.1,0.5,0.3,0.9,0.5c0.3,0.2,0.5,0.5,0.7,0.7c0.1,0.3,0.3,0.6,0.4,0.9c0.1,0.4,0.2,0.8,0.2,1.3
			C145,15.7,142.9,17.2,138.8,17.2z"/>
		<path class="st0" d="M147.8,17V0.2h1.1v6.5c0.5-1.3,1.9-1.9,4.3-1.9c0.9,0,1.7,0.1,2.3,0.3c0.6,0.2,1,0.5,1.3,1
			c0.3,0.5,0.5,0.9,0.5,1.5s0.1,1.2,0.1,2v7.2h-1.1V9.9c0-0.7,0-1.2-0.1-1.6c-0.1-0.4-0.2-0.8-0.4-1.2s-0.5-0.7-1-0.9
			c-0.5-0.2-1.1-0.3-1.9-0.3c-0.8,0-1.5,0.1-2.1,0.3c-0.5,0.2-0.9,0.5-1.3,0.9c-0.3,0.4-0.5,0.9-0.6,1.3c-0.1,0.5-0.1,1.1-0.1,1.7
			V17H147.8L147.8,17z"/>
		<path class="st0" d="M165.6,17.2c-1.1,0-2.1-0.1-2.8-0.5c-0.7-0.3-1.3-0.7-1.7-1.3c-0.4-0.6-0.7-1.2-0.8-1.9
			c-0.1-0.7-0.2-1.5-0.2-2.4c0-0.9,0.1-1.7,0.3-2.4c0.1-0.7,0.4-1.3,0.8-1.9c0.4-0.6,0.9-1,1.7-1.3c0.7-0.3,1.6-0.5,2.7-0.5
			c0.7,0,1.2,0.1,1.7,0.2c0.5,0.1,0.9,0.3,1.2,0.5c0.3,0.2,0.6,0.5,0.8,0.8c0.2,0.3,0.4,0.7,0.5,1c0.1,0.3,0.2,0.7,0.3,1.2
			c0.1,0.5,0.1,0.9,0.1,1.3c0,0.3,0,0.8,0,1.4h-9.1c0,0.8,0.1,1.4,0.2,2c0.1,0.5,0.3,1.1,0.7,1.5c0.3,0.5,0.8,0.8,1.3,1.1
			c0.6,0.3,1.3,0.3,2.2,0.3c0.9,0,1.6-0.1,2.2-0.3c0.5-0.2,1.1-0.5,1.7-0.9l0.6,0.8C168.8,16.7,167.3,17.2,165.6,17.2z M165.5,5.9
			c-1.5,0-2.6,0.4-3.3,1.1c-0.6,0.7-1,1.8-1.1,3.2h8c0-0.5-0.1-0.9-0.1-1.1c0-0.3-0.1-0.6-0.1-1c-0.1-0.4-0.2-0.7-0.3-0.9
			c-0.1-0.2-0.3-0.4-0.6-0.7c-0.3-0.2-0.6-0.4-1-0.5S166.1,5.9,165.5,5.9z"/>
		<path class="st0" d="M173.1,17V5.2l0.9-0.1l0.1,2c0.2-0.6,0.7-1.1,1.4-1.5c0.7-0.4,1.6-0.6,2.8-0.6v1.1c-1.4,0-2.4,0.4-3.1,1.1
			c-0.7,0.8-1,1.8-1,3.2v6.5L173.1,17L173.1,17z"/>
		<path class="st0" d="M180.3,3.5V1.4h1.1v2.1H180.3z M180.3,17V5.2h1.1V17H180.3z"/>
		<path class="st0" d="M192.5,17V6.2H187V17H186V6.2h-2.2v-1h2.2V3.8c0-1.1,0.3-2,0.7-2.6c0.5-0.6,1.3-0.9,2.5-0.9h1.2v1h-1.1
			c-0.8,0-1.4,0.2-1.7,0.7c-0.3,0.5-0.5,1.1-0.5,1.9v1.4h5.4V3.8c0-1.1,0.3-2,0.7-2.6c0.5-0.6,1.3-0.9,2.5-0.9h1.2v1h-1.1
			c-0.8,0-1.4,0.2-1.7,0.7c-0.3,0.5-0.5,1.1-0.5,1.9v1.4h3.3v1h-3.3V17H192.5z"/>
	</g>
	<path id="by-Cyxtera_1_" class="st2" d="M71.6,46.8c-0.8,0-1.5-0.1-1.9-0.2s-0.8-0.4-1-0.8l-0.2,0.9l-0.8-0.1V35.9h1.1v4
		c0.2-0.4,0.6-0.6,1-0.8c0.5-0.2,1.1-0.3,1.9-0.3c1.2,0,2.1,0.3,2.5,1c0.5,0.7,0.7,1.7,0.7,3c0,1.3-0.3,2.3-0.8,3
		C73.7,46.5,72.8,46.8,71.6,46.8z M71.4,45.9c0.9,0,1.5-0.3,1.9-0.8c0.4-0.5,0.5-1.3,0.5-2.3c0-1-0.2-1.8-0.5-2.3
		c-0.4-0.5-1-0.8-1.9-0.8c-1,0-1.7,0.2-2.1,0.7c-0.4,0.5-0.6,1.2-0.6,2.4c0,1.1,0.2,1.9,0.6,2.3C69.8,45.6,70.5,45.9,71.4,45.9z
		 M76.8,49c-0.4,0-0.6,0-0.7,0v-0.9h0.6c0.4,0,0.6-0.1,0.8-0.2c0.2-0.1,0.3-0.3,0.4-0.6l0.3-0.7l-3-7.6h1.1l2.4,6.4l2.4-6.4h1.1
		l-3.3,8.4c-0.2,0.6-0.5,1-0.8,1.2C77.8,48.9,77.3,49,76.8,49z"/>
	<path class="st0" d="M91.5,36.5h1.1l4.1,10.3h-1.1l-0.9-2.4h-5.2l-0.9,2.4h-1.1L91.5,36.5z M94.2,43.5L92,37.8l-2.2,5.6H94.2z"/>
	<path class="st0" d="M97.7,39.3l0.8-0.1l0.1,0.9c0.4-0.7,1.3-1.1,3-1.1c2.5,0,3.3,1.6,3.3,4c0,2.4-0.7,3.9-3.3,3.9
		c-1.7,0-2.5-0.3-2.9-1v3.2h-1V39.3z M103.8,43c0-1.9-0.5-3-2.4-3c-1.9,0-2.7,0.7-2.7,3c0,2.2,0.7,3,2.7,3
		C103.3,46,103.8,44.9,103.8,43z"/>
	<path class="st0" d="M106.3,39.3l0.8-0.1l0.1,0.9c0.4-0.7,1.3-1.1,3-1.1c2.5,0,3.3,1.6,3.3,4c0,2.4-0.7,3.9-3.3,3.9
		c-1.7,0-2.5-0.3-2.9-1v3.2h-1V39.3z M112.4,43c0-1.9-0.5-3-2.4-3c-1.9,0-2.7,0.7-2.7,3c0,2.2,0.7,3,2.7,3
		C111.9,46,112.4,44.9,112.4,43z"/>
	<path class="st0" d="M114.4,41.7c0-3.7,1.8-5.3,5.1-5.3c2,0,3.1,0.6,3.7,1.3l-0.8,0.8c-0.6-0.6-1.5-1-2.9-1c-2.7,0-4,1.3-4,4.2
		c0,2.9,1.1,4.3,4,4.3c2.7,0,3.3-1.2,3.3-3.4v-0.3h-3.4v-1h4.5v1.2c0,2.8-0.7,4.6-4.5,4.6C115.8,47,114.4,45.2,114.4,41.7z"/>
	<path class="st0" d="M124.7,44.7c0-2.2,1.2-2.8,5.1-2.8h0.5c0-1.3-0.3-1.9-2.1-1.9c-1,0-1.8,0.3-2.3,0.7l-0.6-0.8
		c0.5-0.3,1.6-0.8,2.9-0.8c2.6,0,3,0.9,3,3.1V45c0,0.8,0.1,0.9,0.8,0.9v0.9c-0.1,0-0.2,0-0.4,0c-0.9,0-1.1-0.3-1.2-1
		c-0.5,0.7-1.3,1.1-3,1.1C125.2,47,124.7,46,124.7,44.7z M130.2,43.4v-0.6h-0.4c-3.3,0-4.1,0.4-4.1,1.8c0,0.9,0.4,1.4,1.8,1.4
		C129.4,46.1,130.2,45.2,130.2,43.4z"/>
	<path class="st0" d="M132.3,39.2h1.4l0.2-2.3l0.8-0.2v2.4h2.1v1h-2.1v4.6c0,0.7,0.1,1.2,1.2,1.2h0.9v0.9c-0.1,0-1,0-1.1,0
		c-1.7,0-2-0.7-2-2v-4.7h-1.4V39.2z"/>
	<path class="st0" d="M137.5,43c0-2.2,0.7-4,3.6-4c3.1,0,3.2,2.1,3.1,4.3h-5.7c0.1,1.6,0.5,2.7,2.6,2.7c1.3,0,1.8-0.3,2.5-0.8
		l0.6,0.7c-0.8,0.6-1.6,1-3,1C138.1,47,137.5,45.2,137.5,43z M138.6,42.4h4.7c-0.1-1.3-0.2-2.4-2.2-2.4
		C139.2,40,138.7,40.9,138.6,42.4z"/>
</g>
</svg>
