<?xml version="1.0" encoding="UTF-8"?>
<svg width="1095px" height="378px" viewBox="0 0 1095 378" version="1.1" xmlns="http://www.w3.org/2000/svg" xmlns:xlink="http://www.w3.org/1999/xlink">
    <!-- Generator: Sketch 47.1 (45422) - http://www.bohemiancoding.com/sketch -->
    <title>Group 8</title>
    <desc>Created with Sketch.</desc>
    <defs></defs>
    <g id="Website" stroke="none" stroke-width="1" fill="none" fill-rule="evenodd">
        <g id="03.1---Product--&gt;-Features-&amp;-Benefits" transform="translate(-71.000000, -115.000000)">
            <g id="Group-8" transform="translate(71.000000, 115.000000)">
                <text id="Features-&amp;-Benefits" font-family="Avenir-Light, Avenir" font-size="54" font-weight="300" line-spacing="63" letter-spacing="-1.2825" fill="#00AAEE">
                    <tspan x="391" y="254">Features &amp; Benefits</tspan>
                </text>
                <g id="Group-12">
                    <circle id="Oval-4" fill="#FFFFFF" cx="187.5" cy="191.5" r="181.5"></circle>
                    <g id="Header-Logo" fill-rule="nonzero">
                        <path d="M188.93617,0 C84.6324249,0 0,85.1186441 0,189 C0,293.338983 84.6324249,378 188.93617,378 C293.239916,378 377.87234,293.338983 377.87234,189 C377.87234,85.1186441 293.239916,0 188.93617,0 Z M188.93617,349.627119 C100.643965,349.627119 28.8207717,277.779661 28.8207717,189.457627 C28.8207717,101.135593 100.186492,29.2881356 188.93617,29.2881356 C277.228376,29.2881356 349.051569,100.677966 349.051569,189.457627 C348.594096,277.322034 277.228376,349.627119 188.93617,349.627119 Z" id="Shape" fill="#00263A"></path>
                        <g id="Group" transform="translate(48.511070, 55.614527)">
                            <path d="M164.716894,113.43416 C163.333611,112.052098 161.02814,112.052098 159.183763,113.43416 L131.979204,139.693348 L119.990754,127.715473 C118.607471,126.33341 116.302,126.33341 114.457623,127.715473 L109.385587,132.783035 C108.002304,134.165098 108.002304,136.468535 109.385587,138.311285 L128.751544,157.66016 L129.212639,158.120848 C130.595921,159.50291 132.901392,158.581535 134.284675,157.66016 L168.866742,123.108598 C170.250025,121.726535 170.250025,119.423098 168.866742,117.580348 L164.716894,113.43416 Z" id="Shape" fill="#00AAEE"></path>
                            <path d="M137.973429,0.105035473 C62.353976,0.105035473 0.567349873,61.8371605 0.567349873,137.38991 C0.567349873,212.94266 62.353976,274.674785 137.973429,274.674785 C213.592882,274.674785 275.379508,212.94266 275.379508,137.38991 C275.379508,61.8371605 214.51507,0.105035473 137.973429,0.105035473 Z M207.598657,143.839535 C207.598657,179.312473 183.621757,201.88616 142.584371,229.988098 C140.739994,231.37016 137.973429,231.37016 136.129052,229.988098 C94.6305718,202.346848 71.1147663,179.77316 71.1147663,143.839535 C71.1147663,115.27691 71.1147663,82.1074105 71.1147663,71.511598 C71.1147663,69.668848 72.9591432,67.826098 74.8035201,67.826098 C98.3193256,67.3654105 113.996529,61.376473 136.590146,42.027598 C138.434523,40.6455355 141.201088,40.6455355 142.123277,42.027598 C164.716894,61.376473 180.394098,67.3654105 203.909903,67.826098 C205.75428,67.826098 207.598657,69.668848 207.598657,71.511598 C207.598657,82.1074105 207.598657,115.27691 207.598657,143.839535 Z" id="Shape" fill="#942786"></path>
                        </g>
                    </g>
                </g>
                <g id="Group" transform="translate(391.000000, 115.000000)" fill-rule="nonzero" fill="#FFFFFF">
                    <path d="M0,31.3795918 C0,10.9102041 11.0818182,2 30.1136364,2 C40.4727273,2 47.2181818,4.88979592 52.5181818,10.1877551 L43.8454545,18.8571429 C40.4727273,15.4857143 36.3772727,13.5591837 30.1136364,13.5591837 C17.8272727,13.5591837 12.7681818,19.8204082 12.7681818,31.6204082 C12.7681818,43.1795918 17.1045455,49.6816327 30.1136364,49.6816327 C37.5818182,49.6816327 40.9545455,47.2734694 44.5681818,43.9020408 L53,52.0897959 C48.4227273,56.9061224 42.4,61 29.3909091,61 C7.95,60.7591837 0,50.1632653 0,31.3795918 Z" id="Shape"></path>
                    <path d="M56,38.5 C56,23.8989362 62.4285714,16 78.6190476,16 C94.8095238,16 101,24.1382979 101,38.5 C101,52.8617021 94.8095238,61 78.6190476,61 C62.1904762,61 56,53.1010638 56,38.5 Z M89.0952381,38.7393617 C89.0952381,31.3191489 86.7142857,26.7712766 78.6190476,26.7712766 C70.2857143,26.7712766 68.1428571,31.3191489 68.1428571,38.7393617 C68.1428571,46.1595745 70.2857143,50.7074468 78.6190476,50.7074468 C86.7142857,50.7074468 89.0952381,46.1595745 89.0952381,38.7393617 Z" id="Shape"></path>
                    <path d="M108.24055,17.7027027 L117.621993,16.972973 L118.584192,20.8648649 C120.508591,18.1891892 125.079038,16 133.979381,16 C143.601375,16 145.285223,18.1891892 146.728522,20.8648649 C148.893471,17.9459459 153.704467,16 162.845361,16 C176.075601,16 178,23.2972973 178,34.2432432 L178,61 L165.731959,61 L165.731959,36.6756757 C165.731959,31.3243243 165.731959,27.4324324 158.274914,27.4324324 C149.85567,27.4324324 148.893471,31.3243243 148.893471,37.1621622 L148.893471,61 L136.865979,61 L136.865979,36.6756757 C136.865979,31.3243243 136.62543,27.4324324 129.408935,27.4324324 C120.989691,27.4324324 120.027491,31.3243243 120.027491,37.1621622 L120.027491,61 L108,61 L108,17.7027027 L108.24055,17.7027027 Z" id="Shape"></path>
                    <path d="M187,17.6764706 L196.435484,16.9579832 L197.403226,20.789916 C199.822581,17.9159664 204.177419,16 213.370968,16 C228.370968,16 232,26.0588235 232,38.512605 C232,50.9663866 228.129032,61.0252101 212.645161,61.0252101 C204.66129,61.0252101 201.032258,59.5882353 199.096774,56.9537815 L199.096774,73 L187,73 L187,17.6764706 Z M219.903226,38.9915966 C219.903226,32.0462185 218.451613,26.7773109 210.467742,26.7773109 C202,26.7773109 199.33871,30.6092437 199.33871,38.9915966 C199.33871,47.3739496 201.758065,50.7268908 210.467742,50.7268908 C218.209677,50.7268908 219.903226,45.9369748 219.903226,38.9915966 Z" id="Shape"></path>
                    <path d="M239,46.6935484 L239,0 L251.162162,0 L251.162162,45.2419355 C251.162162,48.8709677 251.891892,49.8387097 255.540541,49.8387097 L257,49.8387097 L257,59.7580645 C256.027027,60 253.594595,60 251.162162,60 C243.135135,60 239,57.0967742 239,46.6935484 Z" id="Shape"></path>
                    <path d="M264,1 L276,1 L276,12.1229508 L264,12.1229508 L264,1 Z M264,16.2336066 L275.764706,16.2336066 L275.764706,60 L264,60 L264,16.2336066 Z" id="Shape"></path>
                    <path d="M299.276596,61 C285.87234,61 283,55.2553191 283,47.5957447 C283,35.3882979 291.617021,32.5159574 310.765957,32.5159574 L312.441489,32.5159574 C312.441489,28.6861702 311.484043,26.5319149 303.824468,26.5319149 C298.558511,26.5319149 293.771277,28.4468085 291.37766,30.1223404 L285.393617,21.2659574 C288.505319,19.1117021 296.164894,16 305.260638,16 C320.819149,16 324.170213,21.0265957 324.170213,33.2340426 L324.170213,46.3989362 C324.170213,49.75 324.409574,50.4680851 328,50.4680851 L328,60.2819149 C327.042553,60.5212766 325.606383,60.5212766 322.973404,60.5212766 C318.425532,60.5212766 316.271277,59.5638298 314.595745,56.212766 C312.441489,59.0851064 307.414894,61 299.276596,61 Z M312.680851,42.3297872 L312.680851,40.6542553 L311.723404,40.6542553 C296.404255,40.6542553 294.489362,41.8510638 294.489362,46.6382979 C294.489362,49.75 296.164894,51.4255319 301.670213,51.4255319 C309.329787,51.1861702 312.680851,48.5531915 312.680851,42.3297872 Z" id="Shape"></path>
                    <path d="M334,17.7027027 L343.413793,16.972973 L344.37931,20.8648649 C346.793103,18.1891892 350.896552,16 360.310345,16 C373.586207,16 376,23.2972973 376,34.2432432 L376,61 L363.931034,61 L363.931034,36.6756757 C363.931034,31.3243243 363.206897,27.4324324 355.965517,27.4324324 C347.517241,27.4324324 346.068966,31.3243243 346.068966,37.1621622 L346.068966,61 L334,61 L334,17.7027027 Z" id="Shape"></path>
                    <path d="M383,38.6181548 C383,26.1059841 387.1,16 405.911765,16 C413.870588,16 419.658824,18.6468054 423.758824,22.9779414 L415.317647,30.9183574 C413.388235,28.9934081 410.976471,26.8278401 406.152941,26.8278401 C397.470588,26.8278401 395.541176,31.6402134 395.541176,38.8587735 C395.541176,46.0773335 397.470588,50.8897069 406.394118,50.8897069 C410.494118,50.8897069 413.147059,49.6866136 416.282353,46.5585709 L424,54.0177496 C418.935294,58.830123 414.594118,60.995691 405.911765,60.995691 C387.1,61.2363096 383,51.3709442 383,38.6181548 Z" id="Shape"></path>
                    <path d="M447.836158,61 C428.887006,61 425,50.7074468 425,38.5 C425,26.2925532 429.129944,16 447.836158,16 C467.271186,16 467.757062,28.6861702 467.514124,43.287234 L436.903955,43.287234 C437.632768,48.5531915 440.062147,51.6648936 448.079096,51.6648936 C454.881356,51.6648936 458.525424,49.9893617 461.926554,47.5957447 L468,55.4946809 C462.169492,59.3244681 456.581921,61 447.836158,61 Z M436.661017,34.4308511 L456.096045,34.4308511 C455.853107,29.4042553 454.881356,25.8138298 447.350282,25.8138298 C439.819209,25.8138298 437.389831,29.1648936 436.661017,34.4308511 Z" id="Shape"></path>
                    <path d="M495.741935,61 C487.274194,61 479.774194,58.8326531 473,54.7387755 L475.177419,51.6081633 C481.225806,55.4612245 488,57.3877551 495.741935,57.3877551 C501.790323,57.3877551 506.387097,56.4244898 509.532258,54.2571429 C512.435484,52.3306122 514.129032,48.9591837 514.129032,44.6244898 C514.129032,42.9387755 513.887097,41.2530612 513.16129,40.0489796 C512.677419,38.844898 511.951613,37.6408163 510.983871,36.9183673 C510.016129,36.1959184 508.806452,35.4734694 507.354839,34.9918367 C505.903226,34.5102041 504.209677,34.0285714 502.516129,33.5469388 C500.822581,33.0653061 498.887097,32.8244898 496.709677,32.3428571 C496.225806,32.3428571 495.983871,32.3428571 495.741935,32.1020408 C492.83871,31.6204082 490.66129,31.1387755 489.209677,30.6571429 C487.758065,30.1755102 485.822581,29.6938776 483.887097,28.9714286 C481.951613,28.2489796 480.5,27.2857143 479.532258,26.322449 C478.564516,25.3591837 477.596774,24.155102 476.870968,22.4693878 C476.145161,20.7836735 475.903226,18.8571429 475.903226,16.6897959 C475.903226,11.6326531 477.596774,7.77959184 480.741935,5.6122449 C484.129032,3.20408163 488.967742,2 495.5,2 C503.241935,2 509.532258,3.68571429 514.370968,6.81632653 L512.193548,9.94693878 C507.83871,7.05714286 502.274194,5.37142857 495.5,5.37142857 C490.177419,5.37142857 486.064516,6.33469388 483.645161,8.02040816 C481.225806,9.70612245 479.774194,12.5959184 479.774194,16.2081633 C479.774194,17.8938776 480.016129,19.0979592 480.5,20.3020408 C480.983871,21.5061224 481.709677,22.4693878 482.435484,23.1918367 C483.16129,23.9142857 484.370968,24.6367347 486.064516,25.1183673 C487.758065,25.8408163 489.209677,26.322449 490.66129,26.5632653 C492.112903,26.8040816 494.048387,27.2857143 496.467742,27.7673469 C498.887097,28.2489796 500.580645,28.4897959 501.548387,28.7306122 C502.516129,28.9714286 503.967742,29.2122449 505.903226,29.6938776 C507.83871,30.1755102 509.048387,30.6571429 510.016129,31.1387755 C510.983871,31.6204082 511.951613,32.3428571 513.16129,33.0653061 C514.370968,33.7877551 515.096774,34.7510204 515.822581,35.7142857 C516.306452,36.677551 516.790323,37.8816327 517.274194,39.0857143 C517.758065,40.5306122 518,41.9755102 518,43.6612245 C518,55.4612245 510.5,61 495.741935,61 Z" id="Shape"></path>
                    <path d="M528,60 L528,0 L531.804196,0 L531.804196,23.373494 C533.706294,18.7951807 538.699301,16.626506 547.020979,16.626506 C550.34965,16.626506 552.965035,17.1084337 555.104895,17.8313253 C557.244755,18.5542169 558.671329,19.7590361 559.622378,21.4457831 C560.573427,23.1325301 561.286713,24.8192771 561.524476,26.746988 C561.762238,28.6746988 562,31.0843373 562,33.9759036 L562,59.7590361 L558.195804,59.7590361 L558.195804,34.4578313 C558.195804,32.0481928 558.195804,30.1204819 557.958042,28.6746988 C557.72028,27.2289157 557.244755,25.7831325 556.531469,24.3373494 C555.818182,22.8915663 554.629371,21.9277108 552.965035,21.2048193 C551.300699,20.4819277 549.160839,20.2409639 546.307692,20.2409639 C543.454545,20.2409639 541.076923,20.7228916 538.937063,21.4457831 C537.034965,22.1686747 535.608392,23.373494 534.41958,24.8192771 C533.468531,26.2650602 532.755245,27.9518072 532.27972,29.6385542 C531.804196,31.3253012 531.804196,33.4939759 531.804196,35.9036145 L531.804196,60 L528,60 L528,60 Z" id="Shape"></path>
                    <path d="M591.68,61 C587.6,61 584.24,60.5164835 581.6,59.3076923 C578.96,58.0989011 576.8,56.6483516 575.6,54.4725275 C574.16,52.2967033 573.2,50.1208791 572.72,47.7032967 C572.24,45.2857143 572,42.3846154 572,39 C572,35.6153846 572.24,32.7142857 572.96,30.2967033 C573.44,27.8791209 574.4,25.4615385 575.84,23.5274725 C577.28,21.3516484 579.2,19.9010989 581.84,18.6923077 C584.48,17.7252747 587.6,17 591.44,17 C593.84,17 595.76,17.2417582 597.44,17.7252747 C599.12,18.2087912 600.56,18.6923077 601.76,19.4175824 C602.96,20.1428571 603.92,21.1098901 604.64,22.3186813 C605.36,23.5274725 606.08,24.7362637 606.56,25.9450549 C607.04,27.1538462 607.28,28.6043956 607.52,30.2967033 C607.76,31.989011 607.76,33.6813187 608,34.8901099 C608,36.0989011 608,37.7912088 608,39.967033 L575.6,39.967033 C575.6,42.8681319 575.84,45.043956 576.32,47.2197802 C576.8,49.1538462 577.52,51.0879121 578.72,52.7802198 C579.92,54.4725275 581.6,55.6813187 583.52,56.6483516 C585.68,57.6153846 588.32,57.8571429 591.44,57.8571429 C594.56,57.8571429 597.2,57.3736264 599.12,56.6483516 C601.04,55.9230769 602.96,54.7142857 605.12,53.2637363 L607.28,56.1648352 C602.96,59.3076923 597.68,61 591.68,61 Z M591.2,20.3846154 C585.68,20.3846154 581.84,21.8351648 579.44,24.4945055 C577.28,27.1538462 575.84,31.021978 575.6,36.0989011 L604.16,36.0989011 C604.16,34.4065934 603.92,32.956044 603.92,31.989011 C603.92,31.021978 603.68,29.8131868 603.44,28.3626374 C603.2,26.9120879 602.72,25.9450549 602.24,24.978022 C601.76,24.2527473 601.04,23.5274725 600.08,22.5604396 C599.12,21.8351648 597.92,21.1098901 596.48,20.8681319 C595.04,20.6263736 593.36,20.3846154 591.2,20.3846154 Z" id="Shape"></path>
                    <path d="M618,60 L618,17.7247191 L621.207792,17.4831461 L621.701299,24.7303371 C622.441558,22.5561798 624.415584,20.6235955 626.883117,19.1741573 C629.597403,17.7247191 632.805195,17 637,17 L637,20.8651685 C631.818182,20.8651685 628.116883,22.3146067 625.649351,24.9719101 C623.181818,27.8707865 621.948052,31.494382 621.948052,36.3258427 L621.948052,59.758427 L618,59.758427 L618,60 Z" id="Shape"></path>
                    <path d="M644,11.4827586 L644,4 L648,4 L648,11.4827586 L644,11.4827586 Z M644,60 L644,17.7586207 L648,17.7586207 L648,60 L644,60 Z" id="Shape"></path>
                    <path d="M688.015228,60 L688.015228,21.4457831 L668.690355,21.4457831 L668.690355,60 L664.873096,60 L664.873096,21.4457831 L657,21.4457831 L657,17.8313253 L664.873096,17.8313253 L664.873096,12.7710843 C664.873096,8.6746988 665.827411,5.54216867 667.497462,3.37349398 C669.167513,1.20481928 672.030457,0 676.324873,0 L680.619289,0 L680.619289,3.61445783 L676.563452,3.61445783 C673.700508,3.61445783 671.553299,4.3373494 670.598985,6.02409639 C669.406091,7.71084337 668.928934,9.87951807 668.928934,12.7710843 L668.928934,17.8313253 L688.253807,17.8313253 L688.253807,12.7710843 C688.253807,8.6746988 689.208122,5.54216867 690.878173,3.37349398 C692.548223,1.20481928 695.411168,0 699.705584,0 L704,0 L704,3.61445783 L699.944162,3.61445783 C697.081218,3.61445783 694.93401,4.3373494 693.979695,6.02409639 C692.786802,7.71084337 692.309645,9.87951807 692.309645,12.7710843 L692.309645,17.8313253 L704,17.8313253 L704,21.4457831 L692.309645,21.4457831 L692.309645,60 L688.015228,60 Z" id="Shape"></path>
                </g>
            </g>
        </g>
    </g>
</svg>