<?xml version="1.0" encoding="UTF-8"?>
<svg width="73px" height="73px" viewBox="0 0 73 73" version="1.1" xmlns="http://www.w3.org/2000/svg" xmlns:xlink="http://www.w3.org/1999/xlink">
    <!-- Generator: Sketch 47.1 (45422) - http://www.bohemiancoding.com/sketch -->
    <title>if_38_caduceus_medicine_1053692</title>
    <desc>Created with Sketch.</desc>
    <defs></defs>
    <g id="Website" stroke="none" stroke-width="1" fill="none" fill-rule="evenodd">
        <g id="01---HOME" transform="translate(-936.000000, -1997.000000)" stroke="#FFFFFF" stroke-width="2">
            <g id="HOW-TO-COMPLY…" transform="translate(191.000000, 1766.000000)">
                <g id="Healthcare" transform="translate(703.000000, 205.000000)">
                    <g transform="translate(16.000000, 0.000000)" id="if_38_caduceus_medicine_1053692">
                        <g transform="translate(27.272727, 27.272727)">
                            <path d="M35.2272727,43.1818182 L35.2272727,9.09090909" id="Shape"></path>
                            <path d="M35.2272727,70.4545455 L35.2272727,47.7272727" id="Shape"></path>
                            <circle id="Oval" cx="35.2272727" cy="4.54545455" r="4.54545455"></circle>
                            <path d="M35.2272727,59.0909091 C37.5,60.2272727 40.9090909,61.6340909 40.9090909,64.7727273 C40.9090909,67.9113636 38.3659091,70.4545455 35.2272727,70.4545455 C32.0886364,70.4545455 29.5454545,67.9113636 29.5454545,64.7727273 C29.5454545,63.4931818 29.9681818,62.3136364 30.6818182,61.3636364" id="Shape"></path>
                            <path d="M35.2272727,59.0909091 C32.9545455,57.9545455 27.2727273,55.6818182 27.2727273,51.1363636 C27.2727273,48.3465909 29.5636364,46.8079545 31.8181818,45.4761364" id="Shape"></path>
                            <path d="M39.7727273,56.8181818 C42.0454545,55.6818182 43.1818182,53.7431818 43.1818182,51.1363636 C43.1818182,46.7431818 37.5,44.3181818 35.2272727,43.1818182" id="Shape"></path>
                            <path d="M38.6363636,27.2727273 C40.9090909,27.2727273 44.3181818,29.5454545 44.3181818,34.0909091 C44.3181818,39.1125 37.5,42.0454545 35.2272727,43.1818182 C32.9545455,42.0454545 26.1363636,39.1125 26.1363636,34.0909091 C26.1363636,29.5454545 29.5454545,27.2727273 31.8181818,27.2727273" id="Shape"></path>
                            <g id="Group" transform="translate(0.000000, 4.545455)">
                                <path d="M31.8181818,18.1818182 L27.2727273,18.1818182 C11.3636364,18.1818182 2.27272727,12.5 0,5.68181818 C15.9090909,5.68181818 15.9090909,0 21.5909091,0 C23.8636364,0 26.1363636,2.03522727 26.1363636,4.54545455 L26.1363636,7.95454545 C26.1363636,9.83636364 27.6636364,11.3636364 29.5454545,11.3636364 L31.8181818,11.3636364" id="Shape" stroke-linejoin="round"></path>
                                <path d="M23.8636364,18.1818182 L23.8636364,13.6363636" id="Shape"></path>
                                <path d="M19.3181818,18.1818182 L19.3181818,12.5" id="Shape"></path>
                                <path d="M14.7727273,17.0454545 L14.7727273,11.3636364" id="Shape"></path>
                                <path d="M10.2272727,14.7727273 L10.2272727,10.2272727" id="Shape"></path>
                            </g>
                            <g id="Group" transform="translate(38.636364, 4.545455)">
                                <path d="M0,18.1818182 L4.54545455,18.1818182 C20.4545455,18.1818182 29.5454545,12.5 31.8181818,5.68181818 C15.9090909,5.68181818 15.9090909,0 10.2272727,0 C7.95454545,0 5.68181818,2.03522727 5.68181818,4.54545455 L5.68181818,7.95454545 C5.68181818,9.83636364 4.15454545,11.3636364 2.27272727,11.3636364 L0,11.3636364" id="Shape" stroke-linejoin="round"></path>
                                <path d="M7.95454545,18.1818182 L7.95454545,13.6363636" id="Shape"></path>
                                <path d="M12.5,18.1818182 L12.5,12.5" id="Shape"></path>
                                <path d="M17.0454545,17.0454545 L17.0454545,11.3636364" id="Shape"></path>
                                <path d="M21.5909091,14.7727273 L21.5909091,10.2272727" id="Shape"></path>
                            </g>
                        </g>
                    </g>
                </g>
            </g>
        </g>
    </g>
</svg>