<?xml version="1.0" encoding="UTF-8"?>
<svg width="15px" height="14px" viewBox="0 0 15 14" version="1.1" xmlns="http://www.w3.org/2000/svg" xmlns:xlink="http://www.w3.org/1999/xlink">
    <!-- Generator: Sketch 47.1 (45422) - http://www.bohemiancoding.com/sketch -->
    <title>✔</title>
    <desc>Created with Sketch.</desc>
    <defs></defs>
    <g id="Website" stroke="none" stroke-width="1" fill="none" fill-rule="evenodd">
        <g id="03---PRODUCT" transform="translate(-260.000000, -1762.000000)" fill="#00AEF5">
            <g id="Benefits" transform="translate(143.000000, 1353.000000)">
                <g id="Group-2">
                    <path d="M131.616211,410.574219 C131.616211,411.259769 131.305667,411.927731 130.68457,412.578125 L130.587891,412.674805 L125.15625,418.396484 C124.001947,419.609381 123.019047,420.546872 122.20752,421.208984 C121.395992,421.871097 120.823244,422.202148 120.489258,422.202148 C120.137694,422.202148 119.701174,422.036623 119.179688,421.705566 C118.658201,421.37451 118.32129,421.033205 118.168945,420.681641 C118.040038,420.38867 117.918458,419.767583 117.804199,418.818359 C117.689941,417.869136 117.632812,416.840826 117.632812,415.733398 C117.632812,415.12988 117.884763,414.57178 118.388672,414.059082 C118.892581,413.546384 119.449216,413.290039 120.058594,413.290039 C120.638675,413.290039 120.984374,413.820307 121.095703,414.880859 C121.107422,415.003907 121.116211,415.094726 121.12207,415.15332 C121.215821,415.967778 121.324218,416.536131 121.447266,416.858398 C121.570313,417.180666 121.737304,417.341797 121.948242,417.341797 C122.036133,417.341797 122.200194,417.246583 122.44043,417.056152 C122.680665,416.865722 122.967772,416.606447 123.301758,416.27832 L128.882812,410.75 C129.351565,410.281248 129.770506,409.926759 130.139648,409.686523 C130.508791,409.446288 130.822264,409.326172 131.080078,409.326172 C131.273438,409.326172 131.411132,409.399413 131.493164,409.545898 C131.575196,409.692384 131.616211,409.938475 131.616211,410.28418 L131.616211,410.574219 Z" id="✔"></path>
                </g>
            </g>
        </g>
    </g>
</svg>