<?xml version="1.0" encoding="UTF-8"?>
<svg width="73px" height="74px" viewBox="0 0 73 74" version="1.1" xmlns="http://www.w3.org/2000/svg" xmlns:xlink="http://www.w3.org/1999/xlink">
    <!-- Generator: Sketch 47.1 (45422) - http://www.bohemiancoding.com/sketch -->
    <title>if_27_internet_school_824880</title>
    <desc>Created with Sketch.</desc>
    <defs></defs>
    <g id="Website" stroke="none" stroke-width="1" fill="none" fill-rule="evenodd">
        <g id="01---HOME" transform="translate(-936.000000, -1786.000000)" stroke="#FFFFFF" stroke-width="2">
            <g id="HOW-TO-COMPLY…" transform="translate(191.000000, 1766.000000)">
                <g id="Edu" transform="translate(703.000000, 0.000000)">
                    <g id="Group-8" transform="translate(16.000000, 0.000000)">
                        <g id="if_27_internet_school_824880" transform="translate(27.272727, 21.590909)">
                            <polygon id="Shape" stroke-linejoin="round" points="35.2272727 13.6363636 47.7272727 21.5909091 47.7272727 15.9090909 35.2272727 7.95454545 22.7272727 15.9090909 22.7272727 21.5909091"></polygon>
                            <g id="Group" transform="translate(0.000000, 56.818182)">
                                <polygon id="Shape" points="65.9090909 13.6363636 4.54545455 13.6363636 0 9.09090909 0 6.81818182 27.2727273 6.81818182 29.5454545 9.09090909 40.9090909 9.09090909 43.1818182 6.81818182 70.4545455 6.81818182 70.4545455 9.09090909"></polygon>
                                <path d="M6.81818182,0 L63.6363636,0" id="Shape"></path>
                            </g>
                            <polyline id="Shape" stroke-linejoin="round" points="35.2272727 7.95454545 35.2272727 0 46.5909091 0 46.5909091 4.54545455 38.6363636 4.54545455"></polyline>
                            <path d="M31.8181818,53.4090909 L31.8181818,42.0454545 C31.8181818,40.1636364 33.3443182,38.6363636 35.2272727,38.6363636 C37.1090909,38.6363636 38.6363636,40.1636364 38.6363636,42.0454545 L38.6363636,53.4090909" id="Shape" stroke-linejoin="round"></path>
                            <path d="M25,53.4090909 L25,23.8636364" id="Shape" stroke-linejoin="round"></path>
                            <path d="M45.4545455,53.4090909 L45.4545455,23.8636364" id="Shape" stroke-linejoin="round"></path>
                            <circle id="Oval" stroke-linejoin="round" cx="35.2272727" cy="26.1363636" r="3.40909091"></circle>
                            <polyline id="Shape" stroke-linejoin="round" points="6.81818182 60.2272727 6.81818182 25 21.5909091 25"></polyline>
                            <polyline id="Shape" stroke-linejoin="round" points="48.8636364 25 63.6363636 25 63.6363636 60.2272727"></polyline>
                            <polyline id="Shape" stroke-linejoin="round" points="25 29.5454545 20.4545455 29.5454545 20.4545455 34.0909091 25 34.0909091"></polyline>
                            <polyline id="Shape" stroke-linejoin="round" points="25 38.6363636 20.4545455 38.6363636 20.4545455 43.1818182 25 43.1818182"></polyline>
                            <rect id="Rectangle-path" stroke-linejoin="round" x="11.3636364" y="29.5454545" width="4.54545455" height="4.54545455"></rect>
                            <rect id="Rectangle-path" stroke-linejoin="round" x="11.3636364" y="38.6363636" width="4.54545455" height="4.54545455"></rect>
                            <polyline id="Shape" stroke-linejoin="round" points="25 47.7272727 20.4545455 47.7272727 20.4545455 52.2727273 25 52.2727273"></polyline>
                            <rect id="Rectangle-path" stroke-linejoin="round" x="11.3636364" y="47.7272727" width="4.54545455" height="4.54545455"></rect>
                            <polyline id="Shape" stroke-linejoin="round" points="45.4545455 29.5454545 50 29.5454545 50 34.0909091 45.4545455 34.0909091"></polyline>
                            <polyline id="Shape" stroke-linejoin="round" points="45.4545455 38.6363636 50 38.6363636 50 43.1818182 45.4545455 43.1818182"></polyline>
                            <rect id="Rectangle-path" stroke-linejoin="round" x="54.5454545" y="29.5454545" width="4.54545455" height="4.54545455"></rect>
                            <rect id="Rectangle-path" stroke-linejoin="round" x="54.5454545" y="38.6363636" width="4.54545455" height="4.54545455"></rect>
                            <polyline id="Shape" stroke-linejoin="round" points="45.4545455 47.7272727 50 47.7272727 50 52.2727273 45.4545455 52.2727273"></polyline>
                            <rect id="Rectangle-path" stroke-linejoin="round" x="54.5454545" y="47.7272727" width="4.54545455" height="4.54545455"></rect>
                            <path d="M30.6818182,34.0909091 L39.7727273,34.0909091" id="Shape" stroke-linejoin="round"></path>
                        </g>
                    </g>
                </g>
            </g>
        </g>
    </g>
</svg>