<?xml version="1.0" encoding="UTF-8"?>
<svg width="69px" height="74px" viewBox="0 0 69 74" version="1.1" xmlns="http://www.w3.org/2000/svg" xmlns:xlink="http://www.w3.org/1999/xlink">
    <!-- Generator: Sketch 47.1 (45422) - http://www.bohemiancoding.com/sketch -->
    <title>if_13_shopping_bag_824595</title>
    <desc>Created with Sketch.</desc>
    <defs></defs>
    <g id="Website" stroke="none" stroke-width="1" fill="none" fill-rule="evenodd">
        <g id="01---HOME" transform="translate(-1164.000000, -1993.000000)" stroke="#FFFFFF" stroke-width="2">
            <g id="HOW-TO-COMPLY…" transform="translate(191.000000, 1766.000000)">
                <g id="Retail" transform="translate(930.000000, 205.000000)">
                    <g transform="translate(16.000000, 0.000000)" id="if_13_shopping_bag_824595">
                        <g transform="translate(28.409091, 23.863636)">
                            <path d="M48.8636364,25 L48.8636364,10.2272727 C48.8636364,4.57840909 44.2852273,0 38.6363636,0 C32.9875,0 28.4090909,4.57840909 28.4090909,10.2272727 L28.4090909,25" id="Shape"></path>
                            <path d="M39.7727273,15.9090909 L39.7727273,10.2272727 C39.7727273,4.57840909 35.1943182,0 29.5454545,0 C23.8965909,0 19.3181818,4.57840909 19.3181818,10.2272727 L19.3181818,15.9090909" id="Shape"></path>
                            <path d="M45.4545455,25 L52.2727273,25" id="Shape"></path>
                            <path d="M25,25 L31.8181818,25" id="Shape"></path>
                            <path d="M11.3636364,50 C14.7715909,50 14.7715909,54.5454545 18.1795455,54.5454545 C21.5875,54.5454545 21.5875,50 24.9954545,50 C28.4034091,50 28.4034091,54.5454545 31.8113636,54.5454545 C35.2204545,54.5454545 35.2204545,50 38.6295455,50 C42.0363636,50 42.0363636,54.5454545 45.4431818,54.5454545 C48.8522727,54.5454545 48.8522727,50 52.2625,50 C55.675,50 55.675,54.5454545 59.0875,54.5454545 C62.5,54.5454545 62.5,50 65.9113636,50" id="Shape"></path>
                            <path d="M32.9545455,61.3636364 L35.2272727,61.3636364" id="Shape"></path>
                            <path d="M37.5,61.3636364 L39.7727273,61.3636364" id="Shape"></path>
                            <path d="M42.0454545,61.3636364 L44.3181818,61.3636364" id="Shape"></path>
                            <path d="M5.68181818,70.4545455 L60.2272727,70.4545455 C63.3659091,70.4545455 65.9090909,67.9113636 65.9090909,64.7727273 L65.9090909,15.9090909 L11.3636364,15.9090909 L11.3636364,64.7727273 C11.3636364,67.9113636 8.82045455,70.4545455 5.68181818,70.4545455 C2.54318182,70.4545455 0,67.9113636 0,64.7727273 L0,15.9090909 L7.95454545,15.9090909" id="Shape" stroke-linejoin="round"></path>
                            <path d="M11.3636364,15.9090909 C11.3636364,19.0477273 8.82045455,21.5909091 5.68181818,21.5909091 C2.54318182,21.5909091 0,19.0477273 0,15.9090909" id="Shape" stroke-linejoin="round"></path>
                            <path d="M5.68181818,27.2727273 L5.68181818,64.7727273" id="Shape" stroke-linejoin="round"></path>
                        </g>
                    </g>
                </g>
            </g>
        </g>
    </g>
</svg>