<?xml version="1.0" encoding="UTF-8"?>
<svg width="386px" height="96px" viewBox="0 0 386 96" version="1.1" xmlns="http://www.w3.org/2000/svg" xmlns:xlink="http://www.w3.org/1999/xlink">
    <!-- Generator: Sketch 47.1 (45422) - http://www.bohemiancoding.com/sketch -->
    <title>Group 5</title>
    <desc>Created with Sketch.</desc>
    <defs></defs>
    <g id="Website" stroke="none" stroke-width="1" fill="none" fill-rule="evenodd">
        <g id="01---HOME" transform="translate(-888.000000, -1352.000000)">
            <g id="Group-5" transform="translate(888.000000, 1352.000000)">
                <g id="chat" fill-rule="nonzero">
                    <path d="M85,40.1359846 C85,41.9025016 83.5725671,43.3226427 81.7969799,43.3226427 L25.9530201,43.3226427 L13.175755,56 L13.175755,43.2880051 L5.20302013,43.2880051 C3.42743289,43.2880051 2,41.867864 2,40.101347 L2,5.18665811 C2,3.42014112 3.42743289,2 5.20302013,2 L81.7969799,2 C83.5725671,2 85,3.42014112 85,5.18665811 L85,40.1359846 Z" id="Shape" fill="#FFFFFF"></path>
                    <path d="M13,49 L81.8012693,49 C83.5815153,49 85.0126934,50.4060795 85.0126934,52.1551052 L85.0126934,58.431021 L101,58.431021 L85.0126934,74.1379579 L85.0126934,89.8448948 C85.0126934,91.5939205 83.5815153,93 81.8012693,93 L16.211424,93 C14.4311781,93 13,91.5939205 13,89.8448948 L13,59.974279 L13,49 Z" id="Shape" fill="#FFFFFF"></path>
                    <path d="M12.7471729,57 C12.5387722,57 12.3303716,56.9654755 12.1219709,56.8964264 C11.5315024,56.6547547 11.1494346,56.0678377 11.1494346,55.4463961 L11.1494346,44.3640218 L4.79321486,44.3640218 C2.15347334,44.3640218 0,42.2235009 0,39.5996366 L0,4.76438522 C0,2.1405209 2.15347334,0 4.79321486,0 L81.2067851,0 C83.8465267,0 86,2.1405209 86,4.76438522 L86,39.5651121 C86,42.1889764 83.8465267,44.3294973 81.2067851,44.3294973 L26.1542811,44.3294973 L13.8933764,56.5166566 C13.546042,56.8273773 13.1639742,57 12.7471729,57 Z M4.79321486,3.17625681 C3.92487884,3.17625681 3.19547658,3.90127196 3.19547658,4.76438522 L3.19547658,39.5651121 C3.19547658,40.4282253 3.92487884,41.1532405 4.79321486,41.1532405 L12.7471729,41.1532405 C13.6155089,41.1532405 14.3449111,41.8782556 14.3449111,42.7413689 L14.3449111,51.5796487 L24.3481422,41.6365839 C24.6607431,41.3258631 25.042811,41.187765 25.4596123,41.187765 L81.1720517,41.187765 C82.0403877,41.187765 82.76979,40.4627498 82.76979,39.5996366 L82.76979,4.76438522 C82.76979,3.90127196 82.0403877,3.17625681 81.1720517,3.17625681 L4.79321486,3.17625681 Z" id="Shape" fill="#0B2538"></path>
                    <path d="M81.2328066,96 L15.8052193,96 C13.1588666,96 11,93.8356364 11,91.1825455 L11,60.7767273 L14.2034795,60.7767273 L14.2034795,91.1825455 C14.2034795,92.0552727 14.9347086,92.7883636 15.8052193,92.7883636 L81.2328066,92.7883636 C82.1033174,92.7883636 82.8345464,92.0552727 82.8345464,91.1825455 L82.8345464,75.1941818 C82.8345464,74.7752727 83.0086485,74.3563636 83.287212,74.0770909 L96.5189753,60.8116364 L84.4014657,60.8116364 C83.530955,60.8116364 82.799726,60.0785455 82.799726,59.2058182 L82.799726,52.8174545 C82.799726,51.9447273 82.0684969,51.2116364 81.1979862,51.2116364 L26.9477568,51.2116364 L26.9477568,48 L81.2328066,48 C83.8791593,48 86.0380259,50.1643636 86.0380259,52.8174545 L86.0380259,57.6349091 L100.418863,57.6349091 C101.080452,57.6349091 101.637578,58.0189091 101.881321,58.6123636 C102.125064,59.2058182 101.985783,59.904 101.533117,60.3578182 L86.0380259,75.8923636 L86.0380259,91.2174545 C86.0032055,93.8705455 83.8791593,96 81.2328066,96 Z" id="Shape" fill="#0B2538"></path>
                    <rect id="Rectangle-path" fill="#883082" x="22" y="6" width="41" height="10"></rect>
                    <rect id="Rectangle-path" fill="#4DACE9" x="18" y="64" width="62" height="10"></rect>
                    <rect id="Rectangle-path" fill="#0B2538" x="6" y="19" width="73" height="3"></rect>
                    <rect id="Rectangle-path" fill="#0B2538" x="6" y="26" width="73" height="3"></rect>
                    <rect id="Rectangle-path" fill="#0B2538" x="18" y="77" width="62" height="3"></rect>
                    <rect id="Rectangle-path" fill="#0B2538" x="18" y="83" width="46" height="3"></rect>
                    <rect id="Rectangle-path" fill="#0B2538" x="6" y="32" width="26" height="3"></rect>
                    <rect id="Rectangle-path" fill="#FFFFFF" x="42" y="10" width="3" height="3"></rect>
                    <rect id="Rectangle-path" fill="#FFFFFF" x="48" y="10" width="3" height="3"></rect>
                    <rect id="Rectangle-path" fill="#FFFFFF" x="35" y="10" width="3" height="3"></rect>
                    <rect id="Rectangle-path" fill="#0B2538" x="34" y="57" width="3" height="3"></rect>
                    <rect id="Rectangle-path" fill="#0B2538" x="40" y="57" width="3" height="3"></rect>
                    <rect id="Rectangle-path" fill="#0B2538" x="27" y="57" width="3" height="3"></rect>
                </g>
                <path d="M121.92,58.528 C108.624,58.528 103.632,51.952 103.632,40.192 C103.632,27.424 110.592,21.856 122.4,21.856 C128.88,21.856 133.008,23.584 136.368,26.992 L130.944,32.416 C128.784,30.304 126.24,29.056 122.352,29.056 C114.768,29.056 111.552,32.896 111.552,40.288 C111.552,47.44 114.24,51.52 122.4,51.52 C127.008,51.52 129.216,49.984 131.424,47.92 L136.608,53.008 C133.776,55.936 129.984,58.528 121.92,58.528 Z M142.284,66.16 C141.708,66.16 140.412,66.112 139.596,66.064 L139.596,60.4 L141.612,60.4 C144.636,60.4 145.356,59.968 145.836,58.384 L146.172,57.376 L135.804,30.832 L143.916,30.832 L150.204,48.112 L156.3,30.832 L163.932,30.832 L153.036,59.2 C151.164,64.24 148.86,66.16 142.284,66.16 Z M165.72,58 L173.256,58 L173.256,43.36 C173.256,39.76 174.12,37.312 179.352,37.312 C183.912,37.312 184.296,39.712 184.296,43.024 L184.296,58 L191.784,58 L191.784,41.536 C191.784,34.768 190.248,30.208 182.04,30.208 C176.28,30.208 173.64,31.6 172.2,33.184 L171.576,30.832 L165.72,31.264 L165.72,58 Z M213.06,58 L213.06,51.712 L210.132,51.712 C206.916,51.712 206.628,50.56 206.628,48.448 L206.628,37.264 L213.06,37.264 L213.06,30.832 L206.628,30.832 L206.628,23.008 L200.772,24.208 L199.524,30.832 L194.676,30.832 L194.676,37.264 L199.14,37.264 L199.14,49.552 C199.14,55.6 201.252,58.096 208.596,58.096 C209.94,58.096 211.956,58.096 213.06,58 Z M217.056,58 L224.592,58 L224.592,43.36 C224.592,39.76 225.456,37.312 230.688,37.312 C235.248,37.312 235.632,39.712 235.632,43.024 L235.632,58 L243.12,58 L243.12,41.536 C243.12,34.768 241.584,30.208 233.376,30.208 C228.24,30.208 225.648,31.456 224.544,32.656 L224.544,20.752 L217.056,20.752 L217.056,58 Z M248.028,28.336 L255.612,28.336 L255.612,21.472 L248.028,21.472 L248.028,28.336 Z M248.076,58 L255.564,58 L255.564,30.832 L248.076,30.832 L248.076,58 Z M270.648,52.384 C275.4,52.384 277.464,50.704 277.464,46.72 L277.464,45.712 L276.84,45.712 C267.24,45.712 266.088,46.48 266.088,49.408 C266.088,51.424 267.192,52.384 270.648,52.384 Z M278.712,55.408 C277.32,57.28 274.296,58.432 269.16,58.432 C260.76,58.432 258.936,54.784 258.936,50.032 C258.936,42.352 264.312,40.528 276.36,40.528 L277.464,40.528 C277.416,38.08 276.84,36.832 272.088,36.832 C268.776,36.832 265.848,38.032 264.216,39.04 L260.472,33.52 C262.392,32.224 267.192,30.208 272.904,30.208 C282.696,30.208 284.712,33.328 284.712,41.008 L284.712,49.264 C284.712,51.424 284.856,51.76 287.064,51.76 L287.064,57.904 C286.536,58.048 285.576,58.096 283.896,58.096 C281.016,58.096 279.768,57.52 278.712,55.408 Z M303.876,58.48 C298.595974,58.48 293.90802,57.1680131 289.812,54.544 L291.108,52.624 C294.852019,54.9920118 299.091976,56.176 303.828,56.176 C307.636019,56.176 310.475991,55.5440063 312.348,54.28 C314.220009,53.0159937 315.156,51.0240136 315.156,48.304 C315.156,47.2159946 314.980002,46.272004 314.628,45.472 C314.275998,44.671996 313.812003,44.0240025 313.236,43.528 C312.659997,43.0319975 311.900005,42.6080018 310.956,42.256 C310.011995,41.9039982 309.036005,41.6080012 308.028,41.368 C307.019995,41.1279988 305.828007,40.8800013 304.452,40.624 C304.195999,40.5919998 304.004001,40.5600002 303.876,40.528 C302.115991,40.2079984 300.756005,39.9280012 299.796,39.688 C298.835995,39.4479988 297.740006,39.0880024 296.508,38.608 C295.275994,38.1279976 294.356003,37.584003 293.748,36.976 C293.139997,36.367997 292.612002,35.560005 292.164,34.552 C291.715998,33.543995 291.492,32.3520069 291.492,30.976 C291.492,27.8079842 292.51599,25.4960073 294.564,24.04 C296.61201,22.5839927 299.68398,21.856 303.78,21.856 C308.612024,21.856 312.531985,22.8799898 315.54,24.928 L314.196,26.944 C311.443986,25.0879907 307.972021,24.16 303.78,24.16 C300.419983,24.16 297.948008,24.6959946 296.364,25.768 C294.779992,26.8400054 293.988,28.5599882 293.988,30.928 C293.988,31.920005 294.155998,32.7839963 294.492,33.52 C294.828002,34.2560037 295.243998,34.8559977 295.74,35.32 C296.236002,35.7840023 296.987995,36.2079981 297.996,36.592 C299.004005,36.9760019 299.939996,37.271999 300.804,37.48 C301.668004,37.688001 302.883992,37.9519984 304.452,38.272 C305.892007,38.5600014 306.939997,38.7679994 307.596,38.896 C308.252003,39.0240006 309.163994,39.2399985 310.332,39.544 C311.500006,39.8480015 312.347997,40.1439986 312.876,40.432 C313.404003,40.7200014 314.035996,41.1119975 314.772,41.608 C315.508004,42.1040025 316.035998,42.647997 316.356,43.24 C316.676002,43.832003 316.963999,44.5519958 317.22,45.4 C317.476001,46.2480042 317.604,47.1999947 317.604,48.256 C317.604,55.0720341 313.028046,58.48 303.876,58.48 Z M328.676,58.528 C325.347983,58.528 323.012007,57.8480068 321.668,56.488 C320.323993,55.1279932 319.652,53.2320122 319.652,50.8 C319.652,47.1199816 320.947987,44.6160066 323.54,43.288 C326.132013,41.9599934 330.739967,41.296 337.364,41.296 L339.092,41.296 C339.092,39.7919925 339.004001,38.5920045 338.828,37.696 C338.651999,36.7999955 338.292003,36.0000035 337.748,35.296 C337.203997,34.5919965 336.428005,34.0960014 335.42,33.808 C334.411995,33.5199986 333.076008,33.376 331.412,33.376 C328.371985,33.376 325.716011,34.1599922 323.444,35.728 L322.148,33.808 C323.140005,33.1359966 324.499991,32.5200028 326.228,31.96 C327.956009,31.3999972 329.731991,31.12 331.556,31.12 C333.700011,31.12 335.427993,31.3119981 336.74,31.696 C338.052007,32.0800019 339.059996,32.7359954 339.764,33.664 C340.468004,34.5920046 340.931999,35.6639939 341.156,36.88 C341.380001,38.0960061 341.492,39.7279898 341.492,41.776 L341.492,52.336 C341.492,53.9040078 341.643998,54.8719982 341.948,55.24 C342.252002,55.6080018 343.059993,55.792 344.372,55.792 L344.372,57.952 C344.243999,58.0160003 343.924003,58.048 343.412,58.048 C341.875992,58.048 340.812003,57.6960035 340.22,56.992 C339.627997,56.2879965 339.332,55.1680077 339.332,53.632 C338.467996,55.3280085 337.228008,56.5679961 335.612,57.352 C333.995992,58.1360039 331.684015,58.528 328.676,58.528 Z M328.964,56.368 C332.548018,56.368 335.131992,55.5280084 336.716,53.848 C338.300008,52.1679916 339.092,49.4880184 339.092,45.808 L339.092,43.552 L337.46,43.552 C331.37997,43.552 327.29201,44.0319952 325.196,44.992 C323.09999,45.9520048 322.052,47.8399859 322.052,50.656 C322.052,52.5760096 322.563995,54.0079953 323.588,54.952 C324.612005,55.8960047 326.403987,56.368 328.964,56.368 Z M348.676,65.968 L346.468,65.968 L346.468,63.904 L348.532,63.904 C349.652006,63.904 350.515997,63.6720023 351.124,63.208 C351.732003,62.7439977 352.243998,61.9520056 352.66,60.832 L353.764,57.952 L343.444,31.744 L345.988,31.744 L355.06,55.024 L364.132,31.744 L366.58,31.744 L355.012,61.12 C354.339997,62.8480086 353.524005,64.0879962 352.564,64.84 C351.603995,65.5920038 350.308008,65.968 348.676,65.968 Z M375.876,58.528 C371.84398,58.528 368.372015,57.5680096 365.46,55.648 L366.756,53.776 C369.412013,55.4720085 372.483983,56.32 375.972,56.32 C378.660013,56.32 380.603994,55.9360038 381.804,55.168 C383.004006,54.3999962 383.604,52.9600106 383.604,50.848 C383.604,49.2159918 383.092005,48.0800032 382.068,47.44 C381.043995,46.7999968 379.012015,46.1440034 375.972,45.472 C374.211991,45.0879981 372.860005,44.7440015 371.916,44.44 C370.971995,44.1359985 370.036005,43.7120027 369.108,43.168 C368.179995,42.6239973 367.524002,41.9280042 367.14,41.08 C366.755998,40.2319958 366.564,39.1680064 366.564,37.888 C366.564,33.3759774 369.683969,31.12 375.924,31.12 C379.508018,31.12 382.563987,31.8559926 385.092,33.328 L383.94,35.344 C381.635988,34.0319934 378.980015,33.376 375.972,33.376 C373.411987,33.376 371.604005,33.7599962 370.548,34.528 C369.491995,35.2960038 368.964,36.4319925 368.964,37.936 C368.964,39.536008 369.475995,40.6639967 370.5,41.32 C371.524005,41.9760033 373.427986,42.607997 376.212,43.216 C377.684007,43.5360016 378.835996,43.8079989 379.668,44.032 C380.500004,44.2560011 381.387995,44.5599981 382.332,44.944 C383.276005,45.3280019 383.971998,45.7679975 384.42,46.264 C384.868002,46.7600025 385.243998,47.3839962 385.548,48.136 C385.852002,48.8880038 386.004,49.7759949 386.004,50.8 C386.004,53.6800144 385.196008,55.6879943 383.58,56.824 C381.963992,57.9600057 379.396018,58.528 375.876,58.528 Z" id="CynthiaSays" fill="#0B2538"></path>
                <path d="M278.592,89.24 C277.151993,89.24 276.044004,89.1000014 275.268,88.82 C274.491996,88.5399986 273.888002,88.0800032 273.456,87.44 L273.12,89.072 L271.824,88.952 L271.824,70.376 L273.648,70.376 L273.648,77.264 C274.016002,76.6239968 274.599996,76.1600014 275.4,75.872 C276.200004,75.5839986 277.295993,75.44 278.688,75.44 C280.76801,75.44 282.231996,76.0319941 283.08,77.216 C283.928004,78.4000059 284.352,80.1119888 284.352,82.352 C284.352,84.5920112 283.920004,86.2999941 283.056,87.476 C282.191996,88.6520059 280.704011,89.24 278.592,89.24 Z M278.328,87.608 C279.880008,87.608 280.963997,87.1760043 281.58,86.312 C282.196003,85.4479957 282.504,84.1520086 282.504,82.424 C282.504,80.6639912 282.200003,79.3480044 281.592,78.476 C280.983997,77.6039956 279.896008,77.168 278.328,77.168 C276.631992,77.168 275.428004,77.5599961 274.716,78.344 C274.003996,79.1280039 273.648,80.4879903 273.648,82.424 C273.648,84.3600097 273.999996,85.7079962 274.704,86.468 C275.408004,87.2280038 276.615991,87.608 278.328,87.608 Z M287.502,93.008 C286.893997,93.008 286.510001,93.0000001 286.35,92.984 L286.35,91.496 L287.382,91.496 C287.990003,91.496 288.441999,91.396001 288.738,91.196 C289.034001,90.995999 289.269999,90.6400026 289.446,90.128 L289.926,88.904 L284.742,75.752 L286.662,75.752 L290.886,86.768 L295.062,75.752 L296.934,75.752 L291.222,90.32 C290.853998,91.2960049 290.394003,91.987998 289.842,92.396 C289.289997,92.804002 288.510005,93.008 287.502,93.008 Z M311.514,89.264 C305.673971,89.264 302.754,86.2080306 302.754,80.096 C302.754,77.0399847 303.513992,74.7480076 305.034,73.22 C306.554008,71.6919924 308.745986,70.928 311.61,70.928 C314.186013,70.928 316.257992,71.6719926 317.826,73.16 L316.482,74.504 C315.169993,73.3199941 313.53801,72.728 311.586,72.728 C306.961977,72.728 304.65,75.1919754 304.65,80.12 C304.65,85.0320246 306.969977,87.488 311.61,87.488 C312.826006,87.488 313.809996,87.3280016 314.562,87.008 C315.314004,86.6879984 316.001997,86.2400029 316.626,85.664 L317.946,86.936 C316.361992,88.4880078 314.218014,89.264 311.514,89.264 Z M320.736,93.008 C320.127997,93.008 319.744001,93.0000001 319.584,92.984 L319.584,91.496 L320.616,91.496 C321.224003,91.496 321.675999,91.396001 321.972,91.196 C322.268001,90.995999 322.503999,90.6400026 322.68,90.128 L323.16,88.904 L317.976,75.752 L319.896,75.752 L324.12,86.768 L328.296,75.752 L330.168,75.752 L324.456,90.32 C324.087998,91.2960049 323.628003,91.987998 323.076,92.396 C322.523997,92.804002 321.744005,93.008 320.736,93.008 Z M340.086,89 L336.03,83.384 L332.07,89 L330.102,89 L335.094,82.088 L330.534,75.752 L332.526,75.752 L336.174,80.792 L339.75,75.752 L341.718,75.752 L337.11,82.112 L342.126,89 L340.086,89 Z M342.468,77.408 L342.468,75.752 L344.892,75.752 L345.204,71.768 L346.644,71.504 L346.644,75.752 L350.292,75.752 L350.292,77.408 L346.644,77.408 L346.644,85.376 C346.644,86.0800035 346.767999,86.5919984 347.016,86.912 C347.264001,87.2320016 347.811996,87.392 348.66,87.392 L350.292,87.392 L350.292,89 C350.163999,89.0160001 349.524006,89.024 348.372,89.024 C346.963993,89.024 346.024002,88.7560027 345.552,88.22 C345.079998,87.6839973 344.844,86.8080061 344.844,85.592 L344.844,77.408 L342.468,77.408 Z M357.906,89.264 C356.625994,89.264 355.550004,89.0920017 354.678,88.748 C353.805996,88.4039983 353.150002,87.9000033 352.71,87.236 C352.269998,86.5719967 351.966001,85.8560038 351.798,85.088 C351.629999,84.3199962 351.546,83.4080053 351.546,82.352 C351.546,81.3119948 351.637999,80.4040039 351.822,79.628 C352.006001,78.8519961 352.317998,78.1320033 352.758,77.468 C353.198002,76.8039967 353.841996,76.3000017 354.69,75.956 C355.538004,75.6119983 356.585994,75.44 357.834,75.44 C358.570004,75.44 359.229997,75.5159992 359.814,75.668 C360.398003,75.8200008 360.877998,76.0119988 361.254,76.244 C361.630002,76.4760012 361.953999,76.795998 362.226,77.204 C362.498001,77.612002 362.701999,78.0039981 362.838,78.38 C362.974001,78.7560019 363.078,79.2319971 363.15,79.808 C363.222,80.3840029 363.266,80.8879978 363.282,81.32 C363.298,81.7520022 363.298,82.3039966 363.282,82.976 L353.298,82.976 C353.346,84.5280078 353.693997,85.699996 354.342,86.492 C354.990003,87.284004 356.177991,87.68 357.906,87.68 C358.898005,87.68 359.701997,87.5680011 360.318,87.344 C360.934003,87.1199989 361.553997,86.7840022 362.178,86.336 L363.162,87.608 C361.721993,88.7120055 359.97001,89.264 357.906,89.264 Z M357.786,77.072 C356.217992,77.072 355.110003,77.4319964 354.462,78.152 C353.813997,78.8720036 353.434001,79.927993 353.322,81.32 L361.554,81.32 C361.522,80.727997 361.486,80.2720016 361.446,79.952 C361.406,79.6319984 361.314001,79.2600021 361.17,78.836 C361.025999,78.4119979 360.830001,78.0920011 360.582,77.876 C360.333999,77.6599989 359.974002,77.4720008 359.502,77.312 C359.029998,77.1519992 358.458003,77.072 357.786,77.072 Z M365.856,89 L365.856,75.848 L367.296,75.752 L367.488,77.528 C367.760001,76.9839973 368.299996,76.5280018 369.108,76.16 C369.916004,75.7919982 370.903994,75.6000001 372.072,75.584 L372.072,77.408 C369.143985,77.408 367.68,78.8879852 367.68,81.848 L367.68,89 L365.856,89 Z M377.238,89.24 C375.509991,89.24 374.302003,88.8960034 373.614,88.208 C372.925997,87.5199966 372.582,86.5520062 372.582,85.304 C372.582,83.4319906 373.209994,82.1480035 374.466,81.452 C375.722006,80.7559965 378.037983,80.408 381.414,80.408 L382.206,80.408 C382.19,79.799997 382.138,79.3080019 382.05,78.932 C381.962,78.5559981 381.794001,78.2240014 381.546,77.936 C381.297999,77.6479986 380.938002,77.4440006 380.466,77.324 C379.993998,77.2039994 379.382004,77.144 378.63,77.144 C377.157993,77.144 375.838006,77.5279962 374.67,78.296 L373.71,76.88 C374.238003,76.5119982 374.961995,76.1800015 375.882,75.884 C376.802005,75.5879985 377.765995,75.44 378.774,75.44 C379.894006,75.44 380.793997,75.535999 381.474,75.728 C382.154003,75.920001 382.677998,76.2479977 383.046,76.712 C383.414002,77.1760023 383.657999,77.7159969 383.778,78.332 C383.898001,78.9480031 383.958,79.7679949 383.958,80.792 L383.958,85.784 C383.958,86.5040036 384.029999,86.9519991 384.174,87.128 C384.318001,87.3040009 384.701997,87.392 385.326,87.392 L385.326,88.976 C385.246,89.0080002 385.006002,89.024 384.606,89.024 C383.869996,89.024 383.354001,88.9000012 383.058,88.652 C382.761999,88.4039988 382.558001,87.976003 382.446,87.368 C382.029998,88.0080032 381.418004,88.4799985 380.61,88.784 C379.801996,89.0880015 378.678007,89.24 377.238,89.24 Z M377.502,87.68 C379.166008,87.68 380.365996,87.3080037 381.102,86.564 C381.838004,85.8199963 382.206,84.6400081 382.206,83.024 L382.206,82.064 L381.51,82.064 C379.54199,82.064 378.058005,82.1519991 377.058,82.328 C376.057995,82.5040009 375.354002,82.8079978 374.946,83.24 C374.537998,83.6720022 374.334,84.3199957 374.334,85.184 C374.334,86.0160042 374.569998,86.6399979 375.042,87.056 C375.514002,87.4720021 376.333994,87.68 377.502,87.68 Z" id="by-AppGate" fill="#883082"></path>
            </g>
        </g>
    </g>
</svg>