<?xml version="1.0" encoding="UTF-8"?>
<svg width="73px" height="74px" viewBox="0 0 73 74" version="1.1" xmlns="http://www.w3.org/2000/svg" xmlns:xlink="http://www.w3.org/1999/xlink">
    <!-- Generator: Sketch 47.1 (45422) - http://www.bohemiancoding.com/sketch -->
    <title>if_07_bank_building_824486</title>
    <desc>Created with Sketch.</desc>
    <defs></defs>
    <g id="Website" stroke="none" stroke-width="1" fill="none" fill-rule="evenodd">
        <g id="01---HOME" transform="translate(-1162.000000, -1786.000000)" stroke="#FFFFFF" stroke-width="2">
            <g id="HOW-TO-COMPLY…" transform="translate(191.000000, 1766.000000)">
                <g id="Gov" transform="translate(929.000000, 0.000000)">
                    <g id="Government" transform="translate(16.000000, 0.000000)">
                        <g id="if_07_bank_building_824486" transform="translate(26.136364, 21.590909)">
                            <polyline id="Shape" points="50 6.81818182 60.2272727 6.81818182 68.1818182 22.7272727"></polyline>
                            <polyline id="Shape" points="4.54545455 22.7272727 12.5 6.81818182 22.7272727 6.81818182"></polyline>
                            <path d="M19.3181818,17.0454545 C19.3181818,7.63181818 26.95,0 36.3636364,0 C45.7772727,0 53.4090909,7.63181818 53.4090909,17.0454545" id="Shape"></path>
                            <path d="M72.7272727,22.7272727 L0,22.7272727" id="Shape" stroke-linejoin="round"></path>
                            <g id="Group" transform="translate(6.818182, 27.272727)">
                                <path d="M2.27272727,29.5454545 L2.27272727,7.95454545" id="Shape"></path>
                                <path d="M9.09090909,7.95454545 L9.09090909,29.5454545" id="Shape"></path>
                                <rect id="Rectangle-path" x="0" y="0" width="11.3636364" height="4.54545455"></rect>
                                <rect id="Rectangle-path" x="0" y="29.5454545" width="11.3636364" height="4.54545455"></rect>
                            </g>
                            <g id="Group" transform="translate(22.727273, 27.272727)">
                                <path d="M2.27272727,29.5454545 L2.27272727,7.95454545" id="Shape"></path>
                                <path d="M9.09090909,7.95454545 L9.09090909,29.5454545" id="Shape"></path>
                                <rect id="Rectangle-path" x="0" y="0" width="11.3636364" height="4.54545455"></rect>
                                <rect id="Rectangle-path" x="0" y="29.5454545" width="11.3636364" height="4.54545455"></rect>
                            </g>
                            <g id="Group" transform="translate(38.636364, 27.272727)">
                                <path d="M2.27272727,29.5454545 L2.27272727,7.95454545" id="Shape"></path>
                                <path d="M9.09090909,7.95454545 L9.09090909,29.5454545" id="Shape"></path>
                                <rect id="Rectangle-path" x="0" y="0" width="11.3636364" height="4.54545455"></rect>
                                <rect id="Rectangle-path" x="0" y="29.5454545" width="11.3636364" height="4.54545455"></rect>
                            </g>
                            <g id="Group" transform="translate(54.545455, 27.272727)">
                                <path d="M2.27272727,29.5454545 L2.27272727,7.95454545" id="Shape"></path>
                                <path d="M9.09090909,7.95454545 L9.09090909,29.5454545" id="Shape"></path>
                                <rect id="Rectangle-path" x="0" y="0" width="11.3636364" height="4.54545455"></rect>
                                <rect id="Rectangle-path" x="0" y="29.5454545" width="11.3636364" height="4.54545455"></rect>
                            </g>
                            <path d="M72.7272727,27.2727273 L0,27.2727273" id="Shape"></path>
                            <path d="M3.40909091,61.3636364 L69.3181818,61.3636364" id="Shape"></path>
                            <circle id="Oval" cx="36.3636364" cy="11.3636364" r="4.54545455"></circle>
                            <path d="M44.3181818,11.3636364 L46.5909091,11.3636364" id="Shape"></path>
                            <path d="M28.4090909,11.3636364 L26.1363636,11.3636364" id="Shape"></path>
                            <rect id="Rectangle-path" x="1.13636364" y="65.9090909" width="70.4545455" height="4.54545455"></rect>
                        </g>
                    </g>
                </g>
            </g>
        </g>
    </g>
</svg>