<?xml version="1.0" encoding="UTF-8"?>
<svg width="26px" height="26px" viewBox="0 0 26 26" version="1.1" xmlns="http://www.w3.org/2000/svg" xmlns:xlink="http://www.w3.org/1999/xlink">
    <!-- Generator: Sketch 47.1 (45422) - http://www.bohemiancoding.com/sketch -->
    <title>Shape</title>
    <desc>Created with Sketch.</desc>
    <defs></defs>
    <g id="Website" stroke="none" stroke-width="1" fill="none" fill-rule="evenodd">
        <g id="Artboard" transform="translate(-422.000000, -30.000000)" fill-rule="nonzero" fill="#FFFFFF">
            <path d="M422.951819,54.9002669 C423.104159,55.052607 423.304154,55.1283865 423.50415,55.1283865 C423.704145,55.1283865 423.90414,55.0518258 424.057262,54.8994856 L435.222625,43.7208415 L446.387988,54.8994856 C446.540328,55.052607 446.740324,55.1283865 446.9411,55.1283865 C447.141095,55.1283865 447.341091,55.0518258 447.493431,54.9002669 C447.798893,54.5955865 447.798893,54.1010669 447.494212,53.7956053 L436.339786,42.6286796 L447.493431,31.4625351 C447.798111,31.1570735 447.798111,30.6625539 447.49265,30.3578735 C447.186407,30.0524119 446.692668,30.0524119 446.387988,30.3586547 L435.221844,41.5372989 L424.05648,30.3586547 C423.751019,30.0531932 423.256499,30.0531932 422.951819,30.3578735 C422.646357,30.6625539 422.646357,31.1570735 422.951038,31.4625351 L434.103901,42.6286796 L422.951038,53.7956053 C422.646357,54.1002856 422.646357,54.5955865 422.951819,54.9002669 Z" id="Shape"></path>
        </g>
    </g>
</svg>