<?xml version="1.0" encoding="UTF-8"?>
<svg width="24px" height="20px" viewBox="0 0 24 20" version="1.1" xmlns="http://www.w3.org/2000/svg" xmlns:xlink="http://www.w3.org/1999/xlink">
    <!-- Generator: Sketch 47.1 (45422) - http://www.bohemiancoding.com/sketch -->
    <title>Path</title>
    <desc>Created with Sketch.</desc>
    <defs></defs>
    <g id="Website" stroke="none" stroke-width="1" fill="none" fill-rule="evenodd">
        <g id="01---HOME" transform="translate(-1142.000000, -2630.000000)" fill-rule="nonzero" fill="#FFFFFF">
            <g id="FOOTER" transform="translate(-2.000000, 2570.000000)">
                <g id="Social" transform="translate(1131.000000, 45.000000)">
                    <g id="Twitter" transform="translate(0.000000, 1.000000)">
                        <path d="M24.3391575,19.9103821 L24.3897264,20.7408362 L23.5469111,20.639148 C20.4790636,20.249343 17.7989111,18.9273955 15.5233099,16.7072018 L14.4107937,15.605579 L14.1242366,16.419085 C13.5174096,18.2325258 13.9051046,20.1476547 15.1693275,21.435706 C15.8435797,22.1475238 15.6918729,22.2492122 14.5287879,21.825511 C14.1242366,21.6899266 13.7702542,21.5882384 13.7365415,21.6390826 C13.6185474,21.7577189 14.0230987,23.2999908 14.3433685,23.9101204 C14.7816325,24.7575226 15.6750166,25.5879767 16.6526823,26.07947 L17.4786412,26.469275 L16.5009756,26.486223 C15.5570225,26.486223 15.5233099,26.5031711 15.6244477,26.85908 C15.9615738,27.9607029 17.2932219,29.1301179 18.7765768,29.6385592 L19.8216676,29.9944682 L18.9114272,30.5368055 C17.5629228,31.3164155 15.9784301,31.7570647 14.3939374,31.7909608 C13.6354037,31.8079088 13.0117204,31.875701 13.0117204,31.9265451 C13.0117204,32.0960255 15.0681896,33.045116 16.2649873,33.417973 C19.8553803,34.5195958 24.1200255,34.0450506 27.3227235,32.1638178 C29.5983247,30.8249222 31.8739259,28.1640794 32.9358731,25.5879767 C33.5089875,24.2151852 34.0821018,21.7068747 34.0821018,20.5035636 C34.0821018,19.7239536 34.1326708,19.6222654 35.0766238,18.690123 C35.6328819,18.1477855 36.1554274,17.554604 36.2565652,17.3851235 C36.4251282,17.0631107 36.408272,17.0631107 35.5486004,17.3512274 C34.1158145,17.8596688 33.9135388,17.7918766 34.6215036,17.0292146 C35.1440491,16.4868772 35.7677323,15.5038907 35.7677323,15.2157739 C35.7677323,15.1649298 35.5148878,15.2496701 35.2283306,15.4022024 C34.9249171,15.5716829 34.2506649,15.8259035 33.7449757,15.9784359 L32.8347352,16.2665526 L32.0087763,15.7072672 C31.553656,15.4022024 30.9131165,15.0632416 30.5759904,14.9615533 C29.7163188,14.7242807 28.401527,14.7581768 27.6261369,15.0293454 C25.5190988,15.7920074 24.1874507,17.7579806 24.3391575,19.9103821 Z" id="Path"></path>
                    </g>
                </g>
            </g>
        </g>
    </g>
</svg>