<?xml version="1.0" encoding="UTF-8"?>
<svg width="26px" height="25px" viewBox="0 0 26 25" version="1.1" xmlns="http://www.w3.org/2000/svg" xmlns:xlink="http://www.w3.org/1999/xlink">
    <!-- Generator: Sketch 47.1 (45422) - http://www.bohemiancoding.com/sketch -->
    <title>Group 9</title>
    <desc>Created with Sketch.</desc>
    <defs></defs>
    <g id="Website" stroke="none" stroke-width="1" fill="none" fill-rule="evenodd">
        <g id="01---HOME" transform="translate(-1209.000000, -2625.000000)" fill-rule="nonzero" fill="#FFFFFF">
            <g id="FOOTER" transform="translate(-2.000000, 2570.000000)">
                <g id="Social" transform="translate(1131.000000, 45.000000)">
                    <g id="LinkedIN" transform="translate(68.000000, 0.000000)">
                        <g id="Group-9" transform="translate(12.000000, 10.000000)">
                            <polygon id="Path" points="5.97443134 8.65690313 0.624669246 8.65690313 0.624669246 24.7307177 5.97443134 24.7307177"></polygon>
                            <path d="M6.32678022,3.68462382 C6.29205812,2.10859654 5.16503331,0.908199869 3.33491339,0.908199869 C1.50479347,0.908199869 0.308324538,2.10859654 0.308324538,3.68462382 C0.308324538,5.22800622 1.46943037,6.46296808 3.26546927,6.46296808 L3.29965715,6.46296808 C5.16503331,6.46296808 6.32678022,5.22800622 6.32678022,3.68462382 Z" id="Path"></path>
                            <path d="M25.2677202,15.5144836 C25.2677202,10.577303 22.6285228,8.27945883 19.1081326,8.27945883 C16.2677609,8.27945883 14.9960786,9.8395904 14.2860391,10.9340508 L14.2860391,8.65732986 L8.93563593,8.65732986 C9.00614841,10.1656135 8.93563593,24.7311444 8.93563593,24.7311444 L14.2860391,24.7311444 L14.2860391,15.7542002 C14.2860391,15.2738069 14.3207611,14.794587 14.4622135,14.4506412 C14.848857,13.4909213 15.729195,12.4972762 17.2071798,12.4972762 C19.1438162,12.4972762 19.917958,13.9712079 19.917958,16.1312178 L19.917958,24.7307177 L25.2675065,24.7307177 L25.2677202,15.5144836 Z" id="Path"></path>
                        </g>
                    </g>
                </g>
            </g>
        </g>
    </g>
</svg>