<?xml version="1.0" encoding="UTF-8"?>
<svg width="250px" height="270px" viewBox="0 0 250 270" version="1.1" xmlns="http://www.w3.org/2000/svg" xmlns:xlink="http://www.w3.org/1999/xlink">
    <!-- Generator: Sketch 47.1 (45422) - http://www.bohemiancoding.com/sketch -->
    <title>checklist</title>
    <desc>Created with Sketch.</desc>
    <defs></defs>
    <g id="Website" stroke="none" stroke-width="1" fill="none" fill-rule="evenodd">
        <g id="02---SOLUTIONS" transform="translate(-111.000000, -208.000000)" fill-rule="nonzero">
            <g id="checklist" transform="translate(111.000000, 208.000000)">
                <polygon id="Shape" fill="#FFFFFF" points="147.2 264.6 5 264.6 5 24.6 22.8 6.8 40.5 24.6 58.3 6.8 76.1 24.6 93.9 6.8 111.7 24.6 129.4 6.8 147.2 24.6 165 6.8 182.8 24.6 182.8 229.1"></polygon>
                <polygon id="Shape" fill="#0B2538" points="147.2 269.1 0.5 269.1 0.5 22.7 22.8 0.5 40.5 18.3 58.3 0.5 76.1 18.3 93.9 0.5 111.7 18.3 129.4 0.5 147.2 18.3 165 0.5 187.2 22.7 187.2 229.1 178.3 229.1 178.3 26.4 165 13.1 147.2 30.9 129.4 13.1 111.7 30.9 93.9 13.1 76.1 30.9 58.3 13.1 40.5 30.9 22.8 13.1 9.4 26.4 9.4 260.2 147.2 260.2"></polygon>
                <polygon id="Shape" fill="#4DACE9" points="147.2 264.6 147.2 229.1 182.8 229.1"></polygon>
                <path d="M147.2,269.1 C146.6,269.1 146,269 145.5,268.8 C143.8,268.1 142.8,266.5 142.8,264.7 L142.8,229.1 C142.8,226.6 144.8,224.7 147.2,224.7 L182.8,224.7 C184.6,224.7 186.2,225.8 186.9,227.4 C187.6,229.1 187.2,231 185.9,232.2 L150.3,267.8 C149.5,268.6 148.4,269.1 147.2,269.1 Z M151.7,233.5 L151.7,253.9 L172.1,233.5 L151.7,233.5 Z" id="Shape" fill="#0B2538"></path>
                <g id="Group" transform="translate(31.000000, 117.000000)">
                    <rect id="Rectangle-path" fill="#0B2538" x="18.4" y="0.9" width="35.6" height="8.9"></rect>
                    <rect id="Rectangle-path" fill="#883082" x="0.6" y="0.9" width="8.9" height="8.9"></rect>
                </g>
                <g id="Group" transform="translate(31.000000, 135.000000)">
                    <rect id="Rectangle-path" fill="#0B2538" x="18.4" y="0.7" width="35.6" height="8.9"></rect>
                    <rect id="Rectangle-path" fill="#883082" x="0.6" y="0.7" width="8.9" height="8.9"></rect>
                </g>
                <g id="Group" transform="translate(31.000000, 153.000000)">
                    <rect id="Rectangle-path" fill="#0B2538" x="18.4" y="0.5" width="35.6" height="8.9"></rect>
                    <rect id="Rectangle-path" fill="#883082" x="0.6" y="0.5" width="8.9" height="8.9"></rect>
                </g>
                <g id="Group" transform="translate(31.000000, 171.000000)">
                    <rect id="Rectangle-path" fill="#0B2538" x="18.4" y="0.3" width="35.6" height="8.9"></rect>
                    <rect id="Rectangle-path" fill="#883082" x="0.6" y="0.3" width="8.9" height="8.9"></rect>
                </g>
                <g id="Group" transform="translate(102.000000, 117.000000)">
                    <rect id="Rectangle-path" fill="#0B2538" x="18.6" y="0.9" width="35.6" height="8.9"></rect>
                    <rect id="Rectangle-path" fill="#4DACE9" x="0.8" y="0.9" width="8.9" height="8.9"></rect>
                </g>
                <g id="Group" transform="translate(102.000000, 135.000000)">
                    <rect id="Rectangle-path" fill="#0B2538" x="18.6" y="0.7" width="35.6" height="8.9"></rect>
                    <rect id="Rectangle-path" fill="#4DACE9" x="0.8" y="0.7" width="8.9" height="8.9"></rect>
                </g>
                <g id="Group" transform="translate(102.000000, 153.000000)">
                    <rect id="Rectangle-path" fill="#0B2538" x="18.6" y="0.5" width="35.6" height="8.9"></rect>
                    <rect id="Rectangle-path" fill="#4DACE9" x="0.8" y="0.5" width="8.9" height="8.9"></rect>
                </g>
                <g id="Group" transform="translate(102.000000, 171.000000)">
                    <rect id="Rectangle-path" fill="#0B2538" x="18.6" y="0.3" width="35.6" height="8.9"></rect>
                    <rect id="Rectangle-path" fill="#4DACE9" x="0.8" y="0.3" width="8.9" height="8.9"></rect>
                </g>
                <g id="Group" transform="translate(31.000000, 189.000000)">
                    <rect id="Rectangle-path" fill="#0B2538" x="18.4" y="0.1" width="35.6" height="8.9"></rect>
                    <rect id="Rectangle-path" fill="#883082" x="0.6" y="0.1" width="8.9" height="8.9"></rect>
                </g>
                <g id="Group" transform="translate(31.000000, 206.000000)">
                    <rect id="Rectangle-path" fill="#0B2538" x="18.4" y="0.8" width="35.6" height="8.9"></rect>
                    <rect id="Rectangle-path" fill="#883082" x="0.6" y="0.8" width="8.9" height="8.9"></rect>
                </g>
                <g id="Group" transform="translate(205.000000, 2.000000)">
                    <polygon id="Shape" fill="#FFFFFF" points="40 222.6 40 240.4 22.2 258.2 4.5 240.4 4.5 222.6"></polygon>
                    <rect id="Rectangle-path" fill="#0B2538" x="0" y="40.4" width="8.9" height="177.8"></rect>
                    <rect id="Rectangle-path" fill="#0B2538" x="35.6" y="40.4" width="8.9" height="177.8"></rect>
                    <polygon id="Shape" fill="#0B2538" points="22.2 264.5 0 242.2 0 218.2 8.9 218.2 8.9 238.6 22.2 251.9 35.6 238.6 35.6 218.2 44.5 218.2 44.5 242.2"></polygon>
                    <rect id="Rectangle-path" fill="#0B2538" x="17.8" y="258.2" width="8.9" height="8.9"></rect>
                    <rect id="Rectangle-path" fill="#FFB957" x="8.9" y="44.8" width="26.7" height="168.9"></rect>
                    <rect id="Rectangle-path" fill="#0B2538" x="17.8" y="40.4" width="8.9" height="173.4"></rect>
                    <rect id="Rectangle-path" fill="#0B2538" x="8.9" y="213.7" width="26.7" height="8.9"></rect>
                    <path d="M4.5,18.1 C4.5,10.7 10.5,4.8 17.8,4.8 L26.7,4.8 C34.1,4.8 40,10.8 40,18.1 L40,40.3 L4.4,40.3 L4.4,18.1 L4.5,18.1 Z" id="Shape" fill="#883082"></path>
                    <path d="M44.5,44.8 L0,44.8 L0,18.1 C0,8.3 8,0.3 17.8,0.3 L26.7,0.3 C36.5,0.3 44.5,8.3 44.5,18.1 L44.5,44.8 Z M8.9,35.9 L35.6,35.9 L35.6,18.1 C35.6,13.2 31.6,9.2 26.7,9.2 L17.8,9.2 C12.9,9.2 8.9,13.2 8.9,18.1 L8.9,35.9 L8.9,35.9 Z" id="Shape" fill="#0B2538"></path>
                </g>
                <circle id="Oval" fill="#883082" cx="58.3" cy="73.5" r="26.7"></circle>
                <circle id="Oval" fill="#4DACE9" cx="129.4" cy="73.5" r="26.7"></circle>
                <rect id="Rectangle-path" fill="#FFFFFF" x="53.9" y="60.1" width="8.9" height="26.7"></rect>
                <rect id="Rectangle-path" fill="#FFFFFF" x="45" y="69" width="26.7" height="8.9"></rect>
                <rect id="Rectangle-path" fill="#0B2538" x="116.1" y="69" width="26.7" height="8.9"></rect>
            </g>
        </g>
    </g>
</svg>