<?xml version="1.0" encoding="UTF-8"?>
<svg width="171px" height="94px" viewBox="0 0 171 94" version="1.1" xmlns="http://www.w3.org/2000/svg" xmlns:xlink="http://www.w3.org/1999/xlink">
    <!-- Generator: Sketch 47.1 (45422) - http://www.bohemiancoding.com/sketch -->
    <title>CS Logo</title>
    <desc>Created with Sketch.</desc>
    <defs></defs>
    <g id="Website" stroke="none" stroke-width="1" fill="none" fill-rule="evenodd">
        <g id="01---HOME" transform="translate(-209.000000, -2606.000000)">
            <g id="CS-Logo" transform="translate(209.000000, 2606.000000)">
                <g id="logo" fill-rule="nonzero">
                    <path d="M24,0 C10.7506053,0 0,10.8087167 0,24 C0,37.2493947 10.7506053,48 24,48 C37.2493947,48 48,37.2493947 48,24 C48,10.8087167 37.2493947,0 24,0 Z M24,44.3970944 C12.7845036,44.3970944 3.66101695,35.2736077 3.66101695,24.0581114 C3.66101695,12.842615 12.7263923,3.71912833 24,3.71912833 C35.2154964,3.71912833 44.3389831,12.7845036 44.3389831,24.0581114 C44.2808717,35.2154964 35.2154964,44.3970944 24,44.3970944 Z" id="Shape" fill="#00263A"></path>
                    <g id="Group" transform="translate(6.000000, 6.857143)" fill="#942786">
                        <path d="M21.0857143,14.5842857 C20.91,14.4085714 20.6171429,14.4085714 20.3828571,14.5842857 L16.9271429,17.9228571 L15.4042857,16.4 C15.2285714,16.2242857 14.9357143,16.2242857 14.7014286,16.4 L14.0571429,17.0442857 C13.8814286,17.22 13.8814286,17.5128571 14.0571429,17.7471429 L16.5171429,20.2071429 L16.5757143,20.2657143 C16.7514286,20.4414286 17.0442857,20.3242857 17.22,20.2071429 L21.6128571,15.8142857 C21.7885714,15.6385714 21.7885714,15.3457143 21.6128571,15.1114286 L21.0857143,14.5842857 Z" id="Shape"></path>
                        <path d="M17.6885714,0.175714286 C8.08285714,0.175714286 0.234285714,8.02428571 0.234285714,17.63 C0.234285714,27.2357143 8.08285714,35.0842857 17.6885714,35.0842857 C27.2942857,35.0842857 35.1428571,27.2357143 35.1428571,17.63 C35.1428571,8.02428571 27.4114286,0.175714286 17.6885714,0.175714286 Z M26.5328571,18.45 C26.5328571,22.96 23.4871429,25.83 18.2742857,29.4028571 C18.04,29.5785714 17.6885714,29.5785714 17.4542857,29.4028571 C12.1828571,25.8885714 9.19571429,23.0185714 9.19571429,18.45 C9.19571429,14.8185714 9.19571429,10.6014286 9.19571429,9.25428571 C9.19571429,9.02 9.43,8.78571429 9.66428571,8.78571429 C12.6514286,8.72714286 14.6428571,7.96571429 17.5128571,5.50571429 C17.7471429,5.33 18.0985714,5.33 18.2157143,5.50571429 C21.0857143,7.96571429 23.0771429,8.72714286 26.0642857,8.78571429 C26.2985714,8.78571429 26.5328571,9.02 26.5328571,9.25428571 C26.5328571,10.6014286 26.5328571,14.8185714 26.5328571,18.45 Z" id="Shape"></path>
                    </g>
                </g>
                <g id="Group" transform="translate(2.000000, 57.000000)" fill-rule="nonzero" fill="#00263A">
                    <path d="M0,7.97142857 C0,3.11428571 2.71818182,1 7.38636364,1 C9.92727273,1 11.5818182,1.68571429 12.8818182,2.94285714 L10.7545455,5 C9.92727273,4.2 8.92272727,3.74285714 7.38636364,3.74285714 C4.37272727,3.74285714 3.13181818,5.22857143 3.13181818,8.02857143 C3.13181818,10.7714286 4.19545455,12.3142857 7.38636364,12.3142857 C9.21818182,12.3142857 10.0454545,11.7428571 10.9318182,10.9428571 L13,12.8857143 C11.8772727,14.0285714 10.4,15 7.20909091,15 C1.95,14.9428571 0,12.4285714 0,7.97142857 Z" id="Shape"></path>
                    <path d="M13,9.5 C13,5.93085106 14.5714286,4 18.5291005,4 C22.4867725,4 24,5.9893617 24,9.5 C24,13.0106383 22.4867725,15 18.5291005,15 C14.5132275,15 13,13.0691489 13,9.5 Z M21.0899471,9.55851064 C21.0899471,7.74468085 20.5079365,6.63297872 18.5291005,6.63297872 C16.4920635,6.63297872 15.968254,7.74468085 15.968254,9.55851064 C15.968254,11.3723404 16.4920635,12.4840426 18.5291005,12.4840426 C20.5079365,12.4840426 21.0899471,11.3723404 21.0899471,9.55851064 Z" id="Shape"></path>
                    <path d="M26.0584192,4.41621622 L28.3367698,4.23783784 L28.5704467,5.18918919 C29.0378007,4.53513514 30.1477663,4 32.3092784,4 C34.6460481,4 35.0549828,4.53513514 35.4054983,5.18918919 C35.9312715,4.47567568 37.0996564,4 39.3195876,4 C42.532646,4 43,5.78378378 43,8.45945946 L43,15 L40.0206186,15 L40.0206186,9.05405405 C40.0206186,7.74594595 40.0206186,6.79459459 38.209622,6.79459459 C36.1649485,6.79459459 35.9312715,7.74594595 35.9312715,9.17297297 L35.9312715,15 L33.0103093,15 L33.0103093,9.05405405 C33.0103093,7.74594595 32.95189,6.79459459 31.1993127,6.79459459 C29.1546392,6.79459459 28.9209622,7.74594595 28.9209622,9.17297297 L28.9209622,15 L26,15 L26,4.41621622 L26.0584192,4.41621622 Z" id="Shape"></path>
                    <path d="M45,4.41176471 L47.3064516,4.23529412 L47.5430108,5.17647059 C48.1344086,4.47058824 49.1989247,4 51.4462366,4 C55.1129032,4 56,6.47058824 56,9.52941176 C56,12.5882353 55.0537634,15.0588235 51.2688172,15.0588235 C49.3172043,15.0588235 48.4301075,14.7058824 47.9569892,14.0588235 L47.9569892,18 L45,18 L45,4.41176471 Z M53.0430108,9.64705882 C53.0430108,7.94117647 52.688172,6.64705882 50.7365591,6.64705882 C48.6666667,6.64705882 48.016129,7.58823529 48.016129,9.64705882 C48.016129,11.7058824 48.6075269,12.5294118 50.7365591,12.5294118 C52.6290323,12.5294118 53.0430108,11.3529412 53.0430108,9.64705882 Z" id="Shape"></path>
                    <path d="M57,10.8951613 L57,0 L59.7027027,0 L59.7027027,10.5564516 C59.7027027,11.4032258 59.8648649,11.6290323 60.6756757,11.6290323 L61,11.6290323 L61,13.9435484 C60.7837838,14 60.2432432,14 59.7027027,14 C57.9189189,14 57,13.3225806 57,10.8951613 Z" id="Shape"></path>
                    <path d="M63,1 L66,1 L66,3.63934426 L63,3.63934426 L63,1 Z M63,4.6147541 L65.9411765,4.6147541 L65.9411765,15 L63,15 L63,4.6147541 Z" id="Shape"></path>
                    <path d="M71.9787234,15 C68.7021277,15 68,13.5957447 68,11.7234043 C68,8.7393617 70.106383,8.03723404 74.787234,8.03723404 L75.1968085,8.03723404 C75.1968085,7.10106383 74.962766,6.57446809 73.0904255,6.57446809 C71.8031915,6.57446809 70.6329787,7.04255319 70.0478723,7.45212766 L68.5851064,5.28723404 C69.3457447,4.7606383 71.2180851,4 73.4414894,4 C77.2446809,4 78.0638298,5.2287234 78.0638298,8.21276596 L78.0638298,11.4308511 C78.0638298,12.25 78.1223404,12.4255319 79,12.4255319 L79,14.8244681 C78.7659574,14.8829787 78.4148936,14.8829787 77.7712766,14.8829787 C76.6595745,14.8829787 76.1329787,14.6489362 75.7234043,13.8297872 C75.1968085,14.5319149 73.9680851,15 71.9787234,15 Z M75.2553191,10.4361702 L75.2553191,10.0265957 L75.0212766,10.0265957 C71.2765957,10.0265957 70.8085106,10.3191489 70.8085106,11.4893617 C70.8085106,12.25 71.2180851,12.6595745 72.5638298,12.6595745 C74.4361702,12.6010638 75.2553191,11.9574468 75.2553191,10.4361702 Z" id="Shape"></path>
                    <path d="M80,4.41621622 L82.2413793,4.23783784 L82.4712644,5.18918919 C83.045977,4.53513514 84.0229885,4 86.2643678,4 C89.4252874,4 90,5.78378378 90,8.45945946 L90,15 L87.1264368,15 L87.1264368,9.05405405 C87.1264368,7.74594595 86.954023,6.79459459 85.2298851,6.79459459 C83.2183908,6.79459459 82.8735632,7.74594595 82.8735632,9.17297297 L82.8735632,15 L80,15 L80,4.41621622 Z" id="Shape"></path>
                    <path d="M92,9.52888229 C92,6.47035166 93,4 97.5882353,4 C99.5294118,4 100.941176,4.64699686 101.941176,5.705719 L99.8823529,7.6467096 C99.4117647,7.17616642 98.8235294,6.64680535 97.6470588,6.64680535 C95.5294118,6.64680535 95.0588235,7.82316329 95.0588235,9.58770019 C95.0588235,11.3522371 95.5294118,12.528595 97.7058824,12.528595 C98.7058824,12.528595 99.3529412,12.2345055 100.117647,11.4698729 L102,13.2932277 C100.764706,14.4695856 99.7058824,14.9989467 97.5882353,14.9989467 C93,15.0577646 92,12.6462308 92,9.52888229 Z" id="Shape"></path>
                    <path d="M107.310734,15 C102.903955,15 102,12.4840426 102,9.5 C102,6.51595745 102.960452,4 107.310734,4 C111.830508,4 111.943503,7.10106383 111.887006,10.6702128 L104.768362,10.6702128 C104.937853,11.9574468 105.502825,12.7180851 107.367232,12.7180851 C108.949153,12.7180851 109.79661,12.3085106 110.587571,11.7234043 L112,13.6542553 C110.644068,14.5904255 109.344633,15 107.310734,15 Z M104.711864,8.50531915 L109.231638,8.50531915 C109.175141,7.27659574 108.949153,6.39893617 107.19774,6.39893617 C105.446328,6.39893617 104.881356,7.21808511 104.711864,8.50531915 Z" id="Shape"></path>
                    <path d="M119.55914,15 C117.489247,15 115.655914,14.4857143 114,13.5142857 L114.532258,12.7714286 C116.010753,13.6857143 117.666667,14.1428571 119.55914,14.1428571 C121.037634,14.1428571 122.16129,13.9142857 122.930108,13.4 C123.639785,12.9428571 124.053763,12.1428571 124.053763,11.1142857 C124.053763,10.7142857 123.994624,10.3142857 123.817204,10.0285714 C123.698925,9.74285714 123.521505,9.45714286 123.284946,9.28571429 C123.048387,9.11428571 122.752688,8.94285714 122.397849,8.82857143 C122.043011,8.71428571 121.629032,8.6 121.215054,8.48571429 C120.801075,8.37142857 120.327957,8.31428571 119.795699,8.2 C119.677419,8.2 119.61828,8.2 119.55914,8.14285714 C118.849462,8.02857143 118.317204,7.91428571 117.962366,7.8 C117.607527,7.68571429 117.134409,7.57142857 116.66129,7.4 C116.188172,7.22857143 115.833333,7 115.596774,6.77142857 C115.360215,6.54285714 115.123656,6.25714286 114.946237,5.85714286 C114.768817,5.45714286 114.709677,5 114.709677,4.48571429 C114.709677,3.28571429 115.123656,2.37142857 115.892473,1.85714286 C116.72043,1.28571429 117.903226,1 119.5,1 C121.392473,1 122.930108,1.4 124.112903,2.14285714 L123.580645,2.88571429 C122.516129,2.2 121.155914,1.8 119.5,1.8 C118.198925,1.8 117.193548,2.02857143 116.602151,2.42857143 C116.010753,2.82857143 115.655914,3.51428571 115.655914,4.37142857 C115.655914,4.77142857 115.715054,5.05714286 115.833333,5.34285714 C115.951613,5.62857143 116.129032,5.85714286 116.306452,6.02857143 C116.483871,6.2 116.77957,6.37142857 117.193548,6.48571429 C117.607527,6.65714286 117.962366,6.77142857 118.317204,6.82857143 C118.672043,6.88571429 119.145161,7 119.736559,7.11428571 C120.327957,7.22857143 120.741935,7.28571429 120.978495,7.34285714 C121.215054,7.4 121.569892,7.45714286 122.043011,7.57142857 C122.516129,7.68571429 122.811828,7.8 123.048387,7.91428571 C123.284946,8.02857143 123.521505,8.2 123.817204,8.37142857 C124.112903,8.54285714 124.290323,8.77142857 124.467742,9 C124.586022,9.22857143 124.704301,9.51428571 124.822581,9.8 C124.94086,10.1428571 125,10.4857143 125,10.8857143 C125,13.6857143 123.166667,15 119.55914,15 Z" id="Shape"></path>
                    <path d="M127,14 L127,0 L127.895105,0 L127.895105,5.45381526 C128.342657,4.38554217 129.517483,3.87951807 131.475524,3.87951807 C132.258741,3.87951807 132.874126,3.99196787 133.377622,4.16064257 C133.881119,4.32931727 134.216783,4.61044177 134.440559,5.00401606 C134.664336,5.39759036 134.832168,5.79116466 134.888112,6.24096386 C134.944056,6.69076305 135,7.25301205 135,7.92771084 L135,13.9437751 L134.104895,13.9437751 L134.104895,8.04016064 C134.104895,7.47791165 134.104895,7.02811245 134.048951,6.69076305 C133.993007,6.35341365 133.881119,6.01606426 133.713287,5.67871486 C133.545455,5.34136546 133.265734,5.11646586 132.874126,4.94779116 C132.482517,4.77911647 131.979021,4.72289157 131.307692,4.72289157 C130.636364,4.72289157 130.076923,4.83534137 129.573427,5.00401606 C129.125874,5.17269076 128.79021,5.45381526 128.51049,5.79116466 C128.286713,6.12851406 128.118881,6.52208835 128.006993,6.91566265 C127.895105,7.30923695 127.895105,7.81526104 127.895105,8.37751004 L127.895105,14 L127,14 L127,14 Z" id="Shape"></path>
                    <path d="M142.92,15 C141.9,15 141.06,14.8791209 140.4,14.5769231 C139.74,14.2747253 139.2,13.9120879 138.9,13.3681319 C138.54,12.8241758 138.3,12.2802198 138.18,11.6758242 C138.06,11.0714286 138,10.3461538 138,9.5 C138,8.65384615 138.06,7.92857143 138.24,7.32417582 C138.36,6.71978022 138.6,6.11538462 138.96,5.63186813 C139.32,5.08791209 139.8,4.72527473 140.46,4.42307692 C141.12,4.18131868 141.9,4 142.86,4 C143.46,4 143.94,4.06043956 144.36,4.18131868 C144.78,4.3021978 145.14,4.42307692 145.44,4.6043956 C145.74,4.78571429 145.98,5.02747253 146.16,5.32967033 C146.34,5.63186813 146.52,5.93406593 146.64,6.23626374 C146.76,6.53846154 146.82,6.9010989 146.88,7.32417582 C146.94,7.74725275 146.94,8.17032967 147,8.47252747 C147,8.77472527 147,9.1978022 147,9.74175824 L138.9,9.74175824 C138.9,10.467033 138.96,11.010989 139.08,11.5549451 C139.2,12.0384615 139.38,12.521978 139.68,12.9450549 C139.98,13.3681319 140.4,13.6703297 140.88,13.9120879 C141.42,14.1538462 142.08,14.2142857 142.86,14.2142857 C143.64,14.2142857 144.3,14.0934066 144.78,13.9120879 C145.26,13.7307692 145.74,13.4285714 146.28,13.0659341 L146.82,13.7912088 C145.74,14.5769231 144.42,15 142.92,15 Z M142.8,4.84615385 C141.42,4.84615385 140.46,5.20879121 139.86,5.87362637 C139.32,6.53846154 138.96,7.50549451 138.9,8.77472527 L146.04,8.77472527 C146.04,8.35164835 145.98,7.98901099 145.98,7.74725275 C145.98,7.50549451 145.92,7.2032967 145.86,6.84065934 C145.8,6.47802198 145.68,6.23626374 145.56,5.99450549 C145.44,5.81318681 145.26,5.63186813 145.02,5.39010989 C144.78,5.20879121 144.48,5.02747253 144.12,4.96703297 C143.76,4.90659341 143.34,4.84615385 142.8,4.84615385 Z" id="Shape"></path>
                    <path d="M149,14 L149,4.16853933 L149.675325,4.11235955 L149.779221,5.79775281 C149.935065,5.29213483 150.350649,4.84269663 150.87013,4.50561798 C151.441558,4.16853933 152.116883,4 153,4 L153,4.8988764 C151.909091,4.8988764 151.12987,5.23595506 150.61039,5.85393258 C150.090909,6.52808989 149.831169,7.37078652 149.831169,8.49438202 L149.831169,13.9438202 L149,13.9438202 L149,14 Z" id="Shape"></path>
                    <path d="M155,2.73706897 L155,1 L156,1 L156,2.73706897 L155,2.73706897 Z M155,14 L155,4.19396552 L156,4.19396552 L156,14 L155,14 Z" id="Shape"></path>
                    <path d="M165.258883,14 L165.258883,5.00401606 L160.736041,5.00401606 L160.736041,14 L159.84264,14 L159.84264,5.00401606 L158,5.00401606 L158,4.16064257 L159.84264,4.16064257 L159.84264,2.97991968 C159.84264,2.02409639 160.06599,1.29317269 160.456853,0.787148594 C160.847716,0.281124498 161.517766,0 162.522843,0 L163.527919,0 L163.527919,0.843373494 L162.57868,0.843373494 C161.908629,0.843373494 161.406091,1.01204819 161.182741,1.40562249 C160.903553,1.79919679 160.791878,2.30522088 160.791878,2.97991968 L160.791878,4.16064257 L165.314721,4.16064257 L165.314721,2.97991968 C165.314721,2.02409639 165.538071,1.29317269 165.928934,0.787148594 C166.319797,0.281124498 166.989848,0 167.994924,0 L169,0 L169,0.843373494 L168.050761,0.843373494 C167.380711,0.843373494 166.878173,1.01204819 166.654822,1.40562249 C166.375635,1.79919679 166.263959,2.30522088 166.263959,2.97991968 L166.263959,4.16064257 L169,4.16064257 L169,5.00401606 L166.263959,5.00401606 L166.263959,14 L165.258883,14 Z" id="Shape"></path>
                </g>
                <path d="M7.012,91.14 C6.1719958,91.14 5.52566893,91.0583342 5.073,90.895 C4.62033107,90.7316658 4.26800126,90.4633352 4.016,90.09 L3.82,91.042 L3.064,90.972 L3.064,80.136 L4.128,80.136 L4.128,84.154 C4.34266774,83.7806648 4.683331,83.5100008 5.15,83.342 C5.616669,83.1739992 6.25599594,83.09 7.068,83.09 C8.2813394,83.09 9.13533086,83.4353299 9.63,84.126 C10.1246691,84.8166701 10.372,85.8153268 10.372,87.122 C10.372,88.4286732 10.1200025,89.4249966 9.616,90.111 C9.11199748,90.7970034 8.24400616,91.14 7.012,91.14 Z M6.858,90.188 C7.76333786,90.188 8.39566487,89.9360025 8.755,89.432 C9.11433513,88.9279975 9.294,88.172005 9.294,87.164 C9.294,86.1373282 9.11666844,85.3696692 8.762,84.861 C8.40733156,84.3523308 7.77267124,84.098 6.858,84.098 C5.86866172,84.098 5.16633541,84.3266644 4.751,84.784 C4.33566459,85.2413356 4.128,86.034661 4.128,87.164 C4.128,88.293339 4.33333128,89.0796644 4.744,89.523 C5.15466872,89.9663355 5.85932834,90.188 6.858,90.188 Z M12.2095,93.338 C11.8548316,93.338 11.6308338,93.3333334 11.5375,93.324 L11.5375,92.456 L12.1395,92.456 C12.4941684,92.456 12.7578325,92.3976672 12.9305,92.281 C13.1031675,92.1643327 13.2408328,91.9566682 13.3435,91.658 L13.6235,90.944 L10.5995,83.272 L11.7195,83.272 L14.1835,89.698 L16.6195,83.272 L17.7115,83.272 L14.3795,91.77 C14.1648323,92.3393362 13.8965016,92.7429988 13.5745,92.981 C13.2524984,93.2190012 12.7975029,93.338 12.2095,93.338 Z M26.2165,91.154 C22.8098163,91.154 21.1065,89.3713512 21.1065,85.806 C21.1065,84.0233244 21.5498289,82.6863378 22.4365,81.795 C23.3231711,80.9036622 24.601825,80.458 26.2725,80.458 C27.7751742,80.458 28.9838288,80.8919957 29.8985,81.76 L29.1145,82.544 C28.3491628,81.8533299 27.3971724,81.508 26.2585,81.508 C23.5611532,81.508 22.2125,82.945319 22.2125,85.82 C22.2125,88.6853477 23.5658198,90.118 26.2725,90.118 C26.9818369,90.118 27.5558311,90.0246676 27.9945,89.838 C28.4331689,89.6513324 28.8344982,89.3900017 29.1985,89.054 L29.9685,89.796 C29.0444954,90.7013379 27.7938412,91.154 26.2165,91.154 Z M31.596,93.338 C31.2413316,93.338 31.0173338,93.3333334 30.924,93.324 L30.924,92.456 L31.526,92.456 C31.8806684,92.456 32.1443325,92.3976672 32.317,92.281 C32.4896675,92.1643327 32.6273328,91.9566682 32.73,91.658 L33.01,90.944 L29.986,83.272 L31.106,83.272 L33.57,89.698 L36.006,83.272 L37.098,83.272 L33.766,91.77 C33.5513323,92.3393362 33.2830016,92.7429988 32.961,92.981 C32.6389984,93.2190012 32.1840029,93.338 31.596,93.338 Z M42.8835,91 L40.5175,87.724 L38.2075,91 L37.0595,91 L39.9715,86.968 L37.3115,83.272 L38.4735,83.272 L40.6015,86.212 L42.6875,83.272 L43.8355,83.272 L41.1475,86.982 L44.0735,91 L42.8835,91 Z M44.273,84.238 L44.273,83.272 L45.687,83.272 L45.869,80.948 L46.709,80.794 L46.709,83.272 L48.837,83.272 L48.837,84.238 L46.709,84.238 L46.709,88.886 C46.709,89.2966687 46.7813326,89.5953324 46.926,89.782 C47.0706674,89.9686676 47.3903309,90.062 47.885,90.062 L48.837,90.062 L48.837,91 C48.762333,91.0093334 48.3890034,91.014 47.717,91.014 C46.8956626,91.014 46.3473347,90.8576682 46.072,90.545 C45.7966653,90.2323318 45.659,89.7213369 45.659,89.012 L45.659,84.238 L44.273,84.238 Z M53.2785,91.154 C52.5318296,91.154 51.9041692,91.0536677 51.3955,90.853 C50.8868308,90.6523323 50.5041679,90.3583353 50.2475,89.971 C49.990832,89.5836647 49.8135005,89.1660022 49.7155,88.718 C49.6174995,88.2699978 49.5685,87.7380031 49.5685,87.122 C49.5685,86.5153303 49.6221661,85.9856689 49.7295,85.533 C49.8368339,85.0803311 50.018832,84.6603353 50.2755,84.273 C50.5321679,83.8856647 50.9078309,83.5916677 51.4025,83.391 C51.8971691,83.1903323 52.5084964,83.09 53.2365,83.09 C53.6658355,83.09 54.0508316,83.1343329 54.3915,83.223 C54.7321684,83.3116671 55.0121656,83.423666 55.2315,83.559 C55.4508344,83.694334 55.6398325,83.8809988 55.7985,84.119 C55.9571675,84.3570012 56.0761663,84.5856656 56.1555,84.805 C56.2348337,85.0243344 56.2954998,85.3019983 56.3375,85.638 C56.3795002,85.9740017 56.4051666,86.2679987 56.4145,86.52 C56.4238334,86.7720013 56.4238334,87.093998 56.4145,87.486 L50.5905,87.486 C50.6185001,88.3913379 50.8214981,89.0749977 51.1995,89.537 C51.5775019,89.9990023 52.270495,90.23 53.2785,90.23 C53.8571696,90.23 54.3261649,90.1646673 54.6855,90.034 C55.0448351,89.9033327 55.4064982,89.7073346 55.7705,89.446 L56.3445,90.188 C55.5044958,90.8320032 54.482506,91.154 53.2785,91.154 Z M53.2085,84.042 C52.2938288,84.042 51.6475019,84.2519979 51.2695,84.672 C50.8914981,85.0920021 50.6698337,85.7079959 50.6045,86.52 L55.4065,86.52 C55.3878332,86.1746649 55.3668335,85.9086676 55.3435,85.722 C55.3201666,85.5353324 55.2665004,85.3183346 55.1825,85.071 C55.0984996,84.8236654 54.9841674,84.6370006 54.8395,84.511 C54.6948326,84.3849994 54.4848347,84.2753338 54.2095,84.182 C53.9341653,84.0886662 53.600502,84.042 53.2085,84.042 Z M57.916,91 L57.916,83.328 L58.756,83.272 L58.868,84.308 C59.0266675,83.9906651 59.3416643,83.7246677 59.813,83.51 C60.2843357,83.2953323 60.8606633,83.1833334 61.542,83.174 L61.542,84.238 C59.8339915,84.238 58.98,85.1013247 58.98,86.828 L58.98,91 L57.916,91 Z M64.5555,91.14 C63.547495,91.14 62.8428353,90.9393353 62.4415,90.538 C62.0401647,90.1366647 61.8395,89.5720036 61.8395,88.844 C61.8395,87.7519945 62.2058297,87.003002 62.9385,86.597 C63.6711703,86.190998 65.0221568,85.988 66.9915,85.988 L67.4535,85.988 C67.4441666,85.6333316 67.4138336,85.3463344 67.3625,85.127 C67.3111664,84.9076656 67.2131674,84.7140008 67.0685,84.546 C66.9238326,84.3779992 66.7138347,84.2590004 66.4385,84.189 C66.1631653,84.1189997 65.8061689,84.084 65.3675,84.084 C64.508829,84.084 63.7388367,84.3079978 63.0575,84.756 L62.4975,83.93 C62.8055015,83.7153323 63.2278306,83.5216675 63.7645,83.349 C64.3011694,83.1763325 64.8634971,83.09 65.4515,83.09 C66.1048366,83.09 66.6298313,83.1459994 67.0265,83.258 C67.4231686,83.3700006 67.7288323,83.561332 67.9435,83.832 C68.1581677,84.102668 68.3004997,84.4176649 68.3705,84.777 C68.4405004,85.1363351 68.4755,85.6146637 68.4755,86.212 L68.4755,89.124 C68.4755,89.5440021 68.5174996,89.8053328 68.6015,89.908 C68.6855004,90.0106672 68.9094982,90.062 69.2735,90.062 L69.2735,90.986 C69.2268331,91.0046668 69.0868345,91.014 68.8535,91.014 C68.4241645,91.014 68.1231675,90.9416674 67.9505,90.797 C67.7778325,90.6523326 67.6588337,90.4026684 67.5935,90.048 C67.3508321,90.4213352 66.9938357,90.6966658 66.5225,90.874 C66.0511643,91.0513342 65.3955042,91.14 64.5555,91.14 Z M64.7095,90.23 C65.6801715,90.23 66.3801645,90.0130022 66.8095,89.579 C67.2388355,89.1449978 67.4535,88.4566714 67.4535,87.514 L67.4535,86.954 L67.0475,86.954 C65.8994943,86.954 65.0338363,87.0053328 64.4505,87.108 C63.8671638,87.2106672 63.4565012,87.3879987 63.2185,87.64 C62.9804988,87.8920013 62.8615,88.2699975 62.8615,88.774 C62.8615,89.2593358 62.9991653,89.6233321 63.2745,89.866 C63.5498347,90.1086679 64.0281633,90.23 64.7095,90.23 Z" id="by-AppGate" fill="#883082"></path>
            </g>
        </g>
    </g>
</svg>