<?xml version="1.0" encoding="UTF-8"?>
<svg width="194px" height="41px" viewBox="0 0 194 41" version="1.1" xmlns="http://www.w3.org/2000/svg" xmlns:xlink="http://www.w3.org/1999/xlink">
    <!-- Generator: Sketch 47.1 (45422) - http://www.bohemiancoding.com/sketch -->
    <title>Group 3</title>
    <desc>Created with Sketch.</desc>
    <defs></defs>
    <g id="Website" stroke="none" stroke-width="1" fill="none" fill-rule="evenodd">
        <g id="Artboard" transform="translate(-96.000000, -233.000000)" fill="#FFFFFF">
            <g id="Group-3" transform="translate(96.000000, 233.000000)">
                <g id="Group-2" fill-rule="nonzero">
                    <path d="M20.5,0 C9.18280872,0 0,9.23244552 0,20.5 C0,31.8171913 9.18280872,41 20.5,41 C31.8171913,41 41,31.8171913 41,20.5 C41,9.23244552 31.8171913,0 20.5,0 Z M20.5,37.9225182 C10.9200969,37.9225182 3.12711864,30.12954 3.12711864,20.5496368 C3.12711864,10.9697337 10.87046,3.17675545 20.5,3.17675545 C30.0799031,3.17675545 37.8728814,10.9200969 37.8728814,20.5496368 C37.8232446,30.0799031 30.0799031,37.9225182 20.5,37.9225182 Z" id="Shape"></path>
                    <g id="Group" transform="translate(5.125000, 5.857143)">
                        <path d="M18.0107143,12.4574107 C17.860625,12.3073214 17.6104762,12.3073214 17.4103571,12.4574107 L14.4586012,15.3091071 L13.1578274,14.0083333 C13.0077381,13.858244 12.7575893,13.858244 12.5574702,14.0083333 L12.0071429,14.5586607 C11.8570536,14.70875 11.8570536,14.9588988 12.0071429,15.1590179 L14.1083929,17.2602679 L14.1584226,17.3102976 C14.3085119,17.4603869 14.5586607,17.3603274 14.70875,17.2602679 L18.4609821,13.5080357 C18.6110714,13.3579464 18.6110714,13.1077976 18.4609821,12.9076786 L18.0107143,12.4574107 Z" id="Shape"></path>
                        <path d="M15.1089881,0.150089286 C6.90410714,0.150089286 0.200119048,6.85407738 0.200119048,15.0589583 C0.200119048,23.2638393 6.90410714,29.9678274 15.1089881,29.9678274 C23.313869,29.9678274 30.0178571,23.2638393 30.0178571,15.0589583 C30.0178571,6.85407738 23.4139286,0.150089286 15.1089881,0.150089286 Z M22.6634821,15.759375 C22.6634821,19.6116667 20.0619345,22.063125 15.6092857,25.1149405 C15.4091667,25.2650298 15.1089881,25.2650298 14.908869,25.1149405 C10.4061905,22.1131548 7.85467262,19.6616964 7.85467262,15.759375 C7.85467262,12.6575298 7.85467262,9.0553869 7.85467262,7.90470238 C7.85467262,7.70458333 8.05479167,7.50446429 8.25491071,7.50446429 C10.8064286,7.45443452 12.5074405,6.80404762 14.9588988,4.70279762 C15.1590179,4.55270833 15.4591964,4.55270833 15.559256,4.70279762 C18.0107143,6.80404762 19.7117262,7.45443452 22.263244,7.50446429 C22.4633631,7.50446429 22.6634821,7.70458333 22.6634821,7.90470238 C22.6634821,9.0553869 22.6634821,12.6575298 22.6634821,15.759375 Z" id="Shape"></path>
                    </g>
                </g>
                <g id="Group" transform="translate(48.000000, 10.000000)" fill-rule="nonzero">
                    <path d="M0.446938776,6.53225806 C0.446938776,2.41935484 2.73129252,0.629032258 6.65442177,0.629032258 C8.78979592,0.629032258 10.1802721,1.20967742 11.2727891,2.27419355 L9.48503401,4.01612903 C8.78979592,3.33870968 7.94557823,2.9516129 6.65442177,2.9516129 C4.12176871,2.9516129 3.07891156,4.20967742 3.07891156,6.58064516 C3.07891156,8.90322581 3.97278912,10.2096774 6.65442177,10.2096774 C8.19387755,10.2096774 8.88911565,9.72580645 9.63401361,9.0483871 L11.3721088,10.6935484 C10.4285714,11.6612903 9.18707483,12.483871 6.50544218,12.483871 C2.08571429,12.4354839 0.446938776,10.3064516 0.446938776,6.53225806 Z" id="Shape"></path>
                    <path d="M12.0673469,7.88709677 C12.0673469,4.93548387 13.4081633,3.33870968 16.785034,3.33870968 C20.1619048,3.33870968 21.4530612,4.98387097 21.4530612,7.88709677 C21.4530612,10.7903226 20.1619048,12.4354839 16.785034,12.4354839 C13.3585034,12.4354839 12.0673469,10.8387097 12.0673469,7.88709677 Z M18.970068,7.93548387 C18.970068,6.43548387 18.4734694,5.51612903 16.785034,5.51612903 C15.0469388,5.51612903 14.6,6.43548387 14.6,7.93548387 C14.6,9.43548387 15.0469388,10.3548387 16.785034,10.3548387 C18.4734694,10.3548387 18.970068,9.43548387 18.970068,7.93548387 Z" id="Shape"></path>
                    <path d="M22.8435374,3.67741935 L24.7802721,3.53225806 L24.9789116,4.30645161 C25.3761905,3.77419355 26.3197279,3.33870968 28.1571429,3.33870968 C30.1435374,3.33870968 30.4911565,3.77419355 30.7891156,4.30645161 C31.2360544,3.72580645 32.2292517,3.33870968 34.1163265,3.33870968 C36.847619,3.33870968 37.244898,4.79032258 37.244898,6.96774194 L37.244898,12.2903226 L34.7122449,12.2903226 L34.7122449,7.4516129 C34.7122449,6.38709677 34.7122449,5.61290323 33.1727891,5.61290323 C31.4346939,5.61290323 31.2360544,6.38709677 31.2360544,7.5483871 L31.2360544,12.2903226 L28.7530612,12.2903226 L28.7530612,7.4516129 C28.7530612,6.38709677 28.7034014,5.61290323 27.2136054,5.61290323 C25.4755102,5.61290323 25.2768707,6.38709677 25.2768707,7.5483871 L25.2768707,12.2903226 L22.7938776,12.2903226 L22.7938776,3.67741935 L22.8435374,3.67741935 Z" id="Shape"></path>
                    <path d="M38.9829932,3.67741935 L40.9197279,3.53225806 L41.1183673,4.30645161 C41.614966,3.72580645 42.5088435,3.33870968 44.3959184,3.33870968 C47.4748299,3.33870968 48.2197279,5.37096774 48.2197279,7.88709677 C48.2197279,10.4032258 47.4251701,12.4354839 44.2469388,12.4354839 C42.6081633,12.4354839 41.8632653,12.1451613 41.4659864,11.6129032 L41.4659864,14.8548387 L38.9829932,14.8548387 L38.9829932,3.67741935 Z M45.7367347,7.98387097 C45.7367347,6.58064516 45.4387755,5.51612903 43.8,5.51612903 C42.0619048,5.51612903 41.5156463,6.29032258 41.5156463,7.98387097 C41.5156463,9.67741935 42.0122449,10.3548387 43.8,10.3548387 C45.3891156,10.3548387 45.7367347,9.38709677 45.7367347,7.98387097 Z" id="Shape"></path>
                    <path d="M49.7095238,9.62903226 L49.7095238,0.290322581 L52.192517,0.290322581 L52.192517,9.33870968 C52.192517,10.0645161 52.3414966,10.2580645 53.0863946,10.2580645 L53.3843537,10.2580645 L53.3843537,12.2419355 C53.1857143,12.2903226 52.6891156,12.2903226 52.192517,12.2903226 C50.5537415,12.2903226 49.7095238,11.7096774 49.7095238,9.62903226 Z" id="Shape"></path>
                    <path d="M54.9734694,0.483870968 L57.5061224,0.483870968 L57.5061224,2.70967742 L54.9734694,2.70967742 L54.9734694,0.483870968 Z M54.9734694,3.53225806 L57.4564626,3.53225806 L57.4564626,12.2903226 L54.9734694,12.2903226 L54.9734694,3.53225806 Z" id="Shape"></path>
                    <path d="M62.1741497,12.4354839 C59.3931973,12.4354839 58.7972789,11.2741935 58.7972789,9.72580645 C58.7972789,7.25806452 60.585034,6.67741935 64.5578231,6.67741935 L64.9054422,6.67741935 C64.9054422,5.90322581 64.7068027,5.46774194 63.1176871,5.46774194 C62.0251701,5.46774194 61.0319728,5.85483871 60.5353741,6.19354839 L59.2938776,4.40322581 C59.9394558,3.96774194 61.5285714,3.33870968 63.4156463,3.33870968 C66.6435374,3.33870968 67.3387755,4.35483871 67.3387755,6.82258065 L67.3387755,9.48387097 C67.3387755,10.1612903 67.3884354,10.3064516 68.1333333,10.3064516 L68.1333333,12.2903226 C67.9346939,12.3387097 67.6367347,12.3387097 67.0904762,12.3387097 C66.1469388,12.3387097 65.7,12.1451613 65.352381,11.4677419 C64.9054422,12.0483871 63.862585,12.4354839 62.1741497,12.4354839 Z M64.955102,8.66129032 L64.955102,8.32258065 L64.7564626,8.32258065 C61.5782313,8.32258065 61.1809524,8.56451613 61.1809524,9.53225806 C61.1809524,10.1612903 61.5285714,10.5 62.6707483,10.5 C64.2598639,10.4516129 64.955102,9.91935484 64.955102,8.66129032 Z" id="Shape"></path>
                    <path d="M69.4741497,3.67741935 L71.4108844,3.53225806 L71.6095238,4.30645161 C72.1061224,3.77419355 72.9503401,3.33870968 74.8870748,3.33870968 C77.6183673,3.33870968 78.114966,4.79032258 78.114966,6.96774194 L78.114966,12.2903226 L75.6319728,12.2903226 L75.6319728,7.4516129 C75.6319728,6.38709677 75.4829932,5.61290323 73.9931973,5.61290323 C72.255102,5.61290323 71.9571429,6.38709677 71.9571429,7.5483871 L71.9571429,12.2903226 L69.4741497,12.2903226 L69.4741497,3.67741935 Z" id="Shape"></path>
                    <path d="M79.4557823,7.88709677 C79.4557823,5.37096774 80.3,3.33870968 84.1734694,3.33870968 C85.8122449,3.33870968 87.0040816,3.87096774 87.8482993,4.74193548 L86.1102041,6.33870968 C85.7129252,5.9516129 85.2163265,5.51612903 84.2231293,5.51612903 C82.4353741,5.51612903 82.0380952,6.48387097 82.0380952,7.93548387 C82.0380952,9.38709677 82.4353741,10.3548387 84.2727891,10.3548387 C85.1170068,10.3548387 85.6632653,10.1129032 86.3088435,9.48387097 L87.8979592,10.983871 C86.855102,11.9516129 85.9612245,12.3870968 84.1734694,12.3870968 C80.3,12.4354839 79.4557823,10.4516129 79.4557823,7.88709677 Z" id="Shape"></path>
                    <path d="M92.9632653,12.4354839 C89.0897959,12.4354839 88.2952381,10.3548387 88.2952381,7.88709677 C88.2952381,5.41935484 89.1394558,3.33870968 92.9632653,3.33870968 C96.9360544,3.33870968 97.0353741,5.90322581 96.9857143,8.85483871 L90.7285714,8.85483871 C90.877551,9.91935484 91.3741497,10.5483871 93.0129252,10.5483871 C94.4034014,10.5483871 95.1482993,10.2096774 95.8435374,9.72580645 L97.085034,11.3225806 C95.8931973,12.0967742 94.7510204,12.4354839 92.9632653,12.4354839 Z M90.6789116,7.06451613 L94.6517007,7.06451613 C94.6020408,6.0483871 94.4034014,5.32258065 92.8639456,5.32258065 C91.3244898,5.32258065 90.8278912,6 90.6789116,7.06451613 Z" id="Shape"></path>
                    <path d="M102.795918,12.4354839 C101.057823,12.4354839 99.5183673,12 98.1278912,11.1774194 L98.5748299,10.5483871 C99.8163265,11.3225806 101.206803,11.7096774 102.795918,11.7096774 C104.037415,11.7096774 104.980952,11.516129 105.626531,11.0806452 C106.222449,10.6935484 106.570068,10.016129 106.570068,9.14516129 C106.570068,8.80645161 106.520408,8.46774194 106.371429,8.22580645 C106.272109,7.98387097 106.123129,7.74193548 105.92449,7.59677419 C105.72585,7.4516129 105.477551,7.30645161 105.179592,7.20967742 C104.881633,7.11290323 104.534014,7.01612903 104.186395,6.91935484 C103.838776,6.82258065 103.441497,6.77419355 102.994558,6.67741935 C102.895238,6.67741935 102.845578,6.67741935 102.795918,6.62903226 C102.2,6.53225806 101.753061,6.43548387 101.455102,6.33870968 C101.157143,6.24193548 100.759864,6.14516129 100.362585,6 C99.9653061,5.85483871 99.6673469,5.66129032 99.4687075,5.46774194 C99.270068,5.27419355 99.0714286,5.03225806 98.922449,4.69354839 C98.7734694,4.35483871 98.7238095,3.96774194 98.7238095,3.53225806 C98.7238095,2.51612903 99.0714286,1.74193548 99.7170068,1.30645161 C100.412245,0.822580645 101.405442,0.580645161 102.746259,0.580645161 C104.335374,0.580645161 105.626531,0.919354839 106.619728,1.5483871 L106.172789,2.17741935 C105.278912,1.59677419 104.136735,1.25806452 102.746259,1.25806452 C101.653741,1.25806452 100.809524,1.4516129 100.312925,1.79032258 C99.8163265,2.12903226 99.5183673,2.70967742 99.5183673,3.43548387 C99.5183673,3.77419355 99.5680272,4.01612903 99.6673469,4.25806452 C99.7666667,4.5 99.9156463,4.69354839 100.064626,4.83870968 C100.213605,4.98387097 100.461905,5.12903226 100.809524,5.22580645 C101.157143,5.37096774 101.455102,5.46774194 101.753061,5.51612903 C102.05102,5.56451613 102.448299,5.66129032 102.944898,5.75806452 C103.441497,5.85483871 103.789116,5.90322581 103.987755,5.9516129 C104.186395,6 104.484354,6.0483871 104.881633,6.14516129 C105.278912,6.24193548 105.527211,6.33870968 105.72585,6.43548387 C105.92449,6.53225806 106.123129,6.67741935 106.371429,6.82258065 C106.619728,6.96774194 106.768707,7.16129032 106.917687,7.35483871 C107.017007,7.5483871 107.116327,7.79032258 107.215646,8.03225806 C107.314966,8.32258065 107.364626,8.61290323 107.364626,8.9516129 C107.364626,11.3225806 105.82517,12.4354839 102.795918,12.4354839 Z" id="Shape"></path>
                    <path d="M109.5,12.2903226 L109.5,0.241935484 L110.294558,0.241935484 L110.294558,4.93548387 C110.691837,4.01612903 111.734694,3.58064516 113.472789,3.58064516 C114.168027,3.58064516 114.714286,3.67741935 115.161224,3.82258065 C115.608163,3.96774194 115.906122,4.20967742 116.104762,4.5483871 C116.303401,4.88709677 116.452381,5.22580645 116.502041,5.61290323 C116.551701,6 116.601361,6.48387097 116.601361,7.06451613 L116.601361,12.2419355 L115.806803,12.2419355 L115.806803,7.16129032 C115.806803,6.67741935 115.806803,6.29032258 115.757143,6 C115.707483,5.70967742 115.608163,5.41935484 115.459184,5.12903226 C115.310204,4.83870968 115.061905,4.64516129 114.714286,4.5 C114.366667,4.35483871 113.919728,4.30645161 113.32381,4.30645161 C112.727891,4.30645161 112.231293,4.40322581 111.784354,4.5483871 C111.387075,4.69354839 111.089116,4.93548387 110.840816,5.22580645 C110.642177,5.51612903 110.493197,5.85483871 110.393878,6.19354839 C110.294558,6.53225806 110.294558,6.96774194 110.294558,7.4516129 L110.294558,12.2903226 L109.5,12.2903226 L109.5,12.2903226 Z" id="Shape"></path>
                    <path d="M122.610204,12.4354839 C121.765986,12.4354839 121.070748,12.3387097 120.52449,12.0967742 C119.978231,11.8548387 119.531293,11.5645161 119.282993,11.1290323 C118.985034,10.6935484 118.786395,10.2580645 118.687075,9.77419355 C118.587755,9.29032258 118.538095,8.70967742 118.538095,8.03225806 C118.538095,7.35483871 118.587755,6.77419355 118.736735,6.29032258 C118.836054,5.80645161 119.034694,5.32258065 119.332653,4.93548387 C119.630612,4.5 120.027891,4.20967742 120.57415,3.96774194 C121.120408,3.77419355 121.765986,3.62903226 122.560544,3.62903226 C123.057143,3.62903226 123.454422,3.67741935 123.802041,3.77419355 C124.14966,3.87096774 124.447619,3.96774194 124.695918,4.11290323 C124.944218,4.25806452 125.142857,4.4516129 125.291837,4.69354839 C125.440816,4.93548387 125.589796,5.17741935 125.689116,5.41935484 C125.788435,5.66129032 125.838095,5.9516129 125.887755,6.29032258 C125.937415,6.62903226 125.937415,6.96774194 125.987075,7.20967742 C125.987075,7.4516129 125.987075,7.79032258 125.987075,8.22580645 L119.282993,8.22580645 C119.282993,8.80645161 119.332653,9.24193548 119.431973,9.67741935 C119.531293,10.0645161 119.680272,10.4516129 119.928571,10.7903226 C120.176871,11.1290323 120.52449,11.3709677 120.921769,11.5645161 C121.368707,11.7580645 121.914966,11.8064516 122.560544,11.8064516 C123.206122,11.8064516 123.752381,11.7096774 124.14966,11.5645161 C124.546939,11.4193548 124.944218,11.1774194 125.391156,10.8870968 L125.838095,11.4677419 C124.944218,12.0967742 123.851701,12.4354839 122.610204,12.4354839 Z M122.510884,4.30645161 C121.368707,4.30645161 120.57415,4.59677419 120.077551,5.12903226 C119.630612,5.66129032 119.332653,6.43548387 119.282993,7.4516129 L125.192517,7.4516129 C125.192517,7.11290323 125.142857,6.82258065 125.142857,6.62903226 C125.142857,6.43548387 125.093197,6.19354839 125.043537,5.90322581 C124.993878,5.61290323 124.894558,5.41935484 124.795238,5.22580645 C124.695918,5.08064516 124.546939,4.93548387 124.348299,4.74193548 C124.14966,4.59677419 123.901361,4.4516129 123.603401,4.40322581 C123.305442,4.35483871 122.957823,4.30645161 122.510884,4.30645161 Z" id="Shape"></path>
                    <path d="M128.122449,12.2903226 L128.122449,3.82258065 L128.768027,3.77419355 L128.867347,5.22580645 C129.016327,4.79032258 129.413605,4.40322581 129.910204,4.11290323 C130.456463,3.82258065 131.102041,3.67741935 131.946259,3.67741935 L131.946259,4.4516129 C130.903401,4.4516129 130.158503,4.74193548 129.661905,5.27419355 C129.165306,5.85483871 128.917007,6.58064516 128.917007,7.5483871 L128.917007,12.2419355 L128.122449,12.2419355 L128.122449,12.2903226 Z" id="Shape"></path>
                    <path d="M133.485714,2.56451613 L133.485714,1.06451613 L134.280272,1.06451613 L134.280272,2.56451613 L133.485714,2.56451613 Z M133.485714,12.2903226 L133.485714,3.82258065 L134.280272,3.82258065 L134.280272,12.2903226 L133.485714,12.2903226 Z" id="Shape"></path>
                    <path d="M142.47415,12.2903226 L142.47415,4.5483871 L138.451701,4.5483871 L138.451701,12.2903226 L137.657143,12.2903226 L137.657143,4.5483871 L136.018367,4.5483871 L136.018367,3.82258065 L137.657143,3.82258065 L137.657143,2.80645161 C137.657143,1.98387097 137.855782,1.35483871 138.203401,0.919354839 C138.55102,0.483870968 139.146939,0.241935484 140.040816,0.241935484 L140.934694,0.241935484 L140.934694,0.967741935 L140.090476,0.967741935 C139.494558,0.967741935 139.047619,1.11290323 138.84898,1.4516129 C138.60068,1.79032258 138.501361,2.22580645 138.501361,2.80645161 L138.501361,3.82258065 L142.52381,3.82258065 L142.52381,2.80645161 C142.52381,1.98387097 142.722449,1.35483871 143.070068,0.919354839 C143.417687,0.483870968 144.013605,0.241935484 144.907483,0.241935484 L145.801361,0.241935484 L145.801361,0.967741935 L144.957143,0.967741935 C144.361224,0.967741935 143.914286,1.11290323 143.715646,1.4516129 C143.467347,1.79032258 143.368027,2.22580645 143.368027,2.80645161 L143.368027,3.82258065 L145.801361,3.82258065 L145.801361,4.5483871 L143.368027,4.5483871 L143.368027,12.2903226 L142.47415,12.2903226 Z" id="Shape"></path>
                </g>
                <path d="M52.8621875,34.3351007 C52.2532084,34.3351007 51.7846398,34.273242 51.4564677,34.1495228 C51.1282957,34.0258036 50.8728666,33.8225536 50.6901729,33.5397667 L50.5480784,34.2608696 L50,34.2078473 L50,26 L50.7713697,26 L50.7713697,29.0434783 C50.9269977,28.7606914 51.1739688,28.555674 51.5122905,28.4284199 C51.8506123,28.3011659 52.3141061,28.2375398 52.9027859,28.2375398 C53.7824223,28.2375398 54.4015418,28.4991137 54.7601628,29.0222694 C55.1187838,29.545425 55.2980917,30.3018685 55.2980917,31.2916225 C55.2980917,32.2813765 55.1154007,33.0360525 54.7500132,33.5556734 C54.3846258,34.0752942 53.7553568,34.3351007 52.8621875,34.3351007 Z M52.7505418,33.6139979 C53.406886,33.6139979 53.865305,33.4231196 54.1258128,33.0413574 C54.3863205,32.6595951 54.5165724,32.0869603 54.5165724,31.3234358 C54.5165724,30.545772 54.3880121,29.9643003 54.1308876,29.5790032 C53.8737631,29.1937061 53.4136524,29.0010604 52.7505418,29.0010604 C52.0332998,29.0010604 51.5241332,29.1742648 51.2230269,29.5206787 C50.9219206,29.8670926 50.7713697,30.4680056 50.7713697,31.3234358 C50.7713697,32.1788661 50.920229,32.7744769 51.2179521,33.1102863 C51.5156752,33.4460957 52.0265334,33.6139979 52.7505418,33.6139979 Z M56.6302268,36 C56.3731023,36 56.2107103,35.9964652 56.1430459,35.9893955 L56.1430459,35.3319194 L56.5794788,35.3319194 C56.8366033,35.3319194 57.0277522,35.2877346 57.1529312,35.1993637 C57.2781103,35.1109928 57.3779137,34.953695 57.4523445,34.7274655 L57.6553365,34.1866384 L55.4630227,28.3753977 L56.2749907,28.3753977 L58.0613205,33.242842 L59.8273511,28.3753977 L60.6190199,28.3753977 L58.2034149,34.8123012 C58.0477869,35.2435511 57.8532549,35.5493098 57.6198129,35.7295864 C57.3863709,35.909863 57.0565121,36 56.6302268,36 Z M66.7849025,34.3457052 C64.3151539,34.3457052 63.0802981,32.9954182 63.0802981,30.2948038 C63.0802981,28.9444966 63.401699,27.9317814 64.0445102,27.2566278 C64.6873215,26.5814742 65.6143091,26.2439024 66.8255009,26.2439024 C67.9148968,26.2439024 68.7911369,26.5726372 69.4542475,27.2301166 L68.8858699,27.8239661 C68.3310222,27.3008104 67.6408563,27.0392365 66.8153513,27.0392365 C64.8598517,27.0392365 63.8821166,28.1279495 63.8821166,30.3054083 C63.8821166,32.4757973 64.8632349,33.5609756 66.8255009,33.5609756 C67.3397499,33.5609756 67.7558794,33.49028 68.0739018,33.3488865 C68.3919242,33.2074931 68.6828765,33.0095453 68.9467675,32.7550371 L69.5049955,33.3170732 C68.8351185,34.0028313 67.9284299,34.3457052 66.7849025,34.3457052 Z M70.6848866,36 C70.4277621,36 70.2653701,35.9964652 70.1977058,35.9893955 L70.1977058,35.3319194 L70.6341386,35.3319194 C70.8912631,35.3319194 71.082412,35.2877346 71.2075911,35.1993637 C71.3327701,35.1109928 71.4325735,34.953695 71.5070043,34.7274655 L71.7099963,34.1866384 L69.5176825,28.3753977 L70.3296506,28.3753977 L72.1159803,33.242842 L73.8820109,28.3753977 L74.6736798,28.3753977 L72.2580747,34.8123012 C72.1024468,35.2435511 71.9079147,35.5493098 71.6744727,35.7295864 C71.4410307,35.909863 71.111172,36 70.6848866,36 Z M78.8680023,34.2290562 L77.1527198,31.747614 L75.4780356,34.2290562 L74.6457684,34.2290562 L76.7568853,31.1749735 L74.8284612,28.3753977 L75.670878,28.3753977 L77.2136174,30.602333 L78.7259079,28.3753977 L79.5581752,28.3753977 L77.6094518,31.1855779 L79.7307184,34.2290562 L78.8680023,34.2290562 Z M79.8753502,29.107105 L79.8753502,28.3753977 L80.9004599,28.3753977 L81.0324047,26.6150583 L81.6413808,26.4984093 L81.6413808,28.3753977 L83.1841201,28.3753977 L83.1841201,29.107105 L81.6413808,29.107105 L81.6413808,32.6277837 C81.6413808,32.9388492 81.6938198,33.1650753 81.7986996,33.3064687 C81.9035793,33.4478621 82.1353262,33.5185578 82.4939472,33.5185578 L83.1841201,33.5185578 L83.1841201,34.2290562 C83.1299886,34.2361259 82.8593353,34.2396607 82.372152,34.2396607 C81.7767058,34.2396607 81.3791837,34.1212454 81.1795739,33.8844115 C80.9799641,33.6475775 80.8801607,33.2605188 80.8801607,32.7232238 L80.8801607,29.107105 L79.8753502,29.107105 Z M86.404081,34.3457052 C85.8627662,34.3457052 85.4077303,34.2697074 85.0389597,34.1177094 C84.670189,33.9657115 84.3927693,33.7430202 84.2066924,33.4496288 C84.0206154,33.1562375 83.8920551,32.8398744 83.8210076,32.5005302 C83.74996,32.161186 83.7144368,31.7582208 83.7144368,31.2916225 C83.7144368,30.8320938 83.7533432,30.430896 83.8311572,30.088017 C83.9089712,29.7451379 84.0409146,29.4270075 84.2269916,29.1336161 C84.4130685,28.8402248 84.6854134,28.6175335 85.0440345,28.4655355 C85.4026555,28.3135376 85.8458503,28.2375398 86.3736322,28.2375398 C86.6848882,28.2375398 86.9639994,28.2711202 87.2109743,28.3382821 C87.4579491,28.405444 87.6609391,28.4902787 87.8199503,28.592789 C87.9789615,28.6952992 88.1159798,28.8366905 88.2310091,29.0169671 C88.3460385,29.1972437 88.4323093,29.3704481 88.489824,29.5365854 C88.5473387,29.7027226 88.5913198,29.9130422 88.6217688,30.1675504 C88.6522177,30.4220585 88.6708251,30.6447498 88.6775916,30.835631 C88.684358,31.0265121 88.684358,31.2704121 88.6775916,31.5673383 L84.4553576,31.5673383 C84.4756569,32.2530964 84.6228247,32.770942 84.8968653,33.1208908 C85.1709058,33.4708395 85.6733061,33.6458112 86.404081,33.6458112 C86.8235999,33.6458112 87.1636081,33.5963243 87.4241159,33.4973489 C87.6846236,33.3983735 87.946819,33.2499126 88.2107099,33.0519618 L88.6268436,33.6139979 C88.0178645,34.1018052 87.276951,34.3457052 86.404081,34.3457052 Z M86.353333,28.9586426 C85.6902224,28.9586426 85.2216539,29.1177078 84.9476133,29.4358431 C84.6735727,29.7539783 84.5128723,30.2205696 84.4655072,30.835631 L87.9468203,30.835631 C87.9332875,30.5740531 87.9180632,30.3725705 87.9011471,30.2311771 C87.884231,30.0897837 87.8453246,29.9254163 87.7844267,29.73807 C87.7235288,29.5507237 87.6406412,29.4093324 87.5357615,29.3138918 C87.4308818,29.2184513 87.2786393,29.1353839 87.0790294,29.0646872 C86.8794196,28.9939905 86.6375232,28.9586426 86.353333,28.9586426 Z M89.7661363,34.2290562 L89.7661363,28.4178155 L90.3751123,28.3753977 L90.4563091,29.1601273 C90.5713385,28.9197584 90.7997023,28.7182758 91.1414072,28.5556734 C91.4831121,28.3930709 91.9009332,28.3082362 92.3948829,28.3011665 L92.3948829,29.107105 C91.1566254,29.107105 90.5375059,29.7610398 90.5375059,31.068929 L90.5375059,34.2290562 L89.7661363,34.2290562 Z M94.5795845,34.3351007 C93.8488096,34.3351007 93.3379514,34.1831051 93.0469948,33.8791092 C92.7560381,33.5751134 92.6105619,33.1474047 92.6105619,32.5959703 C92.6105619,31.7688188 92.8761405,31.2014862 93.4073056,30.8939555 C93.9384707,30.5864248 94.9178974,30.4326617 96.3456151,30.4326617 L96.6805519,30.4326617 C96.6737855,30.1640142 96.6517949,29.9466251 96.6145795,29.7804878 C96.5773641,29.6143505 96.5063176,29.4676571 96.4014379,29.340403 C96.2965581,29.2131489 96.1443156,29.1230119 95.9447058,29.0699894 C95.745096,29.0169669 95.4862838,28.990456 95.1682614,28.990456 C94.5457494,28.990456 93.9875269,29.1601256 93.4935772,29.4994698 L93.0875932,28.873807 C93.3108855,28.7112046 93.6170621,28.5645111 94.0061321,28.4337222 C94.395202,28.3029332 94.8028736,28.2375398 95.229159,28.2375398 C95.7028094,28.2375398 96.0834156,28.2799572 96.3709891,28.3647932 C96.6585625,28.4496293 96.8801599,28.5945554 97.0357879,28.7995758 C97.1914159,29.0045963 97.2946025,29.2431941 97.3453507,29.5153765 C97.396099,29.7875588 97.4214727,30.149874 97.4214727,30.602333 L97.4214727,32.8080594 C97.4214727,33.1261946 97.4519212,33.3241424 97.5128192,33.4019088 C97.5737171,33.4796752 97.7361091,33.5185578 98,33.5185578 L98,34.2184517 C97.9661678,34.2325911 97.8646728,34.2396607 97.695512,34.2396607 C97.384256,34.2396607 97.1660418,34.1848715 97.0408627,34.0752916 C96.9156837,33.9657117 96.8294129,33.7766008 96.7820479,33.5079533 C96.6061206,33.7907402 96.3473084,33.9992924 96.0056034,34.1336161 C95.6638985,34.2679399 95.1885636,34.3351007 94.5795845,34.3351007 Z M94.6912301,33.6458112 C95.3949393,33.6458112 95.9024143,33.4814438 96.2136702,33.1527041 C96.5249262,32.8239644 96.6805519,32.302584 96.6805519,31.5885472 L96.6805519,31.164369 L96.3862135,31.164369 C95.553942,31.164369 94.9263646,31.2032516 94.5034625,31.281018 C94.0805603,31.3587844 93.7828417,31.4931062 93.6102976,31.6839873 C93.4377535,31.8748684 93.3514828,32.1611858 93.3514828,32.542948 C93.3514828,32.9105709 93.4512862,33.186284 93.650896,33.3700954 C93.8505058,33.5539069 94.1972804,33.6458112 94.6912301,33.6458112 Z" id="by-AppGate"></path>
            </g>
        </g>
    </g>
</svg>