<?xml version="1.0" encoding="UTF-8"?>
<svg width="265px" height="56px" viewBox="0 0 265 56" version="1.1" xmlns="http://www.w3.org/2000/svg" xmlns:xlink="http://www.w3.org/1999/xlink">
    <!-- Generator: Sketch 47.1 (45422) - http://www.bohemiancoding.com/sketch -->
    <title>Group 3</title>
    <desc>Created with Sketch.</desc>
    <defs></defs>
    <g id="Website" stroke="none" stroke-width="1" fill="none" fill-rule="evenodd">
        <g id="01---HOME" transform="translate(-100.000000, -22.000000)">
            <g id="Group-3" transform="translate(100.000000, 22.000000)">
                <g id="Group-2" fill-rule="nonzero">
                    <path d="M28,0 C12.5423729,0 0,12.6101695 0,28 C0,43.4576271 12.5423729,56 28,56 C43.4576271,56 56,43.4576271 56,28 C56,12.6101695 43.4576271,0 28,0 Z M28,51.7966102 C14.9152542,51.7966102 4.27118644,41.1525424 4.27118644,28.0677966 C4.27118644,14.9830508 14.8474576,4.33898305 28,4.33898305 C41.0847458,4.33898305 51.7288136,14.9152542 51.7288136,28.0677966 C51.6610169,41.0847458 41.0847458,51.7966102 28,51.7966102 Z" id="Shape" fill="#00263A"></path>
                    <g id="Group" transform="translate(7.000000, 8.000000)" fill="#942786">
                        <path d="M24.6,17.015 C24.395,16.81 24.0533333,16.81 23.78,17.015 L19.7483333,20.91 L17.9716667,19.1333333 C17.7666667,18.9283333 17.425,18.9283333 17.1516667,19.1333333 L16.4,19.885 C16.195,20.09 16.195,20.4316667 16.4,20.705 L19.27,23.575 L19.3383333,23.6433333 C19.5433333,23.8483333 19.885,23.7116667 20.09,23.575 L25.215,18.45 C25.42,18.245 25.42,17.9033333 25.215,17.63 L24.6,17.015 Z" id="Shape"></path>
                        <path d="M20.6366667,0.205 C9.43,0.205 0.273333333,9.36166667 0.273333333,20.5683333 C0.273333333,31.775 9.43,40.9316667 20.6366667,40.9316667 C31.8433333,40.9316667 41,31.775 41,20.5683333 C41,9.36166667 31.98,0.205 20.6366667,0.205 Z M30.955,21.525 C30.955,26.7866667 27.4016667,30.135 21.32,34.3033333 C21.0466667,34.5083333 20.6366667,34.5083333 20.3633333,34.3033333 C14.2133333,30.2033333 10.7283333,26.855 10.7283333,21.525 C10.7283333,17.2883333 10.7283333,12.3683333 10.7283333,10.7966667 C10.7283333,10.5233333 11.0016667,10.25 11.275,10.25 C14.76,10.1816667 17.0833333,9.29333333 20.4316667,6.42333333 C20.705,6.21833333 21.115,6.21833333 21.2516667,6.42333333 C24.6,9.29333333 26.9233333,10.1816667 30.4083333,10.25 C30.6816667,10.25 30.955,10.5233333 30.955,10.7966667 C30.955,12.3683333 30.955,17.2883333 30.955,21.525 Z" id="Shape"></path>
                    </g>
                </g>
                <g id="Group" transform="translate(66.000000, 13.000000)" fill-rule="nonzero" fill="#00263A">
                    <path d="M0.609183673,9.14516129 C0.609183673,3.38709677 3.72278912,0.880645161 9.07006803,0.880645161 C11.9806122,0.880645161 13.8758503,1.69354839 15.364966,3.18387097 L12.9282313,5.62258065 C11.9806122,4.67419355 10.829932,4.13225806 9.07006803,4.13225806 C5.61802721,4.13225806 4.19659864,5.89354839 4.19659864,9.21290323 C4.19659864,12.4645161 5.41496599,14.2935484 9.07006803,14.2935484 C11.1683673,14.2935484 12.1159864,13.616129 13.1312925,12.6677419 L15.5003401,14.9709677 C14.2142857,16.3258065 12.5221088,17.4774194 8.8670068,17.4774194 C2.84285714,17.4096774 0.609183673,14.4290323 0.609183673,9.14516129 Z" id="Shape"></path>
                    <path d="M16.4479592,11.0419355 C16.4479592,6.90967742 18.2755102,4.67419355 22.8782313,4.67419355 C27.4809524,4.67419355 29.2408163,6.97741935 29.2408163,11.0419355 C29.2408163,15.1064516 27.4809524,17.4096774 22.8782313,17.4096774 C18.2078231,17.4096774 16.4479592,15.1741935 16.4479592,11.0419355 Z M25.8564626,11.1096774 C25.8564626,9.00967742 25.1795918,7.72258065 22.8782313,7.72258065 C20.5091837,7.72258065 19.9,9.00967742 19.9,11.1096774 C19.9,13.2096774 20.5091837,14.4967742 22.8782313,14.4967742 C25.1795918,14.4967742 25.8564626,13.2096774 25.8564626,11.1096774 Z" id="Shape"></path>
                    <path d="M31.1360544,5.1483871 L33.7758503,4.94516129 L34.0465986,6.02903226 C34.5880952,5.28387097 35.8741497,4.67419355 38.3785714,4.67419355 C41.0860544,4.67419355 41.5598639,5.28387097 41.9659864,6.02903226 C42.5751701,5.21612903 43.9289116,4.67419355 46.5010204,4.67419355 C50.2238095,4.67419355 50.7653061,6.70645161 50.7653061,9.75483871 L50.7653061,17.2064516 L47.3132653,17.2064516 L47.3132653,10.4322581 C47.3132653,8.94193548 47.3132653,7.85806452 45.214966,7.85806452 C42.8459184,7.85806452 42.5751701,8.94193548 42.5751701,10.5677419 L42.5751701,17.2064516 L39.1908163,17.2064516 L39.1908163,10.4322581 C39.1908163,8.94193548 39.1231293,7.85806452 37.092517,7.85806452 C34.7234694,7.85806452 34.4527211,8.94193548 34.4527211,10.5677419 L34.4527211,17.2064516 L31.0683673,17.2064516 L31.0683673,5.1483871 L31.1360544,5.1483871 Z" id="Shape"></path>
                    <path d="M53.1343537,5.1483871 L55.7741497,4.94516129 L56.044898,6.02903226 C56.7217687,5.21612903 57.9401361,4.67419355 60.5122449,4.67419355 C64.7088435,4.67419355 65.7241497,7.51935484 65.7241497,11.0419355 C65.7241497,14.5645161 64.6411565,17.4096774 60.3091837,17.4096774 C58.0755102,17.4096774 57.0602041,17.0032258 56.5187075,16.2580645 L56.5187075,20.7967742 L53.1343537,20.7967742 L53.1343537,5.1483871 Z M62.3397959,11.1774194 C62.3397959,9.21290323 61.9336735,7.72258065 59.7,7.72258065 C57.3309524,7.72258065 56.5863946,8.80645161 56.5863946,11.1774194 C56.5863946,13.5483871 57.2632653,14.4967742 59.7,14.4967742 C61.8659864,14.4967742 62.3397959,13.1419355 62.3397959,11.1774194 Z" id="Shape"></path>
                    <path d="M67.7547619,13.4806452 L67.7547619,0.406451613 L71.1391156,0.406451613 L71.1391156,13.0741935 C71.1391156,14.0903226 71.3421769,14.3612903 72.357483,14.3612903 L72.7636054,14.3612903 L72.7636054,17.1387097 C72.4928571,17.2064516 71.8159864,17.2064516 71.1391156,17.2064516 C68.9054422,17.2064516 67.7547619,16.3935484 67.7547619,13.4806452 Z" id="Shape"></path>
                    <path d="M74.9295918,0.677419355 L78.3816327,0.677419355 L78.3816327,3.79354839 L74.9295918,3.79354839 L74.9295918,0.677419355 Z M74.9295918,4.94516129 L78.3139456,4.94516129 L78.3139456,17.2064516 L74.9295918,17.2064516 L74.9295918,4.94516129 Z" id="Shape"></path>
                    <path d="M84.7442177,17.4096774 C80.9537415,17.4096774 80.1414966,15.783871 80.1414966,13.616129 C80.1414966,10.1612903 82.5782313,9.3483871 87.9931973,9.3483871 L88.4670068,9.3483871 C88.4670068,8.26451613 88.1962585,7.65483871 86.0302721,7.65483871 C84.5411565,7.65483871 83.187415,8.19677419 82.5105442,8.67096774 L80.8183673,6.16451613 C81.6982993,5.55483871 83.8642857,4.67419355 86.4363946,4.67419355 C90.8360544,4.67419355 91.7836735,6.09677419 91.7836735,9.5516129 L91.7836735,13.2774194 C91.7836735,14.2258065 91.8513605,14.4290323 92.8666667,14.4290323 L92.8666667,17.2064516 C92.5959184,17.2741935 92.1897959,17.2741935 91.4452381,17.2741935 C90.1591837,17.2741935 89.55,17.0032258 89.0761905,16.0548387 C88.4670068,16.8677419 87.0455782,17.4096774 84.7442177,17.4096774 Z M88.5346939,12.1258065 L88.5346939,11.6516129 L88.2639456,11.6516129 C83.9319728,11.6516129 83.3904762,11.9903226 83.3904762,13.3451613 C83.3904762,14.2258065 83.8642857,14.7 85.4210884,14.7 C87.5870748,14.6322581 88.5346939,13.8870968 88.5346939,12.1258065 Z" id="Shape"></path>
                    <path d="M94.6942177,5.1483871 L97.3340136,4.94516129 L97.6047619,6.02903226 C98.2816327,5.28387097 99.4323129,4.67419355 102.072109,4.67419355 C105.794898,4.67419355 106.471769,6.70645161 106.471769,9.75483871 L106.471769,17.2064516 L103.087415,17.2064516 L103.087415,10.4322581 C103.087415,8.94193548 102.884354,7.85806452 100.853741,7.85806452 C98.4846939,7.85806452 98.0785714,8.94193548 98.0785714,10.5677419 L98.0785714,17.2064516 L94.6942177,17.2064516 L94.6942177,5.1483871 Z" id="Shape"></path>
                    <path d="M108.29932,11.0419355 C108.29932,7.51935484 109.45,4.67419355 114.729592,4.67419355 C116.963265,4.67419355 118.587755,5.41935484 119.738435,6.63870968 L117.369388,8.87419355 C116.827891,8.33225806 116.15102,7.72258065 114.797279,7.72258065 C112.360544,7.72258065 111.819048,9.07741935 111.819048,11.1096774 C111.819048,13.1419355 112.360544,14.4967742 114.864966,14.4967742 C116.015646,14.4967742 116.760204,14.1580645 117.640136,13.2774194 L119.806122,15.3774194 C118.384694,16.7322581 117.166327,17.3419355 114.729592,17.3419355 C109.45,17.4096774 108.29932,14.6322581 108.29932,11.0419355 Z" id="Shape"></path>
                    <path d="M126.710204,17.4096774 C121.430612,17.4096774 120.347619,14.4967742 120.347619,11.0419355 C120.347619,7.58709677 121.498299,4.67419355 126.710204,4.67419355 C132.12517,4.67419355 132.260544,8.26451613 132.192857,12.3967742 L123.664286,12.3967742 C123.867347,13.8870968 124.544218,14.7677419 126.777891,14.7677419 C128.673129,14.7677419 129.688435,14.2935484 130.636054,13.616129 L132.328231,15.8516129 C130.703741,16.9354839 129.146939,17.4096774 126.710204,17.4096774 Z M123.596599,9.89032258 L129.011565,9.89032258 C128.943878,8.46774194 128.673129,7.4516129 126.57483,7.4516129 C124.476531,7.4516129 123.79966,8.4 123.596599,9.89032258 Z" id="Shape"></path>
                    <path d="M140.112245,17.4096774 C137.743197,17.4096774 135.644898,16.8 133.74966,15.6483871 L134.358844,14.7677419 C136.05102,15.8516129 137.946259,16.3935484 140.112245,16.3935484 C141.804422,16.3935484 143.090476,16.1225806 143.970408,15.5129032 C144.782653,14.9709677 145.256463,14.0225806 145.256463,12.8032258 C145.256463,12.3290323 145.188776,11.8548387 144.985714,11.516129 C144.85034,11.1774194 144.647279,10.8387097 144.376531,10.6354839 C144.105782,10.4322581 143.767347,10.2290323 143.361224,10.0935484 C142.955102,9.95806452 142.481293,9.82258065 142.007483,9.68709677 C141.533673,9.5516129 140.992177,9.48387097 140.382993,9.3483871 C140.247619,9.3483871 140.179932,9.3483871 140.112245,9.28064516 C139.3,9.14516129 138.690816,9.00967742 138.284694,8.87419355 C137.878571,8.73870968 137.337075,8.60322581 136.795578,8.4 C136.254082,8.19677419 135.847959,7.92580645 135.577211,7.65483871 C135.306463,7.38387097 135.035714,7.04516129 134.832653,6.57096774 C134.629592,6.09677419 134.561905,5.55483871 134.561905,4.94516129 C134.561905,3.52258065 135.035714,2.43870968 135.915646,1.82903226 C136.863265,1.1516129 138.217007,0.812903226 140.044558,0.812903226 C142.210544,0.812903226 143.970408,1.28709677 145.32415,2.16774194 L144.714966,3.0483871 C143.496599,2.23548387 141.939796,1.76129032 140.044558,1.76129032 C138.555442,1.76129032 137.404762,2.03225806 136.727891,2.50645161 C136.05102,2.98064516 135.644898,3.79354839 135.644898,4.80967742 C135.644898,5.28387097 135.712585,5.62258065 135.847959,5.96129032 C135.983333,6.3 136.186395,6.57096774 136.389456,6.77419355 C136.592517,6.97741935 136.930952,7.18064516 137.404762,7.31612903 C137.878571,7.51935484 138.284694,7.65483871 138.690816,7.72258065 C139.096939,7.79032258 139.638435,7.92580645 140.315306,8.06129032 C140.992177,8.19677419 141.465986,8.26451613 141.736735,8.33225806 C142.007483,8.4 142.413605,8.46774194 142.955102,8.60322581 C143.496599,8.73870968 143.835034,8.87419355 144.105782,9.00967742 C144.376531,9.14516129 144.647279,9.3483871 144.985714,9.5516129 C145.32415,9.75483871 145.527211,10.0258065 145.730272,10.2967742 C145.865646,10.5677419 146.00102,10.9064516 146.136395,11.2451613 C146.271769,11.6516129 146.339456,12.0580645 146.339456,12.5322581 C146.339456,15.8516129 144.241156,17.4096774 140.112245,17.4096774 Z" id="Shape"></path>
                    <path d="M149.25,17.2064516 L149.25,0.338709677 L150.332993,0.338709677 L150.332993,6.90967742 C150.87449,5.62258065 152.295918,5.01290323 154.664966,5.01290323 C155.612585,5.01290323 156.357143,5.1483871 156.966327,5.3516129 C157.57551,5.55483871 157.981633,5.89354839 158.252381,6.36774194 C158.523129,6.84193548 158.72619,7.31612903 158.793878,7.85806452 C158.861565,8.4 158.929252,9.07741935 158.929252,9.89032258 L158.929252,17.1387097 L157.846259,17.1387097 L157.846259,10.0258065 C157.846259,9.3483871 157.846259,8.80645161 157.778571,8.4 C157.710884,7.99354839 157.57551,7.58709677 157.372449,7.18064516 C157.169388,6.77419355 156.830952,6.50322581 156.357143,6.3 C155.883333,6.09677419 155.27415,6.02903226 154.461905,6.02903226 C153.64966,6.02903226 152.972789,6.16451613 152.363605,6.36774194 C151.822109,6.57096774 151.415986,6.90967742 151.077551,7.31612903 C150.806803,7.72258065 150.603741,8.19677419 150.468367,8.67096774 C150.332993,9.14516129 150.332993,9.75483871 150.332993,10.4322581 L150.332993,17.2064516 L149.25,17.2064516 L149.25,17.2064516 Z" id="Shape"></path>
                    <path d="M167.119388,17.4096774 C165.968707,17.4096774 165.021088,17.2741935 164.276531,16.9354839 C163.531973,16.5967742 162.922789,16.1903226 162.584354,15.5806452 C162.178231,14.9709677 161.907483,14.3612903 161.772109,13.683871 C161.636735,13.0064516 161.569048,12.1935484 161.569048,11.2451613 C161.569048,10.2967742 161.636735,9.48387097 161.839796,8.80645161 C161.97517,8.12903226 162.245918,7.4516129 162.652041,6.90967742 C163.058163,6.3 163.59966,5.89354839 164.344218,5.55483871 C165.088776,5.28387097 165.968707,5.08064516 167.051701,5.08064516 C167.728571,5.08064516 168.270068,5.1483871 168.743878,5.28387097 C169.217687,5.41935484 169.62381,5.55483871 169.962245,5.75806452 C170.30068,5.96129032 170.571429,6.23225806 170.77449,6.57096774 C170.977551,6.90967742 171.180612,7.2483871 171.315986,7.58709677 C171.451361,7.92580645 171.519048,8.33225806 171.586735,8.80645161 C171.654422,9.28064516 171.654422,9.75483871 171.722109,10.0935484 C171.722109,10.4322581 171.722109,10.9064516 171.722109,11.516129 L162.584354,11.516129 C162.584354,12.3290323 162.652041,12.9387097 162.787415,13.5483871 C162.922789,14.0903226 163.12585,14.6322581 163.464286,15.1064516 C163.802721,15.5806452 164.276531,15.9193548 164.818027,16.1903226 C165.427211,16.4612903 166.171769,16.5290323 167.051701,16.5290323 C167.931633,16.5290323 168.67619,16.3935484 169.217687,16.1903226 C169.759184,15.9870968 170.30068,15.6483871 170.909864,15.2419355 L171.519048,16.0548387 C170.30068,16.9354839 168.811565,17.4096774 167.119388,17.4096774 Z M166.984014,6.02903226 C165.427211,6.02903226 164.344218,6.43548387 163.667347,7.18064516 C163.058163,7.92580645 162.652041,9.00967742 162.584354,10.4322581 L170.639116,10.4322581 C170.639116,9.95806452 170.571429,9.5516129 170.571429,9.28064516 C170.571429,9.00967742 170.503741,8.67096774 170.436054,8.26451613 C170.368367,7.85806452 170.232993,7.58709677 170.097619,7.31612903 C169.962245,7.11290323 169.759184,6.90967742 169.488435,6.63870968 C169.217687,6.43548387 168.879252,6.23225806 168.473129,6.16451613 C168.067007,6.09677419 167.593197,6.02903226 166.984014,6.02903226 Z" id="Shape"></path>
                    <path d="M174.632653,17.2064516 L174.632653,5.3516129 L175.512585,5.28387097 L175.647959,7.31612903 C175.85102,6.70645161 176.392517,6.16451613 177.069388,5.75806452 C177.813946,5.3516129 178.693878,5.1483871 179.844558,5.1483871 L179.844558,6.23225806 C178.423129,6.23225806 177.407823,6.63870968 176.730952,7.38387097 C176.054082,8.19677419 175.715646,9.21290323 175.715646,10.5677419 L175.715646,17.1387097 L174.632653,17.1387097 L174.632653,17.2064516 Z" id="Shape"></path>
                    <path d="M181.942857,3.59032258 L181.942857,1.49032258 L183.02585,1.49032258 L183.02585,3.59032258 L181.942857,3.59032258 Z M181.942857,17.2064516 L181.942857,5.3516129 L183.02585,5.3516129 L183.02585,17.2064516 L181.942857,17.2064516 Z" id="Shape"></path>
                    <path d="M194.194218,17.2064516 L194.194218,6.36774194 L188.711565,6.36774194 L188.711565,17.2064516 L187.628571,17.2064516 L187.628571,6.36774194 L185.394898,6.36774194 L185.394898,5.3516129 L187.628571,5.3516129 L187.628571,3.92903226 C187.628571,2.77741935 187.89932,1.89677419 188.373129,1.28709677 C188.846939,0.677419355 189.659184,0.338709677 190.877551,0.338709677 L192.095918,0.338709677 L192.095918,1.35483871 L190.945238,1.35483871 C190.132993,1.35483871 189.52381,1.55806452 189.253061,2.03225806 C188.914626,2.50645161 188.779252,3.11612903 188.779252,3.92903226 L188.779252,5.3516129 L194.261905,5.3516129 L194.261905,3.92903226 C194.261905,2.77741935 194.532653,1.89677419 195.006463,1.28709677 C195.480272,0.677419355 196.292517,0.338709677 197.510884,0.338709677 L198.729252,0.338709677 L198.729252,1.35483871 L197.578571,1.35483871 C196.766327,1.35483871 196.157143,1.55806452 195.886395,2.03225806 C195.547959,2.50645161 195.412585,3.11612903 195.412585,3.92903226 L195.412585,5.3516129 L198.729252,5.3516129 L198.729252,6.36774194 L195.412585,6.36774194 L195.412585,17.2064516 L194.194218,17.2064516 Z" id="Shape"></path>
                </g>
                <path d="M72.012,47.14 C71.1719958,47.14 70.5256689,47.0583342 70.073,46.895 C69.6203311,46.7316658 69.2680013,46.4633352 69.016,46.09 L68.82,47.042 L68.064,46.972 L68.064,36.136 L69.128,36.136 L69.128,40.154 C69.3426677,39.7806648 69.683331,39.5100008 70.15,39.342 C70.616669,39.1739992 71.2559959,39.09 72.068,39.09 C73.2813394,39.09 74.1353309,39.4353299 74.63,40.126 C75.1246691,40.8166701 75.372,41.8153268 75.372,43.122 C75.372,44.4286732 75.1200025,45.4249966 74.616,46.111 C74.1119975,46.7970034 73.2440062,47.14 72.012,47.14 Z M71.858,46.188 C72.7633379,46.188 73.3956649,45.9360025 73.755,45.432 C74.1143351,44.9279975 74.294,44.172005 74.294,43.164 C74.294,42.1373282 74.1166684,41.3696692 73.762,40.861 C73.4073316,40.3523308 72.7726712,40.098 71.858,40.098 C70.8686617,40.098 70.1663354,40.3266644 69.751,40.784 C69.3356646,41.2413356 69.128,42.034661 69.128,43.164 C69.128,44.293339 69.3333313,45.0796644 69.744,45.523 C70.1546687,45.9663355 70.8593283,46.188 71.858,46.188 Z M77.2095,49.338 C76.8548316,49.338 76.6308338,49.3333334 76.5375,49.324 L76.5375,48.456 L77.1395,48.456 C77.4941684,48.456 77.7578325,48.3976672 77.9305,48.281 C78.1031675,48.1643327 78.2408328,47.9566682 78.3435,47.658 L78.6235,46.944 L75.5995,39.272 L76.7195,39.272 L79.1835,45.698 L81.6195,39.272 L82.7115,39.272 L79.3795,47.77 C79.1648323,48.3393362 78.8965016,48.7429988 78.5745,48.981 C78.2524984,49.2190012 77.7975029,49.338 77.2095,49.338 Z M91.2165,47.154 C87.8098163,47.154 86.1065,45.3713512 86.1065,41.806 C86.1065,40.0233244 86.5498289,38.6863378 87.4365,37.795 C88.3231711,36.9036622 89.601825,36.458 91.2725,36.458 C92.7751742,36.458 93.9838288,36.8919957 94.8985,37.76 L94.1145,38.544 C93.3491628,37.8533299 92.3971724,37.508 91.2585,37.508 C88.5611532,37.508 87.2125,38.945319 87.2125,41.82 C87.2125,44.6853477 88.5658198,46.118 91.2725,46.118 C91.9818369,46.118 92.5558311,46.0246676 92.9945,45.838 C93.4331689,45.6513324 93.8344982,45.3900017 94.1985,45.054 L94.9685,45.796 C94.0444954,46.7013379 92.7938412,47.154 91.2165,47.154 Z M96.596,49.338 C96.2413316,49.338 96.0173338,49.3333334 95.924,49.324 L95.924,48.456 L96.526,48.456 C96.8806684,48.456 97.1443325,48.3976672 97.317,48.281 C97.4896675,48.1643327 97.6273328,47.9566682 97.73,47.658 L98.01,46.944 L94.986,39.272 L96.106,39.272 L98.57,45.698 L101.006,39.272 L102.098,39.272 L98.766,47.77 C98.5513323,48.3393362 98.2830016,48.7429988 97.961,48.981 C97.6389984,49.2190012 97.1840029,49.338 96.596,49.338 Z M107.8835,47 L105.5175,43.724 L103.2075,47 L102.0595,47 L104.9715,42.968 L102.3115,39.272 L103.4735,39.272 L105.6015,42.212 L107.6875,39.272 L108.8355,39.272 L106.1475,42.982 L109.0735,47 L107.8835,47 Z M109.273,40.238 L109.273,39.272 L110.687,39.272 L110.869,36.948 L111.709,36.794 L111.709,39.272 L113.837,39.272 L113.837,40.238 L111.709,40.238 L111.709,44.886 C111.709,45.2966687 111.781333,45.5953324 111.926,45.782 C112.070667,45.9686676 112.390331,46.062 112.885,46.062 L113.837,46.062 L113.837,47 C113.762333,47.0093334 113.389003,47.014 112.717,47.014 C111.895663,47.014 111.347335,46.8576682 111.072,46.545 C110.796665,46.2323318 110.659,45.7213369 110.659,45.012 L110.659,40.238 L109.273,40.238 Z M118.2785,47.154 C117.53183,47.154 116.904169,47.0536677 116.3955,46.853 C115.886831,46.6523323 115.504168,46.3583353 115.2475,45.971 C114.990832,45.5836647 114.8135,45.1660022 114.7155,44.718 C114.6175,44.2699978 114.5685,43.7380031 114.5685,43.122 C114.5685,42.5153303 114.622166,41.9856689 114.7295,41.533 C114.836834,41.0803311 115.018832,40.6603353 115.2755,40.273 C115.532168,39.8856647 115.907831,39.5916677 116.4025,39.391 C116.897169,39.1903323 117.508496,39.09 118.2365,39.09 C118.665835,39.09 119.050832,39.1343329 119.3915,39.223 C119.732168,39.3116671 120.012166,39.423666 120.2315,39.559 C120.450834,39.694334 120.639833,39.8809988 120.7985,40.119 C120.957167,40.3570012 121.076166,40.5856656 121.1555,40.805 C121.234834,41.0243344 121.2955,41.3019983 121.3375,41.638 C121.3795,41.9740017 121.405167,42.2679987 121.4145,42.52 C121.423833,42.7720013 121.423833,43.093998 121.4145,43.486 L115.5905,43.486 C115.6185,44.3913379 115.821498,45.0749977 116.1995,45.537 C116.577502,45.9990023 117.270495,46.23 118.2785,46.23 C118.85717,46.23 119.326165,46.1646673 119.6855,46.034 C120.044835,45.9033327 120.406498,45.7073346 120.7705,45.446 L121.3445,46.188 C120.504496,46.8320032 119.482506,47.154 118.2785,47.154 Z M118.2085,40.042 C117.293829,40.042 116.647502,40.2519979 116.2695,40.672 C115.891498,41.0920021 115.669834,41.7079959 115.6045,42.52 L120.4065,42.52 C120.387833,42.1746649 120.366833,41.9086676 120.3435,41.722 C120.320167,41.5353324 120.2665,41.3183346 120.1825,41.071 C120.0985,40.8236654 119.984167,40.6370006 119.8395,40.511 C119.694833,40.3849994 119.484835,40.2753338 119.2095,40.182 C118.934165,40.0886662 118.600502,40.042 118.2085,40.042 Z M122.916,47 L122.916,39.328 L123.756,39.272 L123.868,40.308 C124.026667,39.9906651 124.341664,39.7246677 124.813,39.51 C125.284336,39.2953323 125.860663,39.1833334 126.542,39.174 L126.542,40.238 C124.833991,40.238 123.98,41.1013247 123.98,42.828 L123.98,47 L122.916,47 Z M129.5555,47.14 C128.547495,47.14 127.842835,46.9393353 127.4415,46.538 C127.040165,46.1366647 126.8395,45.5720036 126.8395,44.844 C126.8395,43.7519945 127.20583,43.003002 127.9385,42.597 C128.67117,42.190998 130.022157,41.988 131.9915,41.988 L132.4535,41.988 C132.444167,41.6333316 132.413834,41.3463344 132.3625,41.127 C132.311166,40.9076656 132.213167,40.7140008 132.0685,40.546 C131.923833,40.3779992 131.713835,40.2590004 131.4385,40.189 C131.163165,40.1189996 130.806169,40.084 130.3675,40.084 C129.508829,40.084 128.738837,40.3079978 128.0575,40.756 L127.4975,39.93 C127.805502,39.7153323 128.227831,39.5216675 128.7645,39.349 C129.301169,39.1763325 129.863497,39.09 130.4515,39.09 C131.104837,39.09 131.629831,39.1459994 132.0265,39.258 C132.423169,39.3700006 132.728832,39.561332 132.9435,39.832 C133.158168,40.102668 133.3005,40.4176649 133.3705,40.777 C133.4405,41.1363351 133.4755,41.6146637 133.4755,42.212 L133.4755,45.124 C133.4755,45.5440021 133.5175,45.8053328 133.6015,45.908 C133.6855,46.0106672 133.909498,46.062 134.2735,46.062 L134.2735,46.986 C134.226833,47.0046668 134.086835,47.014 133.8535,47.014 C133.424165,47.014 133.123168,46.9416674 132.9505,46.797 C132.777832,46.6523326 132.658834,46.4026684 132.5935,46.048 C132.350832,46.4213352 131.993836,46.6966658 131.5225,46.874 C131.051164,47.0513342 130.395504,47.14 129.5555,47.14 Z M129.7095,46.23 C130.680172,46.23 131.380165,46.0130022 131.8095,45.579 C132.238835,45.1449978 132.4535,44.4566714 132.4535,43.514 L132.4535,42.954 L132.0475,42.954 C130.899494,42.954 130.033836,43.0053328 129.4505,43.108 C128.867164,43.2106672 128.456501,43.3879987 128.2185,43.64 C127.980499,43.8920013 127.8615,44.2699975 127.8615,44.774 C127.8615,45.2593358 127.999165,45.6233321 128.2745,45.866 C128.549835,46.1086679 129.028163,46.23 129.7095,46.23 Z" id="by-AppGate" fill="#883082"></path>
            </g>
        </g>
    </g>
</svg>