<?xml version="1.0" encoding="UTF-8"?>
<svg width="1221px" height="378px" viewBox="0 0 1221 378" version="1.1" xmlns="http://www.w3.org/2000/svg" xmlns:xlink="http://www.w3.org/1999/xlink">
    <!-- Generator: Sketch 47.1 (45422) - http://www.bohemiancoding.com/sketch -->
    <title>Group 13</title>
    <desc>Created with Sketch.</desc>
    <defs></defs>
    <g id="Website" stroke="none" stroke-width="1" fill="none" fill-rule="evenodd">
        <g id="03---PRODUCT" transform="translate(-71.000000, -115.000000)">
            <g id="Group-13" transform="translate(71.000000, 115.000000)">
                <path d="M423.4,193.366 C423.4,195.41801 423.166002,197.379991 422.698,199.252 C422.229998,201.124009 421.447005,202.779993 420.349,204.22 C419.250995,205.660007 417.811009,206.811996 416.029,207.676 C414.246991,208.540004 412.060013,208.972 409.468,208.972 C406.875987,208.972 404.689009,208.540004 402.907,207.676 C401.124991,206.811996 399.685005,205.660007 398.587,204.22 C397.488995,202.779993 396.706002,201.124009 396.238,199.252 C395.769998,197.379991 395.536,195.41801 395.536,193.366 L395.536,169.768 L399.1,169.768 L399.1,192.448 C399.1,193.816007 399.225999,195.273992 399.478,196.822 C399.730001,198.370008 400.224996,199.809993 400.963,201.142 C401.701004,202.474007 402.744993,203.571996 404.095,204.436 C405.445007,205.300004 407.235989,205.732 409.468,205.732 C411.700011,205.732 413.490993,205.300004 414.841,204.436 C416.191007,203.571996 417.234996,202.474007 417.973,201.142 C418.711004,199.809993 419.205999,198.370008 419.458,196.822 C419.710001,195.273992 419.836,193.816007 419.836,192.448 L419.836,169.768 L423.4,169.768 L423.4,193.366 Z M430.9735,190.072 C430.9735,189.603998 430.9555,189.037003 430.9195,188.371 C430.8835,187.704997 430.8565,187.030003 430.8385,186.346 C430.8205,185.661997 430.7935,185.023003 430.7575,184.429 C430.7215,183.834997 430.7035,183.376002 430.7035,183.052 L433.9435,183.052 C433.9795,183.988005 434.0065,184.887996 434.0245,185.752 C434.0425,186.616004 434.0875,187.173999 434.1595,187.426 L434.3215,187.426 C434.969503,186.057993 436.049492,184.879005 437.5615,183.889 C439.073508,182.898995 440.83749,182.404 442.8535,182.404 C444.79751,182.404 446.381494,182.709997 447.6055,183.322 C448.829506,183.934003 449.792496,184.734995 450.4945,185.725 C451.196504,186.715005 451.682499,187.857994 451.9525,189.154 C452.222501,190.450006 452.3575,191.781993 452.3575,193.15 L452.3575,208 L449.1175,208 L449.1175,193.312 C449.1175,192.303995 449.027501,191.323005 448.8475,190.369 C448.667499,189.414995 448.352502,188.560004 447.9025,187.804 C447.452498,187.047996 446.822504,186.445002 446.0125,185.995 C445.202496,185.544998 444.149506,185.32 442.8535,185.32 C441.665494,185.32 440.540505,185.526998 439.4785,185.941 C438.416495,186.355002 437.498504,186.984996 436.7245,187.831 C435.950496,188.677004 435.338502,189.738994 434.8885,191.017 C434.438498,192.295006 434.2135,193.797991 434.2135,195.526 L434.2135,208 L430.9735,208 L430.9735,190.072 Z M481.531,203.626 L481.423,203.626 C480.918997,204.490004 480.289004,205.236997 479.533,205.867 C478.776996,206.497003 477.958004,207.018998 477.076,207.433 C476.193996,207.847002 475.267005,208.152999 474.295,208.351 C473.322995,208.549001 472.369005,208.648 471.433,208.648 C469.52499,208.648 467.761008,208.324003 466.141,207.676 C464.520992,207.027997 463.135006,206.119006 461.983,204.949 C460.830994,203.778994 459.931003,202.393008 459.283,200.791 C458.634997,199.188992 458.311,197.43401 458.311,195.526 C458.311,193.61799 458.634997,191.863008 459.283,190.261 C459.931003,188.658992 460.830994,187.273006 461.983,186.103 C463.135006,184.932994 464.520992,184.024003 466.141,183.376 C467.761008,182.727997 469.52499,182.404 471.433,182.404 C472.369005,182.404 473.322995,182.502999 474.295,182.701 C475.267005,182.899001 476.193996,183.204998 477.076,183.619 C477.958004,184.033002 478.776996,184.554997 479.533,185.185 C480.289004,185.815003 480.918997,186.561996 481.423,187.426 L481.531,187.426 L481.531,167.176 L484.771,167.176 L484.771,208 L481.531,208 L481.531,203.626 Z M481.855,195.526 C481.855,194.121993 481.585003,192.799006 481.045,191.557 C480.504997,190.314994 479.767005,189.235005 478.831,188.317 C477.894995,187.398995 476.797006,186.670003 475.537,186.13 C474.276994,185.589997 472.909007,185.32 471.433,185.32 C469.920992,185.32 468.553006,185.589997 467.329,186.13 C466.104994,186.670003 465.061004,187.398995 464.197,188.317 C463.332996,189.235005 462.676002,190.314994 462.226,191.557 C461.775998,192.799006 461.551,194.121993 461.551,195.526 C461.551,196.930007 461.775998,198.252994 462.226,199.495 C462.676002,200.737006 463.332996,201.816995 464.197,202.735 C465.061004,203.653005 466.104994,204.381997 467.329,204.922 C468.553006,205.462003 469.920992,205.732 471.433,205.732 C472.909007,205.732 474.276994,205.462003 475.537,204.922 C476.797006,204.381997 477.894995,203.653005 478.831,202.735 C479.767005,201.816995 480.504997,200.737006 481.045,199.495 C481.585003,198.252994 481.855,196.930007 481.855,195.526 Z M513.4585,203.302 C512.198494,205.21001 510.641509,206.577996 508.7875,207.406 C506.933491,208.234004 504.890511,208.648 502.6585,208.648 C500.75049,208.648 499.022508,208.324003 497.4745,207.676 C495.926492,207.027997 494.594506,206.119006 493.4785,204.949 C492.362494,203.778994 491.507503,202.393008 490.9135,200.791 C490.319497,199.188992 490.0225,197.41601 490.0225,195.472 C490.0225,193.599991 490.328497,191.872008 490.9405,190.288 C491.552503,188.703992 492.416494,187.327006 493.5325,186.157 C494.648506,184.986994 495.962492,184.069003 497.4745,183.403 C498.986508,182.736997 500.660491,182.404 502.4965,182.404 C504.40451,182.404 506.087493,182.736997 507.5455,183.403 C509.003507,184.069003 510.227495,184.950995 511.2175,186.049 C512.207505,187.147005 512.954497,188.397993 513.4585,189.802 C513.962503,191.206007 514.2145,192.627993 514.2145,194.068 L514.2145,196.336 L493.2625,196.336 C493.2625,197.020003 493.397499,197.892995 493.6675,198.955 C493.937501,200.017005 494.432496,201.051995 495.1525,202.06 C495.872504,203.068005 496.835494,203.931996 498.0415,204.652 C499.247506,205.372004 500.80449,205.732 502.7125,205.732 C504.368508,205.732 505.970492,205.336004 507.5185,204.544 C509.066508,203.751996 510.254496,202.672007 511.0825,201.304 L513.4585,203.302 Z M510.9745,193.42 C510.9745,192.303994 510.749502,191.260005 510.2995,190.288 C509.849498,189.315995 509.237504,188.461004 508.4635,187.723 C507.689496,186.984996 506.771505,186.400002 505.7095,185.968 C504.647495,185.535998 503.522506,185.32 502.3345,185.32 C500.570491,185.32 499.103506,185.679996 497.9335,186.4 C496.763494,187.120004 495.836503,187.947995 495.1525,188.884 C494.468497,189.820005 493.982501,190.728996 493.6945,191.611 C493.406499,192.493004 493.2625,193.095998 493.2625,193.42 L510.9745,193.42 Z M520.168,190.072 C520.168,189.603998 520.15,189.037003 520.114,188.371 C520.078,187.704997 520.051,187.030003 520.033,186.346 C520.015,185.661997 519.988,185.023003 519.952,184.429 C519.916,183.834997 519.898,183.376002 519.898,183.052 L523.138,183.052 C523.174,183.988005 523.201,184.887996 523.219,185.752 C523.237,186.616004 523.282,187.173999 523.354,187.426 C524.182004,185.949993 525.243994,184.744005 526.54,183.808 C527.836006,182.871995 529.419991,182.404 531.292,182.404 C531.616002,182.404 531.930998,182.431 532.237,182.485 C532.543002,182.539 532.857998,182.602 533.182,182.674 L532.804,185.86 C532.371998,185.715999 531.958002,185.644 531.562,185.644 C530.157993,185.644 528.943005,185.868998 527.917,186.319 C526.890995,186.769002 526.045003,187.389996 525.379,188.182 C524.712997,188.974004 524.218002,189.900995 523.894,190.963 C523.569998,192.025005 523.408,193.167994 523.408,194.392 L523.408,208 L520.168,208 L520.168,190.072 Z M536.9215,201.628 C537.605503,202.960007 538.613493,203.976996 539.9455,204.679 C541.277507,205.381004 542.681493,205.732 544.1575,205.732 C544.841503,205.732 545.525497,205.624001 546.2095,205.408 C546.893503,205.191999 547.505497,204.886002 548.0455,204.49 C548.585503,204.093998 549.026498,203.617003 549.3685,203.059 C549.710502,202.500997 549.8815,201.862004 549.8815,201.142 C549.8815,199.989994 549.512504,199.126003 548.7745,198.55 C548.036496,197.973997 547.127505,197.524002 546.0475,197.2 C544.967495,196.875998 543.779506,196.597001 542.4835,196.363 C541.187494,196.128999 539.999505,195.769002 538.9195,195.283 C537.839495,194.796998 536.930504,194.122004 536.1925,193.258 C535.454496,192.393996 535.0855,191.170008 535.0855,189.586 C535.0855,188.361994 535.337497,187.300005 535.8415,186.4 C536.345503,185.499996 537.002496,184.753003 537.8125,184.159 C538.622504,183.564997 539.531495,183.124001 540.5395,182.836 C541.547505,182.547999 542.573495,182.404 543.6175,182.404 C545.66951,182.404 547.442493,182.781996 548.9365,183.538 C550.430507,184.294004 551.591496,185.481992 552.4195,187.102 L549.5035,188.83 C548.891497,187.677994 548.126505,186.805003 547.2085,186.211 C546.290495,185.616997 545.093507,185.32 543.6175,185.32 C543.041497,185.32 542.438503,185.409999 541.8085,185.59 C541.178497,185.770001 540.611503,186.021998 540.1075,186.346 C539.603497,186.670002 539.180502,187.083997 538.8385,187.588 C538.496498,188.092003 538.3255,188.667997 538.3255,189.316 C538.3255,190.432006 538.694496,191.259997 539.4325,191.8 C540.170504,192.340003 541.079495,192.762998 542.1595,193.069 C543.239505,193.375002 544.427494,193.635999 545.7235,193.852 C547.019506,194.068001 548.207495,194.418998 549.2875,194.905 C550.367505,195.391002 551.276496,196.092995 552.0145,197.011 C552.752504,197.929005 553.1215,199.233992 553.1215,200.926 C553.1215,202.222006 552.878502,203.346995 552.3925,204.301 C551.906498,205.255005 551.240504,206.055997 550.3945,206.704 C549.548496,207.352003 548.585505,207.837998 547.5055,208.162 C546.425495,208.486002 545.291506,208.648 544.1035,208.648 C541.943489,208.648 539.972509,208.234004 538.1905,207.406 C536.408491,206.577996 535.031505,205.300009 534.0595,203.572 L536.9215,201.628 Z M570.793,185.968 L563.665,185.968 L563.665,202.222 C563.665,203.338006 563.970997,204.201997 564.583,204.814 C565.195003,205.426003 566.040995,205.732 567.121,205.732 C567.733003,205.732 568.353997,205.651001 568.984,205.489 C569.614003,205.326999 570.216997,205.120001 570.793,204.868 L571.063,207.784 C570.450997,208.000001 569.749004,208.197999 568.957,208.378 C568.164996,208.558001 567.463003,208.648 566.851,208.648 C565.698994,208.648 564.709004,208.477002 563.881,208.135 C563.052996,207.792998 562.387003,207.334003 561.883,206.758 C561.378997,206.181997 561.010001,205.507004 560.776,204.733 C560.541999,203.958996 560.425,203.122005 560.425,202.222 L560.425,185.968 L555.025,185.968 L555.025,183.052 L560.425,183.052 L560.425,175.87 L563.665,175.87 L563.665,183.052 L570.793,183.052 L570.793,185.968 Z M594.6745,197.524 C594.6745,198.748006 594.6835,199.845995 594.7015,200.818 C594.7195,201.790005 594.7465,202.689996 594.7825,203.518 C594.8185,204.346004 594.8635,205.119996 594.9175,205.84 C594.9715,206.560004 595.052499,207.279996 595.1605,208 L592.1365,208 C591.920499,206.775994 591.8125,205.426007 591.8125,203.95 L591.7045,203.95 C590.768495,205.570008 589.607507,206.757996 588.2215,207.514 C586.835493,208.270004 585.080511,208.648 582.9565,208.648 C581.876495,208.648 580.814505,208.513001 579.7705,208.243 C578.726495,207.972999 577.790504,207.541003 576.9625,206.947 C576.134496,206.352997 575.459503,205.588005 574.9375,204.652 C574.415497,203.715995 574.1545,202.582007 574.1545,201.25 C574.1545,199.34199 574.640495,197.830006 575.6125,196.714 C576.584505,195.597994 577.781493,194.761003 579.2035,194.203 C580.625507,193.644997 582.137492,193.285001 583.7395,193.123 C585.341508,192.960999 586.754494,192.88 587.9785,192.88 L591.7585,192.88 L591.7585,191.368 C591.7585,189.207989 591.092507,187.660005 589.7605,186.724 C588.428493,185.787995 586.75451,185.32 584.7385,185.32 C581.858486,185.32 579.320511,186.255991 577.1245,188.128 L575.2345,185.914 C576.422506,184.761994 577.898491,183.889003 579.6625,183.295 C581.426509,182.700997 583.118492,182.404 584.7385,182.404 C587.762515,182.404 590.174491,183.114993 591.9745,184.537 C593.774509,185.959007 594.6745,188.253984 594.6745,191.422 L594.6745,197.524 Z M588.1945,195.472 C586.826493,195.472 585.503506,195.561999 584.2255,195.742 C582.947494,195.922001 581.795505,196.227998 580.7695,196.66 C579.743495,197.092002 578.924503,197.667996 578.3125,198.388 C577.700497,199.108004 577.3945,200.007995 577.3945,201.088 C577.3945,201.844004 577.565498,202.518997 577.9075,203.113 C578.249502,203.707003 578.690497,204.192998 579.2305,204.571 C579.770503,204.949002 580.373497,205.236999 581.0395,205.435 C581.705503,205.633001 582.380497,205.732 583.0645,205.732 C584.792509,205.732 586.214494,205.480003 587.3305,204.976 C588.446506,204.471997 589.337497,203.815004 590.0035,203.005 C590.669503,202.194996 591.128499,201.277005 591.3805,200.251 C591.632501,199.224995 591.7585,198.190005 591.7585,197.146 L591.7585,195.472 L588.1945,195.472 Z M602.032,190.072 C602.032,189.603998 602.014,189.037003 601.978,188.371 C601.942,187.704997 601.915,187.030003 601.897,186.346 C601.879,185.661997 601.852,185.023003 601.816,184.429 C601.78,183.834997 601.762,183.376002 601.762,183.052 L605.002,183.052 C605.038,183.988005 605.065,184.887996 605.083,185.752 C605.101,186.616004 605.146,187.173999 605.218,187.426 L605.38,187.426 C606.028003,186.057993 607.107992,184.879005 608.62,183.889 C610.132008,182.898995 611.89599,182.404 613.912,182.404 C615.85601,182.404 617.439994,182.709997 618.664,183.322 C619.888006,183.934003 620.850996,184.734995 621.553,185.725 C622.255004,186.715005 622.740999,187.857994 623.011,189.154 C623.281001,190.450006 623.416,191.781993 623.416,193.15 L623.416,208 L620.176,208 L620.176,193.312 C620.176,192.303995 620.086001,191.323005 619.906,190.369 C619.725999,189.414995 619.411002,188.560004 618.961,187.804 C618.510998,187.047996 617.881004,186.445002 617.071,185.995 C616.260996,185.544998 615.208006,185.32 613.912,185.32 C612.723994,185.32 611.599005,185.526998 610.537,185.941 C609.474995,186.355002 608.557004,186.984996 607.783,187.831 C607.008996,188.677004 606.397002,189.738994 605.947,191.017 C605.496998,192.295006 605.272,193.797991 605.272,195.526 L605.272,208 L602.032,208 L602.032,190.072 Z M652.5895,203.626 L652.4815,203.626 C651.977497,204.490004 651.347504,205.236997 650.5915,205.867 C649.835496,206.497003 649.016504,207.018998 648.1345,207.433 C647.252496,207.847002 646.325505,208.152999 645.3535,208.351 C644.381495,208.549001 643.427505,208.648 642.4915,208.648 C640.58349,208.648 638.819508,208.324003 637.1995,207.676 C635.579492,207.027997 634.193506,206.119006 633.0415,204.949 C631.889494,203.778994 630.989503,202.393008 630.3415,200.791 C629.693497,199.188992 629.3695,197.43401 629.3695,195.526 C629.3695,193.61799 629.693497,191.863008 630.3415,190.261 C630.989503,188.658992 631.889494,187.273006 633.0415,186.103 C634.193506,184.932994 635.579492,184.024003 637.1995,183.376 C638.819508,182.727997 640.58349,182.404 642.4915,182.404 C643.427505,182.404 644.381495,182.502999 645.3535,182.701 C646.325505,182.899001 647.252496,183.204998 648.1345,183.619 C649.016504,184.033002 649.835496,184.554997 650.5915,185.185 C651.347504,185.815003 651.977497,186.561996 652.4815,187.426 L652.5895,187.426 L652.5895,167.176 L655.8295,167.176 L655.8295,208 L652.5895,208 L652.5895,203.626 Z M652.9135,195.526 C652.9135,194.121993 652.643503,192.799006 652.1035,191.557 C651.563497,190.314994 650.825505,189.235005 649.8895,188.317 C648.953495,187.398995 647.855506,186.670003 646.5955,186.13 C645.335494,185.589997 643.967507,185.32 642.4915,185.32 C640.979492,185.32 639.611506,185.589997 638.3875,186.13 C637.163494,186.670003 636.119504,187.398995 635.2555,188.317 C634.391496,189.235005 633.734502,190.314994 633.2845,191.557 C632.834498,192.799006 632.6095,194.121993 632.6095,195.526 C632.6095,196.930007 632.834498,198.252994 633.2845,199.495 C633.734502,200.737006 634.391496,201.816995 635.2555,202.735 C636.119504,203.653005 637.163494,204.381997 638.3875,204.922 C639.611506,205.462003 640.979492,205.732 642.4915,205.732 C643.967507,205.732 645.335494,205.462003 646.5955,204.922 C647.855506,204.381997 648.953495,203.653005 649.8895,202.735 C650.825505,201.816995 651.563497,200.737006 652.1035,199.495 C652.643503,198.252994 652.9135,196.930007 652.9135,195.526 Z M697.2205,196.876 L702.7285,186.94 L706.4005,186.94 L699.4885,199.144 L708.1825,208.27 L703.3765,208.27 L697.6525,202.114 C696.104492,204.20201 694.403509,205.866994 692.5495,207.109 C690.695491,208.351006 688.436513,208.972 685.7725,208.972 C684.152492,208.972 682.631507,208.711003 681.2095,208.189 C679.787493,207.666997 678.554505,206.920005 677.5105,205.948 C676.466495,204.975995 675.638503,203.806007 675.0265,202.438 C674.414497,201.069993 674.1085,199.540008 674.1085,197.848 C674.1085,196.371993 674.360497,195.076006 674.8645,193.96 C675.368503,192.843994 676.025496,191.854004 676.8355,190.99 C677.645504,190.125996 678.572495,189.343004 679.6165,188.641 C680.660505,187.938996 681.740494,187.246003 682.8565,186.562 C682.316497,185.913997 681.767503,185.239004 681.2095,184.537 C680.651497,183.834996 680.156502,183.106004 679.7245,182.35 C679.292498,181.593996 678.932501,180.811004 678.6445,180.001 C678.356499,179.190996 678.2125,178.354004 678.2125,177.49 C678.2125,176.121993 678.473497,174.898005 678.9955,173.818 C679.517503,172.737995 680.219496,171.829004 681.1015,171.091 C681.983504,170.352996 683.009494,169.786002 684.1795,169.39 C685.349506,168.993998 686.564494,168.796 687.8245,168.796 C688.940506,168.796 690.020495,168.993998 691.0645,169.39 C692.108505,169.786002 693.035496,170.334996 693.8455,171.037 C694.655504,171.739004 695.294498,172.584995 695.7625,173.575 C696.230502,174.565005 696.4645,175.671994 696.4645,176.896 C696.4645,178.264007 696.221502,179.451995 695.7355,180.46 C695.249498,181.468005 694.601504,182.367996 693.7915,183.16 C692.981496,183.952004 692.072505,184.653997 691.0645,185.266 C690.056495,185.878003 689.012505,186.471997 687.9325,187.048 L697.2205,196.876 Z M687.5545,172.036 C685.934492,172.036 684.566506,172.530995 683.4505,173.521 C682.334494,174.511005 681.7765,175.815992 681.7765,177.436 C681.7765,178.084003 681.911499,178.749997 682.1815,179.434 C682.451501,180.118003 682.793498,180.783997 683.2075,181.432 C683.621502,182.080003 684.071498,182.691997 684.5575,183.268 C685.043502,183.844003 685.484498,184.365998 685.8805,184.834 C686.636504,184.437998 687.428496,184.006002 688.2565,183.538 C689.084504,183.069998 689.840497,182.530003 690.5245,181.918 C691.208503,181.305997 691.775498,180.613004 692.2255,179.839 C692.675502,179.064996 692.9005,178.174005 692.9005,177.166 C692.9005,175.653992 692.396505,174.421005 691.3885,173.467 C690.380495,172.512995 689.102508,172.036 687.5545,172.036 Z M684.9085,188.83 C684.044496,189.334003 683.189504,189.873997 682.3435,190.45 C681.497496,191.026003 680.723504,191.664996 680.0215,192.367 C679.319496,193.069004 678.752502,193.860996 678.3205,194.743 C677.888498,195.625004 677.6725,196.623994 677.6725,197.74 C677.6725,198.964006 677.897498,200.061995 678.3475,201.034 C678.797502,202.006005 679.409496,202.842996 680.1835,203.545 C680.957504,204.247004 681.875495,204.786998 682.9375,205.165 C683.999505,205.543002 685.124494,205.732 686.3125,205.732 C687.320505,205.732 688.265496,205.570002 689.1475,205.246 C690.029504,204.921998 690.848496,204.490003 691.6045,203.95 C692.360504,203.409997 693.062497,202.789004 693.7105,202.087 C694.358503,201.384996 694.952497,200.638004 695.4925,199.846 L684.9085,188.83 Z M725.6515,169.768 L749.0335,169.768 L749.0335,173.008 L729.2155,173.008 L729.2155,186.616 L747.7915,186.616 L747.7915,189.856 L729.2155,189.856 L729.2155,204.76 L749.8975,204.76 L749.8975,208 L725.6515,208 L725.6515,169.768 Z M755.473,190.072 C755.473,189.603998 755.455,189.037003 755.419,188.371 C755.383,187.704997 755.356,187.030003 755.338,186.346 C755.32,185.661997 755.293,185.023003 755.257,184.429 C755.221,183.834997 755.203,183.376002 755.203,183.052 L758.443,183.052 C758.479,183.988005 758.506,184.887996 758.524,185.752 C758.542,186.616004 758.587,187.173999 758.659,187.426 L758.821,187.426 C759.469003,186.057993 760.548992,184.879005 762.061,183.889 C763.573008,182.898995 765.33699,182.404 767.353,182.404 C769.29701,182.404 770.880994,182.709997 772.105,183.322 C773.329006,183.934003 774.291996,184.734995 774.994,185.725 C775.696004,186.715005 776.181999,187.857994 776.452,189.154 C776.722001,190.450006 776.857,191.781993 776.857,193.15 L776.857,208 L773.617,208 L773.617,193.312 C773.617,192.303995 773.527001,191.323005 773.347,190.369 C773.166999,189.414995 772.852002,188.560004 772.402,187.804 C771.951998,187.047996 771.322004,186.445002 770.512,185.995 C769.701996,185.544998 768.649006,185.32 767.353,185.32 C766.164994,185.32 765.040005,185.526998 763.978,185.941 C762.915995,186.355002 761.998004,186.984996 761.224,187.831 C760.449996,188.677004 759.838002,189.738994 759.388,191.017 C758.937998,192.295006 758.713,193.797991 758.713,195.526 L758.713,208 L755.473,208 L755.473,190.072 Z M786.0505,185.968 L780.8665,185.968 L780.8665,183.052 L786.0505,183.052 L786.0505,174.898 C786.0505,173.277992 786.293498,171.937005 786.7795,170.875 C787.265502,169.812995 787.868496,168.958003 788.5885,168.31 C789.308504,167.661997 790.109496,167.203001 790.9915,166.933 C791.873504,166.662999 792.710496,166.528 793.5025,166.528 C795.014508,166.528 796.256495,166.743998 797.2285,167.176 L796.5805,169.984 C795.860496,169.623998 794.888506,169.444 793.6645,169.444 C790.748485,169.444 789.2905,171.657978 789.2905,176.086 L789.2905,183.052 L795.1225,183.052 L795.1225,185.968 L789.2905,185.968 L789.2905,208 L786.0505,208 L786.0505,185.968 Z M797.512,195.526 C797.512,193.61799 797.835997,191.863008 798.484,190.261 C799.132003,188.658992 800.031994,187.273006 801.184,186.103 C802.336006,184.932994 803.721992,184.024003 805.342,183.376 C806.962008,182.727997 808.72599,182.404 810.634,182.404 C812.54201,182.404 814.296992,182.727997 815.899,183.376 C817.501008,184.024003 818.886994,184.932994 820.057,186.103 C821.227006,187.273006 822.135997,188.658992 822.784,190.261 C823.432003,191.863008 823.756,193.61799 823.756,195.526 C823.756,197.43401 823.432003,199.188992 822.784,200.791 C822.135997,202.393008 821.227006,203.778994 820.057,204.949 C818.886994,206.119006 817.501008,207.027997 815.899,207.676 C814.296992,208.324003 812.54201,208.648 810.634,208.648 C808.72599,208.648 806.962008,208.324003 805.342,207.676 C803.721992,207.027997 802.336006,206.119006 801.184,204.949 C800.031994,203.778994 799.132003,202.393008 798.484,200.791 C797.835997,199.188992 797.512,197.43401 797.512,195.526 Z M800.752,195.526 C800.752,196.930007 800.976998,198.252994 801.427,199.495 C801.877002,200.737006 802.533996,201.816995 803.398,202.735 C804.262004,203.653005 805.305994,204.381997 806.53,204.922 C807.754006,205.462003 809.121992,205.732 810.634,205.732 C812.146008,205.732 813.513994,205.462003 814.738,204.922 C815.962006,204.381997 817.005996,203.653005 817.87,202.735 C818.734004,201.816995 819.390998,200.737006 819.841,199.495 C820.291002,198.252994 820.516,196.930007 820.516,195.526 C820.516,194.121993 820.291002,192.799006 819.841,191.557 C819.390998,190.314994 818.734004,189.235005 817.87,188.317 C817.005996,187.398995 815.962006,186.670003 814.738,186.13 C813.513994,185.589997 812.146008,185.32 810.634,185.32 C809.121992,185.32 807.754006,185.589997 806.53,186.13 C805.305994,186.670003 804.262004,187.398995 803.398,188.317 C802.533996,189.235005 801.877002,190.314994 801.427,191.557 C800.976998,192.799006 800.752,194.121993 800.752,195.526 Z M829.7095,190.072 C829.7095,189.603998 829.6915,189.037003 829.6555,188.371 C829.6195,187.704997 829.5925,187.030003 829.5745,186.346 C829.5565,185.661997 829.5295,185.023003 829.4935,184.429 C829.4575,183.834997 829.4395,183.376002 829.4395,183.052 L832.6795,183.052 C832.7155,183.988005 832.7425,184.887996 832.7605,185.752 C832.7785,186.616004 832.8235,187.173999 832.8955,187.426 C833.723504,185.949993 834.785494,184.744005 836.0815,183.808 C837.377506,182.871995 838.961491,182.404 840.8335,182.404 C841.157502,182.404 841.472498,182.431 841.7785,182.485 C842.084502,182.539 842.399498,182.602 842.7235,182.674 L842.3455,185.86 C841.913498,185.715999 841.499502,185.644 841.1035,185.644 C839.699493,185.644 838.484505,185.868998 837.4585,186.319 C836.432495,186.769002 835.586503,187.389996 834.9205,188.182 C834.254497,188.974004 833.759502,189.900995 833.4355,190.963 C833.111498,192.025005 832.9495,193.167994 832.9495,194.392 L832.9495,208 L829.7095,208 L829.7095,190.072 Z M866.335,204.328 C865.110994,205.804007 863.725008,206.892996 862.177,207.595 C860.628992,208.297004 858.955009,208.648 857.155,208.648 C855.24699,208.648 853.483008,208.324003 851.863,207.676 C850.242992,207.027997 848.857006,206.119006 847.705,204.949 C846.552994,203.778994 845.653003,202.393008 845.005,200.791 C844.356997,199.188992 844.033,197.43401 844.033,195.526 C844.033,193.61799 844.356997,191.863008 845.005,190.261 C845.653003,188.658992 846.552994,187.273006 847.705,186.103 C848.857006,184.932994 850.242992,184.024003 851.863,183.376 C853.483008,182.727997 855.24699,182.404 857.155,182.404 C858.991009,182.404 860.691992,182.781996 862.258,183.538 C863.824008,184.294004 865.218994,185.355993 866.443,186.724 L863.851,188.668 C862.914995,187.623995 861.889006,186.805003 860.773,186.211 C859.656994,185.616997 858.451006,185.32 857.155,185.32 C855.642992,185.32 854.275006,185.589997 853.051,186.13 C851.826994,186.670003 850.783004,187.398995 849.919,188.317 C849.054996,189.235005 848.398002,190.314994 847.948,191.557 C847.497998,192.799006 847.273,194.121993 847.273,195.526 C847.273,196.930007 847.497998,198.252994 847.948,199.495 C848.398002,200.737006 849.054996,201.816995 849.919,202.735 C850.783004,203.653005 851.826994,204.381997 853.051,204.922 C854.275006,205.462003 855.642992,205.732 857.155,205.732 C858.523007,205.732 859.773994,205.417003 860.908,204.787 C862.042006,204.156997 863.022996,203.320005 863.851,202.276 L866.335,204.328 Z M892.1605,203.302 C890.900494,205.21001 889.343509,206.577996 887.4895,207.406 C885.635491,208.234004 883.592511,208.648 881.3605,208.648 C879.45249,208.648 877.724508,208.324003 876.1765,207.676 C874.628492,207.027997 873.296506,206.119006 872.1805,204.949 C871.064494,203.778994 870.209503,202.393008 869.6155,200.791 C869.021497,199.188992 868.7245,197.41601 868.7245,195.472 C868.7245,193.599991 869.030497,191.872008 869.6425,190.288 C870.254503,188.703992 871.118494,187.327006 872.2345,186.157 C873.350506,184.986994 874.664492,184.069003 876.1765,183.403 C877.688508,182.736997 879.362491,182.404 881.1985,182.404 C883.10651,182.404 884.789493,182.736997 886.2475,183.403 C887.705507,184.069003 888.929495,184.950995 889.9195,186.049 C890.909505,187.147005 891.656497,188.397993 892.1605,189.802 C892.664503,191.206007 892.9165,192.627993 892.9165,194.068 L892.9165,196.336 L871.9645,196.336 C871.9645,197.020003 872.099499,197.892995 872.3695,198.955 C872.639501,200.017005 873.134496,201.051995 873.8545,202.06 C874.574504,203.068005 875.537494,203.931996 876.7435,204.652 C877.949506,205.372004 879.50649,205.732 881.4145,205.732 C883.070508,205.732 884.672492,205.336004 886.2205,204.544 C887.768508,203.751996 888.956496,202.672007 889.7845,201.304 L892.1605,203.302 Z M889.6765,193.42 C889.6765,192.303994 889.451502,191.260005 889.0015,190.288 C888.551498,189.315995 887.939504,188.461004 887.1655,187.723 C886.391496,186.984996 885.473505,186.400002 884.4115,185.968 C883.349495,185.535998 882.224506,185.32 881.0365,185.32 C879.272491,185.32 877.805506,185.679996 876.6355,186.4 C875.465494,187.120004 874.538503,187.947995 873.8545,188.884 C873.170497,189.820005 872.684501,190.728996 872.3965,191.611 C872.108499,192.493004 871.9645,193.095998 871.9645,193.42 L889.6765,193.42 Z M924.2635,169.768 L927.9355,169.768 L944.0275,208 L940.0315,208 L935.8735,197.848 L915.6235,197.848 L911.3035,208 L907.5775,208 L924.2635,169.768 Z M925.9375,173.656 L917.0275,194.608 L934.5775,194.608 L925.9375,173.656 Z M968.233,204.328 C967.008994,205.804007 965.623008,206.892996 964.075,207.595 C962.526992,208.297004 960.853009,208.648 959.053,208.648 C957.14499,208.648 955.381008,208.324003 953.761,207.676 C952.140992,207.027997 950.755006,206.119006 949.603,204.949 C948.450994,203.778994 947.551003,202.393008 946.903,200.791 C946.254997,199.188992 945.931,197.43401 945.931,195.526 C945.931,193.61799 946.254997,191.863008 946.903,190.261 C947.551003,188.658992 948.450994,187.273006 949.603,186.103 C950.755006,184.932994 952.140992,184.024003 953.761,183.376 C955.381008,182.727997 957.14499,182.404 959.053,182.404 C960.889009,182.404 962.589992,182.781996 964.156,183.538 C965.722008,184.294004 967.116994,185.355993 968.341,186.724 L965.749,188.668 C964.812995,187.623995 963.787006,186.805003 962.671,186.211 C961.554994,185.616997 960.349006,185.32 959.053,185.32 C957.540992,185.32 956.173006,185.589997 954.949,186.13 C953.724994,186.670003 952.681004,187.398995 951.817,188.317 C950.952996,189.235005 950.296002,190.314994 949.846,191.557 C949.395998,192.799006 949.171,194.121993 949.171,195.526 C949.171,196.930007 949.395998,198.252994 949.846,199.495 C950.296002,200.737006 950.952996,201.816995 951.817,202.735 C952.681004,203.653005 953.724994,204.381997 954.949,204.922 C956.173006,205.462003 957.540992,205.732 959.053,205.732 C960.421007,205.732 961.671994,205.417003 962.806,204.787 C963.940006,204.156997 964.920996,203.320005 965.749,202.276 L968.233,204.328 Z M992.9245,204.328 C991.700494,205.804007 990.314508,206.892996 988.7665,207.595 C987.218492,208.297004 985.544509,208.648 983.7445,208.648 C981.83649,208.648 980.072508,208.324003 978.4525,207.676 C976.832492,207.027997 975.446506,206.119006 974.2945,204.949 C973.142494,203.778994 972.242503,202.393008 971.5945,200.791 C970.946497,199.188992 970.6225,197.43401 970.6225,195.526 C970.6225,193.61799 970.946497,191.863008 971.5945,190.261 C972.242503,188.658992 973.142494,187.273006 974.2945,186.103 C975.446506,184.932994 976.832492,184.024003 978.4525,183.376 C980.072508,182.727997 981.83649,182.404 983.7445,182.404 C985.580509,182.404 987.281492,182.781996 988.8475,183.538 C990.413508,184.294004 991.808494,185.355993 993.0325,186.724 L990.4405,188.668 C989.504495,187.623995 988.478506,186.805003 987.3625,186.211 C986.246494,185.616997 985.040506,185.32 983.7445,185.32 C982.232492,185.32 980.864506,185.589997 979.6405,186.13 C978.416494,186.670003 977.372504,187.398995 976.5085,188.317 C975.644496,189.235005 974.987502,190.314994 974.5375,191.557 C974.087498,192.799006 973.8625,194.121993 973.8625,195.526 C973.8625,196.930007 974.087498,198.252994 974.5375,199.495 C974.987502,200.737006 975.644496,201.816995 976.5085,202.735 C977.372504,203.653005 978.416494,204.381997 979.6405,204.922 C980.864506,205.462003 982.232492,205.732 983.7445,205.732 C985.112507,205.732 986.363494,205.417003 987.4975,204.787 C988.631506,204.156997 989.612496,203.320005 990.4405,202.276 L992.9245,204.328 Z M1018.75,203.302 C1017.48999,205.21001 1015.93301,206.577996 1014.079,207.406 C1012.22499,208.234004 1010.18201,208.648 1007.95,208.648 C1006.04199,208.648 1004.31401,208.324003 1002.766,207.676 C1001.21799,207.027997 999.886006,206.119006 998.77,204.949 C997.653994,203.778994 996.799003,202.393008 996.205,200.791 C995.610997,199.188992 995.314,197.41601 995.314,195.472 C995.314,193.599991 995.619997,191.872008 996.232,190.288 C996.844003,188.703992 997.707994,187.327006 998.824,186.157 C999.940006,184.986994 1001.25399,184.069003 1002.766,183.403 C1004.27801,182.736997 1005.95199,182.404 1007.788,182.404 C1009.69601,182.404 1011.37899,182.736997 1012.837,183.403 C1014.29501,184.069003 1015.519,184.950995 1016.509,186.049 C1017.499,187.147005 1018.246,188.397993 1018.75,189.802 C1019.254,191.206007 1019.506,192.627993 1019.506,194.068 L1019.506,196.336 L998.554,196.336 C998.554,197.020003 998.688999,197.892995 998.959,198.955 C999.229001,200.017005 999.723996,201.051995 1000.444,202.06 C1001.164,203.068005 1002.12699,203.931996 1003.333,204.652 C1004.53901,205.372004 1006.09599,205.732 1008.004,205.732 C1009.66001,205.732 1011.26199,205.336004 1012.81,204.544 C1014.35801,203.751996 1015.546,202.672007 1016.374,201.304 L1018.75,203.302 Z M1016.266,193.42 C1016.266,192.303994 1016.041,191.260005 1015.591,190.288 C1015.141,189.315995 1014.529,188.461004 1013.755,187.723 C1012.981,186.984996 1012.06301,186.400002 1011.001,185.968 C1009.93899,185.535998 1008.81401,185.32 1007.626,185.32 C1005.86199,185.32 1004.39501,185.679996 1003.225,186.4 C1002.05499,187.120004 1001.128,187.947995 1000.444,188.884 C999.759997,189.820005 999.274001,190.728996 998.986,191.611 C998.697999,192.493004 998.554,193.095998 998.554,193.42 L1016.266,193.42 Z M1025.5135,201.628 C1026.1975,202.960007 1027.20549,203.976996 1028.5375,204.679 C1029.86951,205.381004 1031.27349,205.732 1032.7495,205.732 C1033.4335,205.732 1034.1175,205.624001 1034.8015,205.408 C1035.4855,205.191999 1036.0975,204.886002 1036.6375,204.49 C1037.1775,204.093998 1037.6185,203.617003 1037.9605,203.059 C1038.3025,202.500997 1038.4735,201.862004 1038.4735,201.142 C1038.4735,199.989994 1038.1045,199.126003 1037.3665,198.55 C1036.6285,197.973997 1035.71951,197.524002 1034.6395,197.2 C1033.55949,196.875998 1032.37151,196.597001 1031.0755,196.363 C1029.77949,196.128999 1028.59151,195.769002 1027.5115,195.283 C1026.43149,194.796998 1025.5225,194.122004 1024.7845,193.258 C1024.0465,192.393996 1023.6775,191.170008 1023.6775,189.586 C1023.6775,188.361994 1023.9295,187.300005 1024.4335,186.4 C1024.9375,185.499996 1025.5945,184.753003 1026.4045,184.159 C1027.2145,183.564997 1028.12349,183.124001 1029.1315,182.836 C1030.13951,182.547999 1031.16549,182.404 1032.2095,182.404 C1034.26151,182.404 1036.03449,182.781996 1037.5285,183.538 C1039.02251,184.294004 1040.1835,185.481992 1041.0115,187.102 L1038.0955,188.83 C1037.4835,187.677994 1036.7185,186.805003 1035.8005,186.211 C1034.8825,185.616997 1033.68551,185.32 1032.2095,185.32 C1031.6335,185.32 1031.0305,185.409999 1030.4005,185.59 C1029.7705,185.770001 1029.2035,186.021998 1028.6995,186.346 C1028.1955,186.670002 1027.7725,187.083997 1027.4305,187.588 C1027.0885,188.092003 1026.9175,188.667997 1026.9175,189.316 C1026.9175,190.432006 1027.2865,191.259997 1028.0245,191.8 C1028.7625,192.340003 1029.67149,192.762998 1030.7515,193.069 C1031.83151,193.375002 1033.01949,193.635999 1034.3155,193.852 C1035.61151,194.068001 1036.79949,194.418998 1037.8795,194.905 C1038.95951,195.391002 1039.8685,196.092995 1040.6065,197.011 C1041.3445,197.929005 1041.7135,199.233992 1041.7135,200.926 C1041.7135,202.222006 1041.4705,203.346995 1040.9845,204.301 C1040.4985,205.255005 1039.8325,206.055997 1038.9865,206.704 C1038.1405,207.352003 1037.17751,207.837998 1036.0975,208.162 C1035.01749,208.486002 1033.88351,208.648 1032.6955,208.648 C1030.53549,208.648 1028.56451,208.234004 1026.7825,207.406 C1025.00049,206.577996 1023.6235,205.300009 1022.6515,203.572 L1025.5135,201.628 Z M1047.235,201.628 C1047.919,202.960007 1048.92699,203.976996 1050.259,204.679 C1051.59101,205.381004 1052.99499,205.732 1054.471,205.732 C1055.155,205.732 1055.839,205.624001 1056.523,205.408 C1057.207,205.191999 1057.819,204.886002 1058.359,204.49 C1058.899,204.093998 1059.34,203.617003 1059.682,203.059 C1060.024,202.500997 1060.195,201.862004 1060.195,201.142 C1060.195,199.989994 1059.826,199.126003 1059.088,198.55 C1058.35,197.973997 1057.44101,197.524002 1056.361,197.2 C1055.28099,196.875998 1054.09301,196.597001 1052.797,196.363 C1051.50099,196.128999 1050.31301,195.769002 1049.233,195.283 C1048.15299,194.796998 1047.244,194.122004 1046.506,193.258 C1045.768,192.393996 1045.399,191.170008 1045.399,189.586 C1045.399,188.361994 1045.651,187.300005 1046.155,186.4 C1046.659,185.499996 1047.316,184.753003 1048.126,184.159 C1048.936,183.564997 1049.84499,183.124001 1050.853,182.836 C1051.86101,182.547999 1052.88699,182.404 1053.931,182.404 C1055.98301,182.404 1057.75599,182.781996 1059.25,183.538 C1060.74401,184.294004 1061.905,185.481992 1062.733,187.102 L1059.817,188.83 C1059.205,187.677994 1058.44,186.805003 1057.522,186.211 C1056.604,185.616997 1055.40701,185.32 1053.931,185.32 C1053.355,185.32 1052.752,185.409999 1052.122,185.59 C1051.492,185.770001 1050.925,186.021998 1050.421,186.346 C1049.917,186.670002 1049.494,187.083997 1049.152,187.588 C1048.81,188.092003 1048.639,188.667997 1048.639,189.316 C1048.639,190.432006 1049.008,191.259997 1049.746,191.8 C1050.484,192.340003 1051.39299,192.762998 1052.473,193.069 C1053.55301,193.375002 1054.74099,193.635999 1056.037,193.852 C1057.33301,194.068001 1058.52099,194.418998 1059.601,194.905 C1060.68101,195.391002 1061.59,196.092995 1062.328,197.011 C1063.066,197.929005 1063.435,199.233992 1063.435,200.926 C1063.435,202.222006 1063.192,203.346995 1062.706,204.301 C1062.22,205.255005 1061.554,206.055997 1060.708,206.704 C1059.862,207.352003 1058.89901,207.837998 1057.819,208.162 C1056.73899,208.486002 1055.60501,208.648 1054.417,208.648 C1052.25699,208.648 1050.28601,208.234004 1048.504,207.406 C1046.72199,206.577996 1045.345,205.300009 1044.373,203.572 L1047.235,201.628 Z M1069.4425,183.052 L1072.6825,183.052 L1072.6825,208 L1069.4425,208 L1069.4425,183.052 Z M1068.6325,173.17 C1068.6325,172.485997 1068.8665,171.910002 1069.3345,171.442 C1069.8025,170.973998 1070.3785,170.74 1071.0625,170.74 C1071.7465,170.74 1072.3225,170.973998 1072.7905,171.442 C1073.2585,171.910002 1073.4925,172.485997 1073.4925,173.17 C1073.4925,173.854003 1073.2585,174.429998 1072.7905,174.898 C1072.3225,175.366002 1071.7465,175.6 1071.0625,175.6 C1070.3785,175.6 1069.8025,175.366002 1069.3345,174.898 C1068.8665,174.429998 1068.6325,173.854003 1068.6325,173.17 Z M1079.878,167.176 L1083.118,167.176 L1083.118,187.426 L1083.226,187.426 C1083.73,186.561996 1084.36,185.815003 1085.116,185.185 C1085.872,184.554997 1086.691,184.033002 1087.573,183.619 C1088.455,183.204998 1089.382,182.899001 1090.354,182.701 C1091.326,182.502999 1092.28,182.404 1093.216,182.404 C1095.12401,182.404 1096.87899,182.727997 1098.481,183.376 C1100.08301,184.024003 1101.46899,184.932994 1102.639,186.103 C1103.80901,187.273006 1104.718,188.658992 1105.366,190.261 C1106.014,191.863008 1106.338,193.61799 1106.338,195.526 C1106.338,197.43401 1106.014,199.188992 1105.366,200.791 C1104.718,202.393008 1103.80901,203.778994 1102.639,204.949 C1101.46899,206.119006 1100.08301,207.027997 1098.481,207.676 C1096.87899,208.324003 1095.12401,208.648 1093.216,208.648 C1092.28,208.648 1091.326,208.549001 1090.354,208.351 C1089.382,208.152999 1088.455,207.847002 1087.573,207.433 C1086.691,207.018998 1085.872,206.497003 1085.116,205.867 C1084.36,205.236997 1083.73,204.490004 1083.226,203.626 L1083.118,203.626 L1083.118,208 L1079.878,208 L1079.878,167.176 Z M1082.794,195.526 C1082.794,196.930007 1083.064,198.252994 1083.604,199.495 C1084.144,200.737006 1084.882,201.816995 1085.818,202.735 C1086.754,203.653005 1087.85199,204.381997 1089.112,204.922 C1090.37201,205.462003 1091.73999,205.732 1093.216,205.732 C1094.72801,205.732 1096.09599,205.462003 1097.32,204.922 C1098.54401,204.381997 1099.588,203.653005 1100.452,202.735 C1101.316,201.816995 1101.973,200.737006 1102.423,199.495 C1102.873,198.252994 1103.098,196.930007 1103.098,195.526 C1103.098,194.121993 1102.873,192.799006 1102.423,191.557 C1101.973,190.314994 1101.316,189.235005 1100.452,188.317 C1099.588,187.398995 1098.54401,186.670003 1097.32,186.13 C1096.09599,185.589997 1094.72801,185.32 1093.216,185.32 C1091.73999,185.32 1090.37201,185.589997 1089.112,186.13 C1087.85199,186.670003 1086.754,187.398995 1085.818,188.317 C1084.882,189.235005 1084.144,190.314994 1083.604,191.557 C1083.064,192.799006 1082.794,194.121993 1082.794,195.526 Z M1112.8315,183.052 L1116.0715,183.052 L1116.0715,208 L1112.8315,208 L1112.8315,183.052 Z M1112.0215,173.17 C1112.0215,172.485997 1112.2555,171.910002 1112.7235,171.442 C1113.1915,170.973998 1113.7675,170.74 1114.4515,170.74 C1115.1355,170.74 1115.7115,170.973998 1116.1795,171.442 C1116.6475,171.910002 1116.8815,172.485997 1116.8815,173.17 C1116.8815,173.854003 1116.6475,174.429998 1116.1795,174.898 C1115.7115,175.366002 1115.1355,175.6 1114.4515,175.6 C1113.7675,175.6 1113.1915,175.366002 1112.7235,174.898 C1112.2555,174.429998 1112.0215,173.854003 1112.0215,173.17 Z M1124.509,167.176 L1127.749,167.176 L1127.749,208 L1124.509,208 L1124.509,167.176 Z M1136.2405,183.052 L1139.4805,183.052 L1139.4805,208 L1136.2405,208 L1136.2405,183.052 Z M1135.4305,173.17 C1135.4305,172.485997 1135.6645,171.910002 1136.1325,171.442 C1136.6005,170.973998 1137.1765,170.74 1137.8605,170.74 C1138.5445,170.74 1139.1205,170.973998 1139.5885,171.442 C1140.0565,171.910002 1140.2905,172.485997 1140.2905,173.17 C1140.2905,173.854003 1140.0565,174.429998 1139.5885,174.898 C1139.1205,175.366002 1138.5445,175.6 1137.8605,175.6 C1137.1765,175.6 1136.6005,175.366002 1136.1325,174.898 C1135.6645,174.429998 1135.4305,173.854003 1135.4305,173.17 Z M1159.582,185.968 L1152.454,185.968 L1152.454,202.222 C1152.454,203.338006 1152.76,204.201997 1153.372,204.814 C1153.984,205.426003 1154.82999,205.732 1155.91,205.732 C1156.522,205.732 1157.143,205.651001 1157.773,205.489 C1158.403,205.326999 1159.006,205.120001 1159.582,204.868 L1159.852,207.784 C1159.24,208.000001 1158.538,208.197999 1157.746,208.378 C1156.954,208.558001 1156.252,208.648 1155.64,208.648 C1154.48799,208.648 1153.498,208.477002 1152.67,208.135 C1151.842,207.792998 1151.176,207.334003 1150.672,206.758 C1150.168,206.181997 1149.799,205.507004 1149.565,204.733 C1149.331,203.958996 1149.214,203.122005 1149.214,202.222 L1149.214,185.968 L1143.814,185.968 L1143.814,183.052 L1149.214,183.052 L1149.214,175.87 L1152.454,175.87 L1152.454,183.052 L1159.582,183.052 L1159.582,185.968 Z M1171.0975,215.722 C1170.4855,217.342008 1169.63951,218.619995 1168.5595,219.556 C1167.47949,220.492005 1166.03951,220.96 1164.2395,220.96 C1163.6995,220.96 1163.1595,220.915 1162.6195,220.825 C1162.0795,220.735 1161.5575,220.618001 1161.0535,220.474 L1161.3775,217.45 C1161.8455,217.594001 1162.3225,217.728999 1162.8085,217.855 C1163.2945,217.981001 1163.7895,218.044 1164.2935,218.044 C1164.8695,218.044 1165.3825,217.918001 1165.8325,217.666 C1166.2825,217.413999 1166.6695,217.090002 1166.9935,216.694 C1167.3175,216.297998 1167.5965,215.857002 1167.8305,215.371 C1168.0645,214.884998 1168.2715,214.390003 1168.4515,213.886 L1170.7195,208.108 L1160.5675,183.052 L1164.1855,183.052 L1172.4475,204.058 L1180.4935,183.052 L1183.9495,183.052 L1171.0975,215.722 Z M399.802,249.616 L407.362,249.616 C409.234009,249.616 410.754994,249.382002 411.925,248.914 C413.095006,248.445998 414.003997,247.870003 414.652,247.186 C415.300003,246.501997 415.740999,245.764004 415.975,244.972 C416.209001,244.179996 416.326,243.460003 416.326,242.812 C416.326,242.163997 416.209001,241.444004 415.975,240.652 C415.740999,239.859996 415.300003,239.122003 414.652,238.438 C414.003997,237.753997 413.095006,237.178002 411.925,236.71 C410.754994,236.241998 409.234009,236.008 407.362,236.008 L399.802,236.008 L399.802,249.616 Z M396.238,232.768 L406.282,232.768 C406.786003,232.768 407.469996,232.786 408.334,232.822 C409.198004,232.858 410.133995,232.965999 411.142,233.146 C412.150005,233.326001 413.175995,233.613998 414.22,234.01 C415.264005,234.406002 416.199996,234.981996 417.028,235.738 C417.856004,236.494004 418.539997,237.447994 419.08,238.6 C419.620003,239.752006 419.89,241.155992 419.89,242.812 C419.89,244.648009 419.575003,246.159994 418.945,247.348 C418.314997,248.536006 417.523005,249.498996 416.569,250.237 C415.614995,250.975004 414.562006,251.523998 413.41,251.884 C412.257994,252.244002 411.160005,252.495999 410.116,252.64 L421.24,271 L417.19,271 L406.444,252.856 L399.802,252.856 L399.802,271 L396.238,271 L396.238,232.768 Z M448.0915,266.302 C446.831494,268.21001 445.274509,269.577996 443.4205,270.406 C441.566491,271.234004 439.523511,271.648 437.2915,271.648 C435.38349,271.648 433.655508,271.324003 432.1075,270.676 C430.559492,270.027997 429.227506,269.119006 428.1115,267.949 C426.995494,266.778994 426.140503,265.393008 425.5465,263.791 C424.952497,262.188992 424.6555,260.41601 424.6555,258.472 C424.6555,256.599991 424.961497,254.872008 425.5735,253.288 C426.185503,251.703992 427.049494,250.327006 428.1655,249.157 C429.281506,247.986994 430.595492,247.069003 432.1075,246.403 C433.619508,245.736997 435.293491,245.404 437.1295,245.404 C439.03751,245.404 440.720493,245.736997 442.1785,246.403 C443.636507,247.069003 444.860495,247.950995 445.8505,249.049 C446.840505,250.147005 447.587497,251.397993 448.0915,252.802 C448.595503,254.206007 448.8475,255.627993 448.8475,257.068 L448.8475,259.336 L427.8955,259.336 C427.8955,260.020003 428.030499,260.892995 428.3005,261.955 C428.570501,263.017005 429.065496,264.051995 429.7855,265.06 C430.505504,266.068005 431.468494,266.931996 432.6745,267.652 C433.880506,268.372004 435.43749,268.732 437.3455,268.732 C439.001508,268.732 440.603492,268.336004 442.1515,267.544 C443.699508,266.751996 444.887496,265.672007 445.7155,264.304 L448.0915,266.302 Z M445.6075,256.42 C445.6075,255.303994 445.382502,254.260005 444.9325,253.288 C444.482498,252.315995 443.870504,251.461004 443.0965,250.723 C442.322496,249.984996 441.404505,249.400002 440.3425,248.968 C439.280495,248.535998 438.155506,248.32 436.9675,248.32 C435.203491,248.32 433.736506,248.679996 432.5665,249.4 C431.396494,250.120004 430.469503,250.947995 429.7855,251.884 C429.101497,252.820005 428.615501,253.728996 428.3275,254.611 C428.039499,255.493004 427.8955,256.095998 427.8955,256.42 L445.6075,256.42 Z M479.857,269.38 C479.857,272.476015 479.407005,274.97799 478.507,276.886 C477.606996,278.79401 476.482007,280.269995 475.132,281.314 C473.781993,282.358005 472.333008,283.059998 470.785,283.42 C469.236992,283.780002 467.833006,283.96 466.573,283.96 C465.312994,283.96 464.080006,283.843001 462.874,283.609 C461.667994,283.374999 460.525005,283.033002 459.445,282.583 C458.364995,282.132998 457.384004,281.584003 456.502,280.936 C455.619996,280.287997 454.855003,279.550004 454.207,278.722 L456.745,276.346 C457.897006,277.966008 459.336991,279.153996 461.065,279.91 C462.793009,280.666004 464.62899,281.044 466.573,281.044 C468.229008,281.044 469.623994,280.828002 470.758,280.396 C471.892006,279.963998 472.827996,279.397004 473.566,278.695 C474.304004,277.992996 474.879998,277.219004 475.294,276.373 C475.708002,275.526996 476.013999,274.681004 476.212,273.835 C476.410001,272.988996 476.527,272.188004 476.563,271.432 C476.599,270.675996 476.617,270.064002 476.617,269.596 L476.617,266.14 L476.509,266.14 C475.572995,267.652008 474.304008,268.839996 472.702,269.704 C471.099992,270.568004 469.219011,271 467.059,271 C465.222991,271 463.495008,270.667003 461.875,270.001 C460.254992,269.334997 458.842006,268.417006 457.636,267.247 C456.429994,266.076994 455.476004,264.718008 454.774,263.17 C454.071996,261.621992 453.721,259.966009 453.721,258.202 C453.721,256.437991 454.071996,254.782008 454.774,253.234 C455.476004,251.685992 456.429994,250.336006 457.636,249.184 C458.842006,248.031994 460.254992,247.114003 461.875,246.43 C463.495008,245.745997 465.222991,245.404 467.059,245.404 C469.219011,245.404 471.099992,245.835996 472.702,246.7 C474.304008,247.564004 475.572995,248.751992 476.509,250.264 L476.617,250.264 L476.617,246.052 L479.857,246.052 L479.857,269.38 Z M476.725,258.202 C476.725,256.833993 476.464003,255.547006 475.942,254.341 C475.419997,253.134994 474.718004,252.091004 473.836,251.209 C472.953996,250.326996 471.910006,249.625003 470.704,249.103 C469.497994,248.580997 468.211007,248.32 466.843,248.32 C465.474993,248.32 464.188006,248.580997 462.982,249.103 C461.775994,249.625003 460.732004,250.326996 459.85,251.209 C458.967996,252.091004 458.266003,253.134994 457.744,254.341 C457.221997,255.547006 456.961,256.833993 456.961,258.202 C456.961,259.570007 457.221997,260.856994 457.744,262.063 C458.266003,263.269006 458.967996,264.312996 459.85,265.195 C460.732004,266.077004 461.775994,266.778997 462.982,267.301 C464.188006,267.823003 465.474993,268.084 466.843,268.084 C468.211007,268.084 469.497994,267.823003 470.704,267.301 C471.910006,266.778997 472.953996,266.077004 473.836,265.195 C474.718004,264.312996 475.419997,263.269006 475.942,262.063 C476.464003,260.856994 476.725,259.570007 476.725,258.202 Z M507.6265,263.98 C507.6265,264.448002 507.6445,265.014997 507.6805,265.681 C507.7165,266.347003 507.7435,267.021997 507.7615,267.706 C507.7795,268.390003 507.8065,269.028997 507.8425,269.623 C507.8785,270.217003 507.8965,270.675998 507.8965,271 L504.6565,271 C504.6205,270.063995 504.5935,269.164004 504.5755,268.3 C504.5575,267.435996 504.5125,266.878001 504.4405,266.626 L504.2785,266.626 C503.630497,267.994007 502.550508,269.172995 501.0385,270.163 C499.526492,271.153005 497.76251,271.648 495.7465,271.648 C493.80249,271.648 492.209506,271.342003 490.9675,270.73 C489.725494,270.117997 488.753504,269.317005 488.0515,268.327 C487.349496,267.336995 486.872501,266.194006 486.6205,264.898 C486.368499,263.601994 486.2425,262.270007 486.2425,260.902 L486.2425,246.052 L489.4825,246.052 L489.4825,260.74 C489.4825,261.748005 489.572499,262.728995 489.7525,263.683 C489.932501,264.637005 490.247498,265.491996 490.6975,266.248 C491.147502,267.004004 491.777496,267.606998 492.5875,268.057 C493.397504,268.507002 494.450494,268.732 495.7465,268.732 C496.934506,268.732 498.059495,268.525002 499.1215,268.111 C500.183505,267.696998 501.101496,267.067004 501.8755,266.221 C502.649504,265.374996 503.261498,264.313006 503.7115,263.035 C504.161502,261.756994 504.3865,260.254009 504.3865,258.526 L504.3865,246.052 L507.6265,246.052 L507.6265,263.98 Z M515.794,230.176 L519.034,230.176 L519.034,271 L515.794,271 L515.794,230.176 Z M546.3175,260.524 C546.3175,261.748006 546.3265,262.845995 546.3445,263.818 C546.3625,264.790005 546.3895,265.689996 546.4255,266.518 C546.4615,267.346004 546.5065,268.119996 546.5605,268.84 C546.6145,269.560004 546.695499,270.279996 546.8035,271 L543.7795,271 C543.563499,269.775994 543.4555,268.426007 543.4555,266.95 L543.3475,266.95 C542.411495,268.570008 541.250507,269.757996 539.8645,270.514 C538.478493,271.270004 536.723511,271.648 534.5995,271.648 C533.519495,271.648 532.457505,271.513001 531.4135,271.243 C530.369495,270.972999 529.433504,270.541003 528.6055,269.947 C527.777496,269.352997 527.102503,268.588005 526.5805,267.652 C526.058497,266.715995 525.7975,265.582007 525.7975,264.25 C525.7975,262.34199 526.283495,260.830006 527.2555,259.714 C528.227505,258.597994 529.424493,257.761003 530.8465,257.203 C532.268507,256.644997 533.780492,256.285001 535.3825,256.123 C536.984508,255.960999 538.397494,255.88 539.6215,255.88 L543.4015,255.88 L543.4015,254.368 C543.4015,252.207989 542.735507,250.660005 541.4035,249.724 C540.071493,248.787995 538.39751,248.32 536.3815,248.32 C533.501486,248.32 530.963511,249.255991 528.7675,251.128 L526.8775,248.914 C528.065506,247.761994 529.541491,246.889003 531.3055,246.295 C533.069509,245.700997 534.761492,245.404 536.3815,245.404 C539.405515,245.404 541.817491,246.114993 543.6175,247.537 C545.417509,248.959007 546.3175,251.253984 546.3175,254.422 L546.3175,260.524 Z M539.8375,258.472 C538.469493,258.472 537.146506,258.561999 535.8685,258.742 C534.590494,258.922001 533.438505,259.227998 532.4125,259.66 C531.386495,260.092002 530.567503,260.667996 529.9555,261.388 C529.343497,262.108004 529.0375,263.007995 529.0375,264.088 C529.0375,264.844004 529.208498,265.518997 529.5505,266.113 C529.892502,266.707003 530.333497,267.192998 530.8735,267.571 C531.413503,267.949002 532.016497,268.236999 532.6825,268.435 C533.348503,268.633001 534.023497,268.732 534.7075,268.732 C536.435509,268.732 537.857494,268.480003 538.9735,267.976 C540.089506,267.471997 540.980497,266.815004 541.6465,266.005 C542.312503,265.194996 542.771499,264.277005 543.0235,263.251 C543.275501,262.224995 543.4015,261.190005 543.4015,260.146 L543.4015,258.472 L539.8375,258.472 Z M565.879,248.968 L558.751,248.968 L558.751,265.222 C558.751,266.338006 559.056997,267.201997 559.669,267.814 C560.281003,268.426003 561.126995,268.732 562.207,268.732 C562.819003,268.732 563.439997,268.651001 564.07,268.489 C564.700003,268.326999 565.302997,268.120001 565.879,267.868 L566.149,270.784 C565.536997,271.000001 564.835004,271.197999 564.043,271.378 C563.250996,271.558001 562.549003,271.648 561.937,271.648 C560.784994,271.648 559.795004,271.477002 558.967,271.135 C558.138996,270.792998 557.473003,270.334003 556.969,269.758 C556.464997,269.181997 556.096001,268.507004 555.862,267.733 C555.627999,266.958996 555.511,266.122005 555.511,265.222 L555.511,248.968 L550.111,248.968 L550.111,246.052 L555.511,246.052 L555.511,238.87 L558.751,238.87 L558.751,246.052 L565.879,246.052 L565.879,248.968 Z M570.9685,246.052 L574.2085,246.052 L574.2085,271 L570.9685,271 L570.9685,246.052 Z M570.1585,236.17 C570.1585,235.485997 570.392498,234.910002 570.8605,234.442 C571.328502,233.973998 571.904497,233.74 572.5885,233.74 C573.272503,233.74 573.848498,233.973998 574.3165,234.442 C574.784502,234.910002 575.0185,235.485997 575.0185,236.17 C575.0185,236.854003 574.784502,237.429998 574.3165,237.898 C573.848498,238.366002 573.272503,238.6 572.5885,238.6 C571.904497,238.6 571.328502,238.366002 570.8605,237.898 C570.392498,237.429998 570.1585,236.854003 570.1585,236.17 Z M580.702,258.526 C580.702,256.61799 581.025997,254.863008 581.674,253.261 C582.322003,251.658992 583.221994,250.273006 584.374,249.103 C585.526006,247.932994 586.911992,247.024003 588.532,246.376 C590.152008,245.727997 591.91599,245.404 593.824,245.404 C595.73201,245.404 597.486992,245.727997 599.089,246.376 C600.691008,247.024003 602.076994,247.932994 603.247,249.103 C604.417006,250.273006 605.325997,251.658992 605.974,253.261 C606.622003,254.863008 606.946,256.61799 606.946,258.526 C606.946,260.43401 606.622003,262.188992 605.974,263.791 C605.325997,265.393008 604.417006,266.778994 603.247,267.949 C602.076994,269.119006 600.691008,270.027997 599.089,270.676 C597.486992,271.324003 595.73201,271.648 593.824,271.648 C591.91599,271.648 590.152008,271.324003 588.532,270.676 C586.911992,270.027997 585.526006,269.119006 584.374,267.949 C583.221994,266.778994 582.322003,265.393008 581.674,263.791 C581.025997,262.188992 580.702,260.43401 580.702,258.526 Z M583.942,258.526 C583.942,259.930007 584.166998,261.252994 584.617,262.495 C585.067002,263.737006 585.723996,264.816995 586.588,265.735 C587.452004,266.653005 588.495994,267.381997 589.72,267.922 C590.944006,268.462003 592.311992,268.732 593.824,268.732 C595.336008,268.732 596.703994,268.462003 597.928,267.922 C599.152006,267.381997 600.195996,266.653005 601.06,265.735 C601.924004,264.816995 602.580998,263.737006 603.031,262.495 C603.481002,261.252994 603.706,259.930007 603.706,258.526 C603.706,257.121993 603.481002,255.799006 603.031,254.557 C602.580998,253.314994 601.924004,252.235005 601.06,251.317 C600.195996,250.398995 599.152006,249.670003 597.928,249.13 C596.703994,248.589997 595.336008,248.32 593.824,248.32 C592.311992,248.32 590.944006,248.589997 589.72,249.13 C588.495994,249.670003 587.452004,250.398995 586.588,251.317 C585.723996,252.235005 585.067002,253.314994 584.617,254.557 C584.166998,255.799006 583.942,257.121993 583.942,258.526 Z M612.8995,253.072 C612.8995,252.603998 612.8815,252.037003 612.8455,251.371 C612.8095,250.704997 612.7825,250.030003 612.7645,249.346 C612.7465,248.661997 612.7195,248.023003 612.6835,247.429 C612.6475,246.834997 612.6295,246.376002 612.6295,246.052 L615.8695,246.052 C615.9055,246.988005 615.9325,247.887996 615.9505,248.752 C615.9685,249.616004 616.0135,250.173999 616.0855,250.426 L616.2475,250.426 C616.895503,249.057993 617.975492,247.879005 619.4875,246.889 C620.999508,245.898995 622.76349,245.404 624.7795,245.404 C626.72351,245.404 628.307494,245.709997 629.5315,246.322 C630.755506,246.934003 631.718496,247.734995 632.4205,248.725 C633.122504,249.715005 633.608499,250.857994 633.8785,252.154 C634.148501,253.450006 634.2835,254.781993 634.2835,256.15 L634.2835,271 L631.0435,271 L631.0435,256.312 C631.0435,255.303995 630.953501,254.323005 630.7735,253.369 C630.593499,252.414995 630.278502,251.560004 629.8285,250.804 C629.378498,250.047996 628.748504,249.445002 627.9385,248.995 C627.128496,248.544998 626.075506,248.32 624.7795,248.32 C623.591494,248.32 622.466505,248.526998 621.4045,248.941 C620.342495,249.355002 619.424504,249.984996 618.6505,250.831 C617.876496,251.677004 617.264502,252.738994 616.8145,254.017 C616.364498,255.295006 616.1395,256.797991 616.1395,258.526 L616.1395,271 L612.8995,271 L612.8995,253.072 Z M641.695,264.628 C642.379003,265.960007 643.386993,266.976996 644.719,267.679 C646.051007,268.381004 647.454993,268.732 648.931,268.732 C649.615003,268.732 650.298997,268.624001 650.983,268.408 C651.667003,268.191999 652.278997,267.886002 652.819,267.49 C653.359003,267.093998 653.799998,266.617003 654.142,266.059 C654.484002,265.500997 654.655,264.862004 654.655,264.142 C654.655,262.989994 654.286004,262.126003 653.548,261.55 C652.809996,260.973997 651.901005,260.524002 650.821,260.2 C649.740995,259.875998 648.553006,259.597001 647.257,259.363 C645.960994,259.128999 644.773005,258.769002 643.693,258.283 C642.612995,257.796998 641.704004,257.122004 640.966,256.258 C640.227996,255.393996 639.859,254.170008 639.859,252.586 C639.859,251.361994 640.110997,250.300005 640.615,249.4 C641.119003,248.499996 641.775996,247.753003 642.586,247.159 C643.396004,246.564997 644.304995,246.124001 645.313,245.836 C646.321005,245.547999 647.346995,245.404 648.391,245.404 C650.44301,245.404 652.215993,245.781996 653.71,246.538 C655.204007,247.294004 656.364996,248.481992 657.193,250.102 L654.277,251.83 C653.664997,250.677994 652.900005,249.805003 651.982,249.211 C651.063995,248.616997 649.867007,248.32 648.391,248.32 C647.814997,248.32 647.212003,248.409999 646.582,248.59 C645.951997,248.770001 645.385003,249.021998 644.881,249.346 C644.376997,249.670002 643.954002,250.083997 643.612,250.588 C643.269998,251.092003 643.099,251.667997 643.099,252.316 C643.099,253.432006 643.467996,254.259997 644.206,254.8 C644.944004,255.340003 645.852995,255.762998 646.933,256.069 C648.013005,256.375002 649.200994,256.635999 650.497,256.852 C651.793006,257.068001 652.980995,257.418998 654.061,257.905 C655.141005,258.391002 656.049996,259.092995 656.788,260.011 C657.526004,260.929005 657.895,262.233992 657.895,263.926 C657.895,265.222006 657.652002,266.346995 657.166,267.301 C656.679998,268.255005 656.014004,269.055997 655.168,269.704 C654.321996,270.352003 653.359005,270.837998 652.279,271.162 C651.198995,271.486002 650.065006,271.648 648.877,271.648 C646.716989,271.648 644.746009,271.234004 642.964,270.406 C641.181991,269.577996 639.805005,268.300009 638.833,266.572 L641.695,264.628 Z M663.4705,268.732 C663.4705,268.011996 663.722497,267.400003 664.2265,266.896 C664.730503,266.391997 665.342496,266.14 666.0625,266.14 C666.782504,266.14 667.394497,266.391997 667.8985,266.896 C668.402503,267.400003 668.6545,268.011996 668.6545,268.732 C668.6545,269.452004 668.402503,270.063997 667.8985,270.568 C667.394497,271.072003 666.782504,271.324 666.0625,271.324 C665.342496,271.324 664.730503,271.072003 664.2265,270.568 C663.722497,270.063997 663.4705,269.452004 663.4705,268.732 Z M689.7955,232.768 L713.1775,232.768 L713.1775,236.008 L693.3595,236.008 L693.3595,249.616 L711.9355,249.616 L711.9355,252.856 L693.3595,252.856 L693.3595,267.76 L714.0415,267.76 L714.0415,271 L689.7955,271 L689.7955,232.768 Z M716.107,246.052 L719.779,246.052 L728.095,267.49 L736.195,246.052 L739.489,246.052 L729.661,271 L726.313,271 L716.107,246.052 Z M765.3685,266.302 C764.108494,268.21001 762.551509,269.577996 760.6975,270.406 C758.843491,271.234004 756.800511,271.648 754.5685,271.648 C752.66049,271.648 750.932508,271.324003 749.3845,270.676 C747.836492,270.027997 746.504506,269.119006 745.3885,267.949 C744.272494,266.778994 743.417503,265.393008 742.8235,263.791 C742.229497,262.188992 741.9325,260.41601 741.9325,258.472 C741.9325,256.599991 742.238497,254.872008 742.8505,253.288 C743.462503,251.703992 744.326494,250.327006 745.4425,249.157 C746.558506,247.986994 747.872492,247.069003 749.3845,246.403 C750.896508,245.736997 752.570491,245.404 754.4065,245.404 C756.31451,245.404 757.997493,245.736997 759.4555,246.403 C760.913507,247.069003 762.137495,247.950995 763.1275,249.049 C764.117505,250.147005 764.864497,251.397993 765.3685,252.802 C765.872503,254.206007 766.1245,255.627993 766.1245,257.068 L766.1245,259.336 L745.1725,259.336 C745.1725,260.020003 745.307499,260.892995 745.5775,261.955 C745.847501,263.017005 746.342496,264.051995 747.0625,265.06 C747.782504,266.068005 748.745494,266.931996 749.9515,267.652 C751.157506,268.372004 752.71449,268.732 754.6225,268.732 C756.278508,268.732 757.880492,268.336004 759.4285,267.544 C760.976508,266.751996 762.164496,265.672007 762.9925,264.304 L765.3685,266.302 Z M762.8845,256.42 C762.8845,255.303994 762.659502,254.260005 762.2095,253.288 C761.759498,252.315995 761.147504,251.461004 760.3735,250.723 C759.599496,249.984996 758.681505,249.400002 757.6195,248.968 C756.557495,248.535998 755.432506,248.32 754.2445,248.32 C752.480491,248.32 751.013506,248.679996 749.8435,249.4 C748.673494,250.120004 747.746503,250.947995 747.0625,251.884 C746.378497,252.820005 745.892501,253.728996 745.6045,254.611 C745.316499,255.493004 745.1725,256.095998 745.1725,256.42 L762.8845,256.42 Z M772.078,253.072 C772.078,252.603998 772.06,252.037003 772.024,251.371 C771.988,250.704997 771.961,250.030003 771.943,249.346 C771.925,248.661997 771.898,248.023003 771.862,247.429 C771.826,246.834997 771.808,246.376002 771.808,246.052 L775.048,246.052 C775.084,246.988005 775.111,247.887996 775.129,248.752 C775.147,249.616004 775.192,250.173999 775.264,250.426 C776.092004,248.949993 777.153994,247.744005 778.45,246.808 C779.746006,245.871995 781.329991,245.404 783.202,245.404 C783.526002,245.404 783.840998,245.431 784.147,245.485 C784.453002,245.539 784.767998,245.602 785.092,245.674 L784.714,248.86 C784.281998,248.715999 783.868002,248.644 783.472,248.644 C782.067993,248.644 780.853005,248.868998 779.827,249.319 C778.800995,249.769002 777.955003,250.389996 777.289,251.182 C776.622997,251.974004 776.128002,252.900995 775.804,253.963 C775.479998,255.025005 775.318,256.167994 775.318,257.392 L775.318,271 L772.078,271 L772.078,253.072 Z M795.7975,278.722 C795.185497,280.342008 794.339505,281.619995 793.2595,282.556 C792.179495,283.492005 790.739509,283.96 788.9395,283.96 C788.399497,283.96 787.859503,283.915 787.3195,283.825 C786.779497,283.735 786.257503,283.618001 785.7535,283.474 L786.0775,280.45 C786.545502,280.594001 787.022498,280.728999 787.5085,280.855 C787.994502,280.981001 788.489497,281.044 788.9935,281.044 C789.569503,281.044 790.082498,280.918001 790.5325,280.666 C790.982502,280.413999 791.369498,280.090002 791.6935,279.694 C792.017502,279.297998 792.296499,278.857002 792.5305,278.371 C792.764501,277.884998 792.971499,277.390003 793.1515,276.886 L795.4195,271.108 L785.2675,246.052 L788.8855,246.052 L797.1475,267.058 L805.1935,246.052 L808.6495,246.052 L795.7975,278.722 Z M837.4585,248.968 L830.3305,248.968 L830.3305,265.222 C830.3305,266.338006 830.636497,267.201997 831.2485,267.814 C831.860503,268.426003 832.706495,268.732 833.7865,268.732 C834.398503,268.732 835.019497,268.651001 835.6495,268.489 C836.279503,268.326999 836.882497,268.120001 837.4585,267.868 L837.7285,270.784 C837.116497,271.000001 836.414504,271.197999 835.6225,271.378 C834.830496,271.558001 834.128503,271.648 833.5165,271.648 C832.364494,271.648 831.374504,271.477002 830.5465,271.135 C829.718496,270.792998 829.052503,270.334003 828.5485,269.758 C828.044497,269.181997 827.675501,268.507004 827.4415,267.733 C827.207499,266.958996 827.0905,266.122005 827.0905,265.222 L827.0905,248.968 L821.6905,248.968 L821.6905,246.052 L827.0905,246.052 L827.0905,238.87 L830.3305,238.87 L830.3305,246.052 L837.4585,246.052 L837.4585,248.968 Z M842.548,246.052 L845.788,246.052 L845.788,271 L842.548,271 L842.548,246.052 Z M841.738,236.17 C841.738,235.485997 841.971998,234.910002 842.44,234.442 C842.908002,233.973998 843.483997,233.74 844.168,233.74 C844.852003,233.74 845.427998,233.973998 845.896,234.442 C846.364002,234.910002 846.598,235.485997 846.598,236.17 C846.598,236.854003 846.364002,237.429998 845.896,237.898 C845.427998,238.366002 844.852003,238.6 844.168,238.6 C843.483997,238.6 842.908002,238.366002 842.44,237.898 C841.971998,237.429998 841.738,236.854003 841.738,236.17 Z M853.6855,253.072 C853.6855,252.603998 853.6675,252.037003 853.6315,251.371 C853.5955,250.704997 853.5685,250.030003 853.5505,249.346 C853.5325,248.661997 853.5055,248.023003 853.4695,247.429 C853.4335,246.834997 853.4155,246.376002 853.4155,246.052 L856.6555,246.052 C856.6915,246.988005 856.7185,247.887996 856.7365,248.752 C856.7545,249.616004 856.7995,250.173999 856.8715,250.426 L857.0335,250.426 C857.681503,249.057993 858.761492,247.879005 860.2735,246.889 C861.785508,245.898995 863.54949,245.404 865.5655,245.404 C867.221508,245.404 868.733493,245.826996 870.1015,246.673 C871.469507,247.519004 872.459497,248.89599 873.0715,250.804 C873.863504,248.931991 875.042492,247.564004 876.6085,246.7 C878.174508,245.835996 879.821491,245.404 881.5495,245.404 C883.49351,245.404 885.077494,245.709997 886.3015,246.322 C887.525506,246.934003 888.488496,247.734995 889.1905,248.725 C889.892504,249.715005 890.378499,250.857994 890.6485,252.154 C890.918501,253.450006 891.0535,254.781993 891.0535,256.15 L891.0535,271 L887.8135,271 L887.8135,256.312 C887.8135,255.303995 887.723501,254.323005 887.5435,253.369 C887.363499,252.414995 887.048502,251.560004 886.5985,250.804 C886.148498,250.047996 885.518504,249.445002 884.7085,248.995 C883.898496,248.544998 882.845506,248.32 881.5495,248.32 C880.037492,248.32 878.795505,248.598997 877.8235,249.157 C876.851495,249.715003 876.086503,250.425996 875.5285,251.29 C874.970497,252.154004 874.574501,253.089995 874.3405,254.098 C874.106499,255.106005 873.9895,256.059996 873.9895,256.96 L873.9895,271 L870.7495,271 L870.7495,255.988 C870.7495,253.683988 870.326504,251.830007 869.4805,250.426 C868.634496,249.021993 867.329509,248.32 865.5655,248.32 C864.377494,248.32 863.252505,248.526998 862.1905,248.941 C861.128495,249.355002 860.210504,249.984996 859.4365,250.831 C858.662496,251.677004 858.050502,252.738994 857.6005,254.017 C857.150498,255.295006 856.9255,256.797991 856.9255,258.526 L856.9255,271 L853.6855,271 L853.6855,253.072 Z M920.443,266.302 C919.182994,268.21001 917.626009,269.577996 915.772,270.406 C913.917991,271.234004 911.875011,271.648 909.643,271.648 C907.73499,271.648 906.007008,271.324003 904.459,270.676 C902.910992,270.027997 901.579006,269.119006 900.463,267.949 C899.346994,266.778994 898.492003,265.393008 897.898,263.791 C897.303997,262.188992 897.007,260.41601 897.007,258.472 C897.007,256.599991 897.312997,254.872008 897.925,253.288 C898.537003,251.703992 899.400994,250.327006 900.517,249.157 C901.633006,247.986994 902.946992,247.069003 904.459,246.403 C905.971008,245.736997 907.644991,245.404 909.481,245.404 C911.38901,245.404 913.071993,245.736997 914.53,246.403 C915.988007,247.069003 917.211995,247.950995 918.202,249.049 C919.192005,250.147005 919.938997,251.397993 920.443,252.802 C920.947003,254.206007 921.199,255.627993 921.199,257.068 L921.199,259.336 L900.247,259.336 C900.247,260.020003 900.381999,260.892995 900.652,261.955 C900.922001,263.017005 901.416996,264.051995 902.137,265.06 C902.857004,266.068005 903.819994,266.931996 905.026,267.652 C906.232006,268.372004 907.78899,268.732 909.697,268.732 C911.353008,268.732 912.954992,268.336004 914.503,267.544 C916.051008,266.751996 917.238996,265.672007 918.067,264.304 L920.443,266.302 Z M917.959,256.42 C917.959,255.303994 917.734002,254.260005 917.284,253.288 C916.833998,252.315995 916.222004,251.461004 915.448,250.723 C914.673996,249.984996 913.756005,249.400002 912.694,248.968 C911.631995,248.535998 910.507006,248.32 909.319,248.32 C907.554991,248.32 906.088006,248.679996 904.918,249.4 C903.747994,250.120004 902.821003,250.947995 902.137,251.884 C901.452997,252.820005 900.967001,253.728996 900.679,254.611 C900.390999,255.493004 900.247,256.095998 900.247,256.42 L917.959,256.42 Z M927.2605,268.732 C927.2605,268.011996 927.512497,267.400003 928.0165,266.896 C928.520503,266.391997 929.132496,266.14 929.8525,266.14 C930.572504,266.14 931.184497,266.391997 931.6885,266.896 C932.192503,267.400003 932.4445,268.011996 932.4445,268.732 C932.4445,269.452004 932.192503,270.063997 931.6885,270.568 C931.184497,271.072003 930.572504,271.324 929.8525,271.324 C929.132496,271.324 928.520503,271.072003 928.0165,270.568 C927.512497,270.063997 927.2605,269.452004 927.2605,268.732 Z M953.5855,232.768 L976.9675,232.768 L976.9675,236.008 L957.1495,236.008 L957.1495,249.616 L975.7255,249.616 L975.7255,252.856 L957.1495,252.856 L957.1495,267.76 L977.8315,267.76 L977.8315,271 L953.5855,271 L953.5855,232.768 Z M979.897,246.052 L983.569,246.052 L991.885,267.49 L999.985,246.052 L1003.279,246.052 L993.451,271 L990.103,271 L979.897,246.052 Z M1029.1585,266.302 C1027.89849,268.21001 1026.34151,269.577996 1024.4875,270.406 C1022.63349,271.234004 1020.59051,271.648 1018.3585,271.648 C1016.45049,271.648 1014.72251,271.324003 1013.1745,270.676 C1011.62649,270.027997 1010.29451,269.119006 1009.1785,267.949 C1008.06249,266.778994 1007.2075,265.393008 1006.6135,263.791 C1006.0195,262.188992 1005.7225,260.41601 1005.7225,258.472 C1005.7225,256.599991 1006.0285,254.872008 1006.6405,253.288 C1007.2525,251.703992 1008.11649,250.327006 1009.2325,249.157 C1010.34851,247.986994 1011.66249,247.069003 1013.1745,246.403 C1014.68651,245.736997 1016.36049,245.404 1018.1965,245.404 C1020.10451,245.404 1021.78749,245.736997 1023.2455,246.403 C1024.70351,247.069003 1025.9275,247.950995 1026.9175,249.049 C1027.9075,250.147005 1028.6545,251.397993 1029.1585,252.802 C1029.6625,254.206007 1029.9145,255.627993 1029.9145,257.068 L1029.9145,259.336 L1008.9625,259.336 C1008.9625,260.020003 1009.0975,260.892995 1009.3675,261.955 C1009.6375,263.017005 1010.1325,264.051995 1010.8525,265.06 C1011.5725,266.068005 1012.53549,266.931996 1013.7415,267.652 C1014.94751,268.372004 1016.50449,268.732 1018.4125,268.732 C1020.06851,268.732 1021.67049,268.336004 1023.2185,267.544 C1024.76651,266.751996 1025.9545,265.672007 1026.7825,264.304 L1029.1585,266.302 Z M1026.6745,256.42 C1026.6745,255.303994 1026.4495,254.260005 1025.9995,253.288 C1025.5495,252.315995 1024.9375,251.461004 1024.1635,250.723 C1023.3895,249.984996 1022.47151,249.400002 1021.4095,248.968 C1020.34749,248.535998 1019.22251,248.32 1018.0345,248.32 C1016.27049,248.32 1014.80351,248.679996 1013.6335,249.4 C1012.46349,250.120004 1011.5365,250.947995 1010.8525,251.884 C1010.1685,252.820005 1009.6825,253.728996 1009.3945,254.611 C1009.1065,255.493004 1008.9625,256.095998 1008.9625,256.42 L1026.6745,256.42 Z M1035.868,253.072 C1035.868,252.603998 1035.85,252.037003 1035.814,251.371 C1035.778,250.704997 1035.751,250.030003 1035.733,249.346 C1035.715,248.661997 1035.688,248.023003 1035.652,247.429 C1035.616,246.834997 1035.598,246.376002 1035.598,246.052 L1038.838,246.052 C1038.874,246.988005 1038.901,247.887996 1038.919,248.752 C1038.937,249.616004 1038.982,250.173999 1039.054,250.426 C1039.882,248.949993 1040.94399,247.744005 1042.24,246.808 C1043.53601,245.871995 1045.11999,245.404 1046.992,245.404 C1047.316,245.404 1047.631,245.431 1047.937,245.485 C1048.243,245.539 1048.558,245.602 1048.882,245.674 L1048.504,248.86 C1048.072,248.715999 1047.658,248.644 1047.262,248.644 C1045.85799,248.644 1044.64301,248.868998 1043.617,249.319 C1042.59099,249.769002 1041.745,250.389996 1041.079,251.182 C1040.413,251.974004 1039.918,252.900995 1039.594,253.963 C1039.27,255.025005 1039.108,256.167994 1039.108,257.392 L1039.108,271 L1035.868,271 L1035.868,253.072 Z M1059.5875,278.722 C1058.9755,280.342008 1058.12951,281.619995 1057.0495,282.556 C1055.96949,283.492005 1054.52951,283.96 1052.7295,283.96 C1052.1895,283.96 1051.6495,283.915 1051.1095,283.825 C1050.5695,283.735 1050.0475,283.618001 1049.5435,283.474 L1049.8675,280.45 C1050.3355,280.594001 1050.8125,280.728999 1051.2985,280.855 C1051.7845,280.981001 1052.2795,281.044 1052.7835,281.044 C1053.3595,281.044 1053.8725,280.918001 1054.3225,280.666 C1054.7725,280.413999 1055.1595,280.090002 1055.4835,279.694 C1055.8075,279.297998 1056.0865,278.857002 1056.3205,278.371 C1056.5545,277.884998 1056.7615,277.390003 1056.9415,276.886 L1059.2095,271.108 L1049.0575,246.052 L1052.6755,246.052 L1060.9375,267.058 L1068.9835,246.052 L1072.4395,246.052 L1059.5875,278.722 Z M1072.777,246.052 L1076.341,246.052 L1082.389,266.95 L1082.497,266.95 L1089.463,246.052 L1092.541,246.052 L1099.939,266.95 L1100.047,266.95 L1105.933,246.052 L1109.173,246.052 L1101.829,271 L1098.481,271 L1091.029,250.588 L1090.921,250.588 L1083.955,271 L1080.607,271 L1072.777,246.052 Z M1113.0205,230.176 L1116.2605,230.176 L1116.2605,250.426 L1116.3685,250.426 C1117.0165,249.057993 1118.09649,247.879005 1119.6085,246.889 C1121.12051,245.898995 1122.88449,245.404 1124.9005,245.404 C1126.84451,245.404 1128.42849,245.709997 1129.6525,246.322 C1130.87651,246.934003 1131.8395,247.734995 1132.5415,248.725 C1133.2435,249.715005 1133.7295,250.857994 1133.9995,252.154 C1134.2695,253.450006 1134.4045,254.781993 1134.4045,256.15 L1134.4045,271 L1131.1645,271 L1131.1645,256.312 C1131.1645,255.303995 1131.0745,254.323005 1130.8945,253.369 C1130.7145,252.414995 1130.3995,251.560004 1129.9495,250.804 C1129.4995,250.047996 1128.8695,249.445002 1128.0595,248.995 C1127.2495,248.544998 1126.19651,248.32 1124.9005,248.32 C1123.71249,248.32 1122.58751,248.526998 1121.5255,248.941 C1120.46349,249.355002 1119.5455,249.984996 1118.7715,250.831 C1117.9975,251.677004 1117.3855,252.738994 1116.9355,254.017 C1116.4855,255.295006 1116.2605,256.797991 1116.2605,258.526 L1116.2605,271 L1113.0205,271 L1113.0205,230.176 Z M1163.794,266.302 C1162.53399,268.21001 1160.97701,269.577996 1159.123,270.406 C1157.26899,271.234004 1155.22601,271.648 1152.994,271.648 C1151.08599,271.648 1149.35801,271.324003 1147.81,270.676 C1146.26199,270.027997 1144.93001,269.119006 1143.814,267.949 C1142.69799,266.778994 1141.843,265.393008 1141.249,263.791 C1140.655,262.188992 1140.358,260.41601 1140.358,258.472 C1140.358,256.599991 1140.664,254.872008 1141.276,253.288 C1141.888,251.703992 1142.75199,250.327006 1143.868,249.157 C1144.98401,247.986994 1146.29799,247.069003 1147.81,246.403 C1149.32201,245.736997 1150.99599,245.404 1152.832,245.404 C1154.74001,245.404 1156.42299,245.736997 1157.881,246.403 C1159.33901,247.069003 1160.563,247.950995 1161.553,249.049 C1162.543,250.147005 1163.29,251.397993 1163.794,252.802 C1164.298,254.206007 1164.55,255.627993 1164.55,257.068 L1164.55,259.336 L1143.598,259.336 C1143.598,260.020003 1143.733,260.892995 1144.003,261.955 C1144.273,263.017005 1144.768,264.051995 1145.488,265.06 C1146.208,266.068005 1147.17099,266.931996 1148.377,267.652 C1149.58301,268.372004 1151.13999,268.732 1153.048,268.732 C1154.70401,268.732 1156.30599,268.336004 1157.854,267.544 C1159.40201,266.751996 1160.59,265.672007 1161.418,264.304 L1163.794,266.302 Z M1161.31,256.42 C1161.31,255.303994 1161.085,254.260005 1160.635,253.288 C1160.185,252.315995 1159.573,251.461004 1158.799,250.723 C1158.025,249.984996 1157.10701,249.400002 1156.045,248.968 C1154.98299,248.535998 1153.85801,248.32 1152.67,248.32 C1150.90599,248.32 1149.43901,248.679996 1148.269,249.4 C1147.09899,250.120004 1146.172,250.947995 1145.488,251.884 C1144.804,252.820005 1144.318,253.728996 1144.03,254.611 C1143.742,255.493004 1143.598,256.095998 1143.598,256.42 L1161.31,256.42 Z M1170.5035,253.072 C1170.5035,252.603998 1170.4855,252.037003 1170.4495,251.371 C1170.4135,250.704997 1170.3865,250.030003 1170.3685,249.346 C1170.3505,248.661997 1170.3235,248.023003 1170.2875,247.429 C1170.2515,246.834997 1170.2335,246.376002 1170.2335,246.052 L1173.4735,246.052 C1173.5095,246.988005 1173.5365,247.887996 1173.5545,248.752 C1173.5725,249.616004 1173.6175,250.173999 1173.6895,250.426 C1174.5175,248.949993 1175.57949,247.744005 1176.8755,246.808 C1178.17151,245.871995 1179.75549,245.404 1181.6275,245.404 C1181.9515,245.404 1182.2665,245.431 1182.5725,245.485 C1182.8785,245.539 1183.1935,245.602 1183.5175,245.674 L1183.1395,248.86 C1182.7075,248.715999 1182.2935,248.644 1181.8975,248.644 C1180.49349,248.644 1179.27851,248.868998 1178.2525,249.319 C1177.22649,249.769002 1176.3805,250.389996 1175.7145,251.182 C1175.0485,251.974004 1174.5535,252.900995 1174.2295,253.963 C1173.9055,255.025005 1173.7435,256.167994 1173.7435,257.392 L1173.7435,271 L1170.5035,271 L1170.5035,253.072 Z M1208.263,266.302 C1207.00299,268.21001 1205.44601,269.577996 1203.592,270.406 C1201.73799,271.234004 1199.69501,271.648 1197.463,271.648 C1195.55499,271.648 1193.82701,271.324003 1192.279,270.676 C1190.73099,270.027997 1189.39901,269.119006 1188.283,267.949 C1187.16699,266.778994 1186.312,265.393008 1185.718,263.791 C1185.124,262.188992 1184.827,260.41601 1184.827,258.472 C1184.827,256.599991 1185.133,254.872008 1185.745,253.288 C1186.357,251.703992 1187.22099,250.327006 1188.337,249.157 C1189.45301,247.986994 1190.76699,247.069003 1192.279,246.403 C1193.79101,245.736997 1195.46499,245.404 1197.301,245.404 C1199.20901,245.404 1200.89199,245.736997 1202.35,246.403 C1203.80801,247.069003 1205.032,247.950995 1206.022,249.049 C1207.012,250.147005 1207.759,251.397993 1208.263,252.802 C1208.767,254.206007 1209.019,255.627993 1209.019,257.068 L1209.019,259.336 L1188.067,259.336 C1188.067,260.020003 1188.202,260.892995 1188.472,261.955 C1188.742,263.017005 1189.237,264.051995 1189.957,265.06 C1190.677,266.068005 1191.63999,266.931996 1192.846,267.652 C1194.05201,268.372004 1195.60899,268.732 1197.517,268.732 C1199.17301,268.732 1200.77499,268.336004 1202.323,267.544 C1203.87101,266.751996 1205.059,265.672007 1205.887,264.304 L1208.263,266.302 Z M1205.779,256.42 C1205.779,255.303994 1205.554,254.260005 1205.104,253.288 C1204.654,252.315995 1204.042,251.461004 1203.268,250.723 C1202.494,249.984996 1201.57601,249.400002 1200.514,248.968 C1199.45199,248.535998 1198.32701,248.32 1197.139,248.32 C1195.37499,248.32 1193.90801,248.679996 1192.738,249.4 C1191.56799,250.120004 1190.641,250.947995 1189.957,251.884 C1189.273,252.820005 1188.787,253.728996 1188.499,254.611 C1188.211,255.493004 1188.067,256.095998 1188.067,256.42 L1205.779,256.42 Z M1215.0805,268.732 C1215.0805,268.011996 1215.3325,267.400003 1215.8365,266.896 C1216.3405,266.391997 1216.9525,266.14 1217.6725,266.14 C1218.3925,266.14 1219.0045,266.391997 1219.5085,266.896 C1220.0125,267.400003 1220.2645,268.011996 1220.2645,268.732 C1220.2645,269.452004 1220.0125,270.063997 1219.5085,270.568 C1219.0045,271.072003 1218.3925,271.324 1217.6725,271.324 C1216.9525,271.324 1216.3405,271.072003 1215.8365,270.568 C1215.3325,270.063997 1215.0805,269.452004 1215.0805,268.732 Z" id="Understand-&amp;-Enforce" fill="#00AAEE"></path>
                <g id="Group-12">
                    <circle id="Oval-4" fill="#FFFFFF" cx="187.5" cy="191.5" r="181.5"></circle>
                    <g id="Header-Logo" fill-rule="nonzero">
                        <path d="M188.93617,0 C84.6324249,0 0,85.1186441 0,189 C0,293.338983 84.6324249,378 188.93617,378 C293.239916,378 377.87234,293.338983 377.87234,189 C377.87234,85.1186441 293.239916,0 188.93617,0 Z M188.93617,349.627119 C100.643965,349.627119 28.8207717,277.779661 28.8207717,189.457627 C28.8207717,101.135593 100.186492,29.2881356 188.93617,29.2881356 C277.228376,29.2881356 349.051569,100.677966 349.051569,189.457627 C348.594096,277.322034 277.228376,349.627119 188.93617,349.627119 Z" id="Shape" fill="#00263A"></path>
                        <g id="Group" transform="translate(48.511070, 55.614527)">
                            <path d="M164.716894,113.43416 C163.333611,112.052098 161.02814,112.052098 159.183763,113.43416 L131.979204,139.693348 L119.990754,127.715473 C118.607471,126.33341 116.302,126.33341 114.457623,127.715473 L109.385587,132.783035 C108.002304,134.165098 108.002304,136.468535 109.385587,138.311285 L128.751544,157.66016 L129.212639,158.120848 C130.595921,159.50291 132.901392,158.581535 134.284675,157.66016 L168.866742,123.108598 C170.250025,121.726535 170.250025,119.423098 168.866742,117.580348 L164.716894,113.43416 Z" id="Shape" fill="#00AAEE"></path>
                            <path d="M137.973429,0.105035473 C62.353976,0.105035473 0.567349873,61.8371605 0.567349873,137.38991 C0.567349873,212.94266 62.353976,274.674785 137.973429,274.674785 C213.592882,274.674785 275.379508,212.94266 275.379508,137.38991 C275.379508,61.8371605 214.51507,0.105035473 137.973429,0.105035473 Z M207.598657,143.839535 C207.598657,179.312473 183.621757,201.88616 142.584371,229.988098 C140.739994,231.37016 137.973429,231.37016 136.129052,229.988098 C94.6305718,202.346848 71.1147663,179.77316 71.1147663,143.839535 C71.1147663,115.27691 71.1147663,82.1074105 71.1147663,71.511598 C71.1147663,69.668848 72.9591432,67.826098 74.8035201,67.826098 C98.3193256,67.3654105 113.996529,61.376473 136.590146,42.027598 C138.434523,40.6455355 141.201088,40.6455355 142.123277,42.027598 C164.716894,61.376473 180.394098,67.3654105 203.909903,67.826098 C205.75428,67.826098 207.598657,69.668848 207.598657,71.511598 C207.598657,82.1074105 207.598657,115.27691 207.598657,143.839535 Z" id="Shape" fill="#942786"></path>
                        </g>
                    </g>
                </g>
                <g id="Group" transform="translate(391.000000, 74.000000)" fill-rule="nonzero" fill="#FFFFFF">
                    <path d="M0,31.3795918 C0,10.9102041 11.0818182,2 30.1136364,2 C40.4727273,2 47.2181818,4.88979592 52.5181818,10.1877551 L43.8454545,18.8571429 C40.4727273,15.4857143 36.3772727,13.5591837 30.1136364,13.5591837 C17.8272727,13.5591837 12.7681818,19.8204082 12.7681818,31.6204082 C12.7681818,43.1795918 17.1045455,49.6816327 30.1136364,49.6816327 C37.5818182,49.6816327 40.9545455,47.2734694 44.5681818,43.9020408 L53,52.0897959 C48.4227273,56.9061224 42.4,61 29.3909091,61 C7.95,60.7591837 0,50.1632653 0,31.3795918 Z" id="Shape"></path>
                    <path d="M56,38.5 C56,23.8989362 62.4285714,16 78.6190476,16 C94.8095238,16 101,24.1382979 101,38.5 C101,52.8617021 94.8095238,61 78.6190476,61 C62.1904762,61 56,53.1010638 56,38.5 Z M89.0952381,38.7393617 C89.0952381,31.3191489 86.7142857,26.7712766 78.6190476,26.7712766 C70.2857143,26.7712766 68.1428571,31.3191489 68.1428571,38.7393617 C68.1428571,46.1595745 70.2857143,50.7074468 78.6190476,50.7074468 C86.7142857,50.7074468 89.0952381,46.1595745 89.0952381,38.7393617 Z" id="Shape"></path>
                    <path d="M108.24055,17.7027027 L117.621993,16.972973 L118.584192,20.8648649 C120.508591,18.1891892 125.079038,16 133.979381,16 C143.601375,16 145.285223,18.1891892 146.728522,20.8648649 C148.893471,17.9459459 153.704467,16 162.845361,16 C176.075601,16 178,23.2972973 178,34.2432432 L178,61 L165.731959,61 L165.731959,36.6756757 C165.731959,31.3243243 165.731959,27.4324324 158.274914,27.4324324 C149.85567,27.4324324 148.893471,31.3243243 148.893471,37.1621622 L148.893471,61 L136.865979,61 L136.865979,36.6756757 C136.865979,31.3243243 136.62543,27.4324324 129.408935,27.4324324 C120.989691,27.4324324 120.027491,31.3243243 120.027491,37.1621622 L120.027491,61 L108,61 L108,17.7027027 L108.24055,17.7027027 Z" id="Shape"></path>
                    <path d="M187,17.6764706 L196.435484,16.9579832 L197.403226,20.789916 C199.822581,17.9159664 204.177419,16 213.370968,16 C228.370968,16 232,26.0588235 232,38.512605 C232,50.9663866 228.129032,61.0252101 212.645161,61.0252101 C204.66129,61.0252101 201.032258,59.5882353 199.096774,56.9537815 L199.096774,73 L187,73 L187,17.6764706 Z M219.903226,38.9915966 C219.903226,32.0462185 218.451613,26.7773109 210.467742,26.7773109 C202,26.7773109 199.33871,30.6092437 199.33871,38.9915966 C199.33871,47.3739496 201.758065,50.7268908 210.467742,50.7268908 C218.209677,50.7268908 219.903226,45.9369748 219.903226,38.9915966 Z" id="Shape"></path>
                    <path d="M239,46.6935484 L239,0 L251.162162,0 L251.162162,45.2419355 C251.162162,48.8709677 251.891892,49.8387097 255.540541,49.8387097 L257,49.8387097 L257,59.7580645 C256.027027,60 253.594595,60 251.162162,60 C243.135135,60 239,57.0967742 239,46.6935484 Z" id="Shape"></path>
                    <path d="M264,1 L276,1 L276,12.1229508 L264,12.1229508 L264,1 Z M264,16.2336066 L275.764706,16.2336066 L275.764706,60 L264,60 L264,16.2336066 Z" id="Shape"></path>
                    <path d="M299.276596,61 C285.87234,61 283,55.2553191 283,47.5957447 C283,35.3882979 291.617021,32.5159574 310.765957,32.5159574 L312.441489,32.5159574 C312.441489,28.6861702 311.484043,26.5319149 303.824468,26.5319149 C298.558511,26.5319149 293.771277,28.4468085 291.37766,30.1223404 L285.393617,21.2659574 C288.505319,19.1117021 296.164894,16 305.260638,16 C320.819149,16 324.170213,21.0265957 324.170213,33.2340426 L324.170213,46.3989362 C324.170213,49.75 324.409574,50.4680851 328,50.4680851 L328,60.2819149 C327.042553,60.5212766 325.606383,60.5212766 322.973404,60.5212766 C318.425532,60.5212766 316.271277,59.5638298 314.595745,56.212766 C312.441489,59.0851064 307.414894,61 299.276596,61 Z M312.680851,42.3297872 L312.680851,40.6542553 L311.723404,40.6542553 C296.404255,40.6542553 294.489362,41.8510638 294.489362,46.6382979 C294.489362,49.75 296.164894,51.4255319 301.670213,51.4255319 C309.329787,51.1861702 312.680851,48.5531915 312.680851,42.3297872 Z" id="Shape"></path>
                    <path d="M334,17.7027027 L343.413793,16.972973 L344.37931,20.8648649 C346.793103,18.1891892 350.896552,16 360.310345,16 C373.586207,16 376,23.2972973 376,34.2432432 L376,61 L363.931034,61 L363.931034,36.6756757 C363.931034,31.3243243 363.206897,27.4324324 355.965517,27.4324324 C347.517241,27.4324324 346.068966,31.3243243 346.068966,37.1621622 L346.068966,61 L334,61 L334,17.7027027 Z" id="Shape"></path>
                    <path d="M383,38.6181548 C383,26.1059841 387.1,16 405.911765,16 C413.870588,16 419.658824,18.6468054 423.758824,22.9779414 L415.317647,30.9183574 C413.388235,28.9934081 410.976471,26.8278401 406.152941,26.8278401 C397.470588,26.8278401 395.541176,31.6402134 395.541176,38.8587735 C395.541176,46.0773335 397.470588,50.8897069 406.394118,50.8897069 C410.494118,50.8897069 413.147059,49.6866136 416.282353,46.5585709 L424,54.0177496 C418.935294,58.830123 414.594118,60.995691 405.911765,60.995691 C387.1,61.2363096 383,51.3709442 383,38.6181548 Z" id="Shape"></path>
                    <path d="M447.836158,61 C428.887006,61 425,50.7074468 425,38.5 C425,26.2925532 429.129944,16 447.836158,16 C467.271186,16 467.757062,28.6861702 467.514124,43.287234 L436.903955,43.287234 C437.632768,48.5531915 440.062147,51.6648936 448.079096,51.6648936 C454.881356,51.6648936 458.525424,49.9893617 461.926554,47.5957447 L468,55.4946809 C462.169492,59.3244681 456.581921,61 447.836158,61 Z M436.661017,34.4308511 L456.096045,34.4308511 C455.853107,29.4042553 454.881356,25.8138298 447.350282,25.8138298 C439.819209,25.8138298 437.389831,29.1648936 436.661017,34.4308511 Z" id="Shape"></path>
                    <path d="M495.741935,61 C487.274194,61 479.774194,58.8326531 473,54.7387755 L475.177419,51.6081633 C481.225806,55.4612245 488,57.3877551 495.741935,57.3877551 C501.790323,57.3877551 506.387097,56.4244898 509.532258,54.2571429 C512.435484,52.3306122 514.129032,48.9591837 514.129032,44.6244898 C514.129032,42.9387755 513.887097,41.2530612 513.16129,40.0489796 C512.677419,38.844898 511.951613,37.6408163 510.983871,36.9183673 C510.016129,36.1959184 508.806452,35.4734694 507.354839,34.9918367 C505.903226,34.5102041 504.209677,34.0285714 502.516129,33.5469388 C500.822581,33.0653061 498.887097,32.8244898 496.709677,32.3428571 C496.225806,32.3428571 495.983871,32.3428571 495.741935,32.1020408 C492.83871,31.6204082 490.66129,31.1387755 489.209677,30.6571429 C487.758065,30.1755102 485.822581,29.6938776 483.887097,28.9714286 C481.951613,28.2489796 480.5,27.2857143 479.532258,26.322449 C478.564516,25.3591837 477.596774,24.155102 476.870968,22.4693878 C476.145161,20.7836735 475.903226,18.8571429 475.903226,16.6897959 C475.903226,11.6326531 477.596774,7.77959184 480.741935,5.6122449 C484.129032,3.20408163 488.967742,2 495.5,2 C503.241935,2 509.532258,3.68571429 514.370968,6.81632653 L512.193548,9.94693878 C507.83871,7.05714286 502.274194,5.37142857 495.5,5.37142857 C490.177419,5.37142857 486.064516,6.33469388 483.645161,8.02040816 C481.225806,9.70612245 479.774194,12.5959184 479.774194,16.2081633 C479.774194,17.8938776 480.016129,19.0979592 480.5,20.3020408 C480.983871,21.5061224 481.709677,22.4693878 482.435484,23.1918367 C483.16129,23.9142857 484.370968,24.6367347 486.064516,25.1183673 C487.758065,25.8408163 489.209677,26.322449 490.66129,26.5632653 C492.112903,26.8040816 494.048387,27.2857143 496.467742,27.7673469 C498.887097,28.2489796 500.580645,28.4897959 501.548387,28.7306122 C502.516129,28.9714286 503.967742,29.2122449 505.903226,29.6938776 C507.83871,30.1755102 509.048387,30.6571429 510.016129,31.1387755 C510.983871,31.6204082 511.951613,32.3428571 513.16129,33.0653061 C514.370968,33.7877551 515.096774,34.7510204 515.822581,35.7142857 C516.306452,36.677551 516.790323,37.8816327 517.274194,39.0857143 C517.758065,40.5306122 518,41.9755102 518,43.6612245 C518,55.4612245 510.5,61 495.741935,61 Z" id="Shape"></path>
                    <path d="M528,60 L528,0 L531.804196,0 L531.804196,23.373494 C533.706294,18.7951807 538.699301,16.626506 547.020979,16.626506 C550.34965,16.626506 552.965035,17.1084337 555.104895,17.8313253 C557.244755,18.5542169 558.671329,19.7590361 559.622378,21.4457831 C560.573427,23.1325301 561.286713,24.8192771 561.524476,26.746988 C561.762238,28.6746988 562,31.0843373 562,33.9759036 L562,59.7590361 L558.195804,59.7590361 L558.195804,34.4578313 C558.195804,32.0481928 558.195804,30.1204819 557.958042,28.6746988 C557.72028,27.2289157 557.244755,25.7831325 556.531469,24.3373494 C555.818182,22.8915663 554.629371,21.9277108 552.965035,21.2048193 C551.300699,20.4819277 549.160839,20.2409639 546.307692,20.2409639 C543.454545,20.2409639 541.076923,20.7228916 538.937063,21.4457831 C537.034965,22.1686747 535.608392,23.373494 534.41958,24.8192771 C533.468531,26.2650602 532.755245,27.9518072 532.27972,29.6385542 C531.804196,31.3253012 531.804196,33.4939759 531.804196,35.9036145 L531.804196,60 L528,60 L528,60 Z" id="Shape"></path>
                    <path d="M591.68,61 C587.6,61 584.24,60.5164835 581.6,59.3076923 C578.96,58.0989011 576.8,56.6483516 575.6,54.4725275 C574.16,52.2967033 573.2,50.1208791 572.72,47.7032967 C572.24,45.2857143 572,42.3846154 572,39 C572,35.6153846 572.24,32.7142857 572.96,30.2967033 C573.44,27.8791209 574.4,25.4615385 575.84,23.5274725 C577.28,21.3516484 579.2,19.9010989 581.84,18.6923077 C584.48,17.7252747 587.6,17 591.44,17 C593.84,17 595.76,17.2417582 597.44,17.7252747 C599.12,18.2087912 600.56,18.6923077 601.76,19.4175824 C602.96,20.1428571 603.92,21.1098901 604.64,22.3186813 C605.36,23.5274725 606.08,24.7362637 606.56,25.9450549 C607.04,27.1538462 607.28,28.6043956 607.52,30.2967033 C607.76,31.989011 607.76,33.6813187 608,34.8901099 C608,36.0989011 608,37.7912088 608,39.967033 L575.6,39.967033 C575.6,42.8681319 575.84,45.043956 576.32,47.2197802 C576.8,49.1538462 577.52,51.0879121 578.72,52.7802198 C579.92,54.4725275 581.6,55.6813187 583.52,56.6483516 C585.68,57.6153846 588.32,57.8571429 591.44,57.8571429 C594.56,57.8571429 597.2,57.3736264 599.12,56.6483516 C601.04,55.9230769 602.96,54.7142857 605.12,53.2637363 L607.28,56.1648352 C602.96,59.3076923 597.68,61 591.68,61 Z M591.2,20.3846154 C585.68,20.3846154 581.84,21.8351648 579.44,24.4945055 C577.28,27.1538462 575.84,31.021978 575.6,36.0989011 L604.16,36.0989011 C604.16,34.4065934 603.92,32.956044 603.92,31.989011 C603.92,31.021978 603.68,29.8131868 603.44,28.3626374 C603.2,26.9120879 602.72,25.9450549 602.24,24.978022 C601.76,24.2527473 601.04,23.5274725 600.08,22.5604396 C599.12,21.8351648 597.92,21.1098901 596.48,20.8681319 C595.04,20.6263736 593.36,20.3846154 591.2,20.3846154 Z" id="Shape"></path>
                    <path d="M618,60 L618,17.7247191 L621.207792,17.4831461 L621.701299,24.7303371 C622.441558,22.5561798 624.415584,20.6235955 626.883117,19.1741573 C629.597403,17.7247191 632.805195,17 637,17 L637,20.8651685 C631.818182,20.8651685 628.116883,22.3146067 625.649351,24.9719101 C623.181818,27.8707865 621.948052,31.494382 621.948052,36.3258427 L621.948052,59.758427 L618,59.758427 L618,60 Z" id="Shape"></path>
                    <path d="M644,11.4827586 L644,4 L648,4 L648,11.4827586 L644,11.4827586 Z M644,60 L644,17.7586207 L648,17.7586207 L648,60 L644,60 Z" id="Shape"></path>
                    <path d="M688.015228,60 L688.015228,21.4457831 L668.690355,21.4457831 L668.690355,60 L664.873096,60 L664.873096,21.4457831 L657,21.4457831 L657,17.8313253 L664.873096,17.8313253 L664.873096,12.7710843 C664.873096,8.6746988 665.827411,5.54216867 667.497462,3.37349398 C669.167513,1.20481928 672.030457,0 676.324873,0 L680.619289,0 L680.619289,3.61445783 L676.563452,3.61445783 C673.700508,3.61445783 671.553299,4.3373494 670.598985,6.02409639 C669.406091,7.71084337 668.928934,9.87951807 668.928934,12.7710843 L668.928934,17.8313253 L688.253807,17.8313253 L688.253807,12.7710843 C688.253807,8.6746988 689.208122,5.54216867 690.878173,3.37349398 C692.548223,1.20481928 695.411168,0 699.705584,0 L704,0 L704,3.61445783 L699.944162,3.61445783 C697.081218,3.61445783 694.93401,4.3373494 693.979695,6.02409639 C692.786802,7.71084337 692.309645,9.87951807 692.309645,12.7710843 L692.309645,17.8313253 L704,17.8313253 L704,21.4457831 L692.309645,21.4457831 L692.309645,60 L688.015228,60 Z" id="Shape"></path>
                </g>
            </g>
        </g>
    </g>
</svg>