<?xml version="1.0" encoding="UTF-8"?>
<svg width="378px" height="378px" viewBox="0 0 378 378" version="1.1" xmlns="http://www.w3.org/2000/svg" xmlns:xlink="http://www.w3.org/1999/xlink">
    <!-- Generator: Sketch 47.1 (45422) - http://www.bohemiancoding.com/sketch -->
    <title>Group 12</title>
    <desc>Created with Sketch.</desc>
    <defs></defs>
    <g id="Website" stroke="none" stroke-width="1" fill="none" fill-rule="evenodd">
        <g id="03---PRODUCT" transform="translate(-71.000000, -115.000000)">
            <g id="Group-12" transform="translate(71.000000, 115.000000)">
                <circle id="Oval-4" fill="#FFFFFF" cx="187.5" cy="191.5" r="181.5"></circle>
                <g id="Header-Logo" fill-rule="nonzero">
                    <path d="M188.93617,0 C84.6324249,0 0,85.1186441 0,189 C0,293.338983 84.6324249,378 188.93617,378 C293.239916,378 377.87234,293.338983 377.87234,189 C377.87234,85.1186441 293.239916,0 188.93617,0 Z M188.93617,349.627119 C100.643965,349.627119 28.8207717,277.779661 28.8207717,189.457627 C28.8207717,101.135593 100.186492,29.2881356 188.93617,29.2881356 C277.228376,29.2881356 349.051569,100.677966 349.051569,189.457627 C348.594096,277.322034 277.228376,349.627119 188.93617,349.627119 Z" id="Shape" fill="#00263A"></path>
                    <g id="Group" transform="translate(48.511070, 55.614527)">
                        <path d="M164.716894,113.43416 C163.333611,112.052098 161.02814,112.052098 159.183763,113.43416 L131.979204,139.693348 L119.990754,127.715473 C118.607471,126.33341 116.302,126.33341 114.457623,127.715473 L109.385587,132.783035 C108.002304,134.165098 108.002304,136.468535 109.385587,138.311285 L128.751544,157.66016 L129.212639,158.120848 C130.595921,159.50291 132.901392,158.581535 134.284675,157.66016 L168.866742,123.108598 C170.250025,121.726535 170.250025,119.423098 168.866742,117.580348 L164.716894,113.43416 Z" id="Shape" fill="#00AAEE"></path>
                        <path d="M137.973429,0.105035473 C62.353976,0.105035473 0.567349873,61.8371605 0.567349873,137.38991 C0.567349873,212.94266 62.353976,274.674785 137.973429,274.674785 C213.592882,274.674785 275.379508,212.94266 275.379508,137.38991 C275.379508,61.8371605 214.51507,0.105035473 137.973429,0.105035473 Z M207.598657,143.839535 C207.598657,179.312473 183.621757,201.88616 142.584371,229.988098 C140.739994,231.37016 137.973429,231.37016 136.129052,229.988098 C94.6305718,202.346848 71.1147663,179.77316 71.1147663,143.839535 C71.1147663,115.27691 71.1147663,82.1074105 71.1147663,71.511598 C71.1147663,69.668848 72.9591432,67.826098 74.8035201,67.826098 C98.3193256,67.3654105 113.996529,61.376473 136.590146,42.027598 C138.434523,40.6455355 141.201088,40.6455355 142.123277,42.027598 C164.716894,61.376473 180.394098,67.3654105 203.909903,67.826098 C205.75428,67.826098 207.598657,69.668848 207.598657,71.511598 C207.598657,82.1074105 207.598657,115.27691 207.598657,143.839535 Z" id="Shape" fill="#942786"></path>
                    </g>
                </g>
            </g>
        </g>
    </g>
</svg>