<?xml version="1.0" encoding="UTF-8"?>
<svg width="115px" height="111px" viewBox="0 0 115 111" version="1.1" xmlns="http://www.w3.org/2000/svg" xmlns:xlink="http://www.w3.org/1999/xlink">
    <!-- Generator: Sketch 47.1 (45422) - http://www.bohemiancoding.com/sketch -->
    <title>eyedoc</title>
    <desc>Created with Sketch.</desc>
    <defs></defs>
    <g id="Website" stroke="none" stroke-width="1" fill="none" fill-rule="evenodd">
        <g id="02---SOLUTIONS" transform="translate(-155.000000, -955.000000)" fill-rule="nonzero">
            <g id="eyedoc" transform="translate(155.000000, 955.000000)">
                <g id="Doc" transform="translate(29.000000, 0.000000)">
                    <polygon id="Shape" fill="#FFFFFF" points="2.07437186 26.8394531 2.07437186 1.82109375 66.2070352 1.82109375 84.0120603 19.7285156 84.0120603 109.048828 2.07437186 109.048828 2.07437186 80.475"></polygon>
                    <rect id="Rectangle-path" fill="#883082" x="21.6512563" y="28.6605469" width="53.4150754" height="53.5921875"></rect>
                    <path d="M84.0120603,110.826563 L2.07437186,110.826563 C1.08040201,110.826563 0.302512563,110.046094 0.302512563,109.048828 L0.302512563,85.8082031 L3.84623116,85.8082031 L3.84623116,107.271094 L82.1969849,107.271094 L82.1969849,21.50625 L66.1638191,21.50625 C65.1698492,21.50625 64.3919598,20.7257813 64.3919598,19.7285156 L64.3919598,3.6421875 L3.84623116,3.6421875 L3.84623116,25.1050781 L0.302512563,25.1050781 L0.302512563,1.86445313 C0.302512563,0.8671875 1.08040201,0.08671875 2.07437186,0.08671875 L66.2070352,0.08671875 C67.201005,0.08671875 67.9788945,0.8671875 67.9788945,1.86445313 L67.9788945,17.9507813 L84.0120603,17.9507813 C85.0060302,17.9507813 85.7839196,18.73125 85.7839196,19.7285156 L85.7839196,109.048828 C85.7839196,110.046094 84.9628141,110.826563 84.0120603,110.826563 Z" id="Shape" fill="#0B2538"></path>
                    <rect id="Rectangle-path" fill="#0B2538" transform="translate(75.072730, 10.792957) rotate(-45.000000) translate(-75.072730, -10.792957) " x="73.3008875" y="-1.84617951" width="3.54368461" height="25.2782732"></rect>
                    <rect id="Rectangle-path" fill="#0B2538" x="10.9768844" y="10.753125" width="46.2844221" height="3.55546875"></rect>
                    <rect id="Rectangle-path" fill="#0B2538" x="10.9768844" y="17.9074219" width="46.2844221" height="3.55546875"></rect>
                    <rect id="Rectangle-path" fill="#0B2538" x="10.9768844" y="89.4070313" width="64.1326633" height="3.55546875"></rect>
                    <rect id="Rectangle-path" fill="#0B2538" x="10.9768844" y="96.5613281" width="46.2844221" height="3.55546875"></rect>
                </g>
                <g id="Eye" transform="translate(0.000000, 29.000000)">
                    <path d="M98.9974138,26.9564516 C98.9974138,26.9564516 77.3172414,52.083871 50.5435345,52.083871 C23.7698276,52.083871 2.08965517,26.9564516 2.08965517,26.9564516 C2.08965517,26.9564516 23.7698276,1.82903226 50.5435345,1.82903226 C77.3172414,1.82903226 98.9974138,26.9564516 98.9974138,26.9564516 Z" id="Shape" fill="#FFFFFF"></path>
                    <ellipse id="Oval" fill="#FFFFFF" cx="50.5435345" cy="26.9564516" rx="25.1193966" ry="25.1274194"></ellipse>
                    <path d="M36.2206897,26.9564516 C36.2206897,34.8822581 42.6637931,41.3274194 50.587069,41.3274194 C58.5103448,41.3274194 64.9534483,34.8822581 64.9534483,26.9564516 C64.9534483,19.0306452 58.5103448,12.5854839 50.587069,12.5854839 C47.0172414,12.5854839 45.1887931,14.3709677 45.1887931,14.3709677 C49.150431,14.3709677 52.3719828,17.5935484 52.3719828,21.5564516 C52.3719828,25.5193548 49.150431,28.7419355 45.1887931,28.7419355 C41.2271552,28.7419355 38.0056034,25.5193548 38.0056034,21.5564516 C38.0056034,21.5564516 36.2206897,23.3419355 36.2206897,26.9564516 Z" id="Shape" fill="#4DACE9"></path>
                    <path d="M50.5435345,53.8693548 C23.2909483,53.8693548 1.65431034,29.1774194 0.740086207,28.1322581 C0.174137931,27.4790323 0.174137931,26.4774194 0.740086207,25.7806452 C1.65431034,24.7354839 23.2909483,0.0435483871 50.5435345,0.0435483871 C77.7961207,0.0435483871 99.4327586,24.7354839 100.346983,25.7806452 C100.912931,26.433871 100.912931,27.4354839 100.346983,28.1322581 C99.4327586,29.1774194 77.7961207,53.8693548 50.5435345,53.8693548 Z M4.57112069,26.9564516 C9.22931034,31.833871 28.2538793,50.2983871 50.587069,50.2983871 C72.9202586,50.2983871 91.9448276,31.833871 96.6030172,26.9564516 C91.9448276,22.0790323 72.9202586,3.61451613 50.587069,3.61451613 C28.2538793,3.61451613 9.18577586,22.0790323 4.57112069,26.9564516 Z" id="Shape" fill="#0B2538"></path>
                    <path d="M50.5435345,53.8693548 C35.6982759,53.8693548 23.6392241,41.8064516 23.6392241,26.9564516 C23.6392241,12.1064516 35.6982759,0.0435483871 50.5435345,0.0435483871 C65.3887931,0.0435483871 77.4478448,12.1064516 77.4478448,26.9564516 C77.4478448,41.8064516 65.3887931,53.8693548 50.5435345,53.8693548 Z M50.5435345,3.61451613 C37.7008621,3.61451613 27.2090517,14.066129 27.2090517,26.9564516 C27.2090517,39.8467742 37.6573276,50.2983871 50.5435345,50.2983871 C63.3862069,50.2983871 73.8780172,39.8467742 73.8780172,26.9564516 C73.8780172,14.066129 63.4297414,3.61451613 50.5435345,3.61451613 Z" id="Shape" fill="#0B2538"></path>
                </g>
            </g>
        </g>
    </g>
</svg>