<svg xmlns="http://www.w3.org/2000/svg" viewBox="0 0 318.57 56"><g id="Layer_2" data-name="Layer 2"><g id="Layer_1-2" data-name="Layer 1"><path id="Shape" d="M28,0A28,28,0,1,0,56,28,28.05,28.05,0,0,0,28,0Zm0,51.8A23.73,23.73,0,1,1,51.73,28.07,23.76,23.76,0,0,1,28,51.8Z" style="fill:#00263a"/><path d="M67.55,22.31c0-5.91,3.22-8.49,8.7-8.49,3,0,4.91.8,6.47,2.38l-2.51,2.51a5.27,5.27,0,0,0-4-1.56c-3.51,0-5,1.78-5,5.21s1.24,5.2,5,5.2a5.4,5.4,0,0,0,4.18-1.66l2.4,2.35c-1.31,1.36-3.07,2.56-6.81,2.56C69.86,30.81,67.55,27.77,67.55,22.31Z" style="fill:#00263a"/><path d="M84,24.25c0-4.23,1.85-6.56,6.59-6.56s6.56,2.33,6.56,6.56-1.82,6.56-6.56,6.56S84,28.48,84,24.25Zm9.66.09c0-2.14-.67-3.47-3.07-3.47s-3.07,1.33-3.07,3.47.64,3.49,3.07,3.49S93.67,26.47,93.67,24.34Z" style="fill:#00263a"/><path d="M99.32,18.18,102,18l.29,1.09c.55-.76,1.89-1.38,4.42-1.38,2.76,0,3.27.62,3.67,1.42.65-.82,2-1.42,4.68-1.42,3.8,0,4.4,2.11,4.4,5.25v7.63H116V23.63c0-1.54,0-2.65-2.14-2.65-2.42,0-2.69,1.13-2.69,2.8v6.79h-3.49V23.63c0-1.54,0-2.65-2.16-2.65-2.43,0-2.69,1.13-2.69,2.8v6.79h-3.5Z" style="fill:#00263a"/><path d="M122.18,18.18l2.71-.2.29,1.11c.67-.8,1.93-1.4,4.6-1.4,4.32,0,5.39,2.93,5.39,6.56s-1.14,6.52-5.59,6.52c-2.27,0-3.33-.45-3.91-1.18v4.65h-3.49Zm9.45,6.2c0-2-.44-3.51-2.74-3.51s-3.22,1.09-3.22,3.51.69,3.43,3.22,3.43C131.14,27.81,131.63,26.39,131.63,24.38Z" style="fill:#00263a"/><path d="M137.46,26.76V13.3h3.47v13c0,1,.2,1.31,1.25,1.31h.42v2.87a12.78,12.78,0,0,1-1.69.09C138.64,30.61,137.46,29.75,137.46,26.76Z" style="fill:#00263a"/><path d="M145,13.64h3.51v3.18H145Zm0,4.34h3.47V30.57h-3.47Z" style="fill:#00263a"/><path d="M150.61,26.88c0-3.56,2.5-4.41,8.08-4.41h.51c0-1.13-.31-1.71-2.49-1.71a7.24,7.24,0,0,0-3.65,1l-1.73-2.56a11.25,11.25,0,0,1,5.76-1.53c4.54,0,5.47,1.44,5.47,5v3.83c0,1,.07,1.16,1.09,1.16v2.84a6.53,6.53,0,0,1-1.47.09c-1.33,0-1.91-.26-2.4-1.24-.65.86-2.05,1.4-4.43,1.4C151.46,30.77,150.61,29.08,150.61,26.88Zm8.59-1.54v-.47h-.29c-4.45,0-5,.36-5,1.72,0,.93.51,1.38,2.11,1.38C158.24,28,159.2,27.19,159.2,25.34Z" style="fill:#00263a"/><path d="M165.79,18.18l2.71-.2.29,1.09c.67-.74,1.89-1.38,4.56-1.38,3.81,0,4.52,2.11,4.52,5.25v7.63H174.4V23.63c0-1.54-.18-2.65-2.29-2.65-2.43,0-2.83,1.13-2.83,2.8v6.79h-3.49Z" style="fill:#00263a"/><path d="M180,24.25c0-3.65,1.18-6.56,6.61-6.56a6.56,6.56,0,0,1,5.12,2l-2.45,2.32a3.33,3.33,0,0,0-2.67-1.16c-2.49,0-3.09,1.36-3.09,3.45s.56,3.49,3.11,3.49a3.78,3.78,0,0,0,2.85-1.22l2.23,2.13a6.68,6.68,0,0,1-5.25,2C181.21,30.77,180,27.94,180,24.25Z" style="fill:#00263a"/><path d="M192.58,24.25c0-3.52,1.16-6.56,6.54-6.56,5.54,0,5.72,3.69,5.61,7.89H196c.2,1.52.94,2.41,3.18,2.41a6.06,6.06,0,0,0,4-1.16l1.76,2.27a8.61,8.61,0,0,1-5.72,1.71C193.69,30.81,192.58,27.83,192.58,24.25ZM196,23.09h5.59c-.09-1.44-.38-2.49-2.54-2.49S196.14,21.56,196,23.09Z" style="fill:#00263a"/><path d="M207.76,14.08h1.13V30.57h-1.13Z" style="fill:#00263a"/><path d="M212.87,18.44l.89,0,.14,1.71c.49-1.07,1.64-2,4.54-2,4,0,4.4,2,4.4,5v7.45h-1.13V23.25c0-2.4-.2-4.05-3.52-4.05-3.51,0-4.18,1.89-4.18,4.43v6.94h-1.14Z" style="fill:#00263a"/><path d="M224.69,18.4h1.18l4.29,10.92,4.3-10.92h1.15l-4.87,12.28h-1.2Z" style="fill:#00263a"/><path d="M236.71,24.45c0-3.58,1-6.34,5.6-6.34,4.74,0,4.9,3.2,4.87,6.56H237.8c0,3,.78,5.14,4.6,5.14a5.77,5.77,0,0,0,4-1.29l.63.82a7.13,7.13,0,0,1-4.61,1.47C237.6,30.81,236.71,28,236.71,24.45Zm1.11-.82h8.27c-.11-2.43-.26-4.5-3.8-4.5S238,21,237.82,23.63Z" style="fill:#00263a"/><path d="M249.15,29.48l.6-.87A7.71,7.71,0,0,0,254,29.79c2.38,0,3.53-.51,3.53-2.54,0-1.62-1-1.93-3.53-2.49-2.76-.6-4.36-1.09-4.36-3.51,0-1.94,1.15-3.14,4.34-3.14a8.24,8.24,0,0,1,4.24,1l-.53.94a7.28,7.28,0,0,0-3.69-.91c-2.49,0-3.25.82-3.25,2.11,0,1.58,1,1.93,3.36,2.45,2.91.62,4.54,1.09,4.54,3.51,0,2.76-1.58,3.58-4.7,3.58A8.5,8.5,0,0,1,249.15,29.48Z" style="fill:#00263a"/><path d="M260.29,18.4h2.27l.18-3.92.91-.13v4h3.52v1h-3.52v8.14c0,1.21.18,2,2,2h1.56v1c-.09,0-1.58,0-1.69,0-2.58,0-2.94-1.11-2.94-2.94V19.42h-2.25Z" style="fill:#00263a"/><path d="M270.17,14.46h1.14v2.16h-1.14Zm0,3.94h1.14V30.57h-1.14Z" style="fill:#00263a"/><path d="M277.2,25.85a1.68,1.68,0,0,0-.49,1.09c0,.85.61,1,2.74,1,4.18,0,5.72.55,5.72,3s-1.36,3.54-5.81,3.54c-3.67,0-5.4-.62-5.4-3a2.81,2.81,0,0,1,2.55-3,1.39,1.39,0,0,1-.86-1.41,2.39,2.39,0,0,1,.62-1.58,3.45,3.45,0,0,1-1.6-3.31c0-2.74,1.47-4.05,4.78-4.05a7.7,7.7,0,0,1,1.31.09l3.9-.31v.95h-2.14a3.35,3.35,0,0,1,1.74,3.32c0,2.71-1.52,4-4.81,4A8.15,8.15,0,0,1,277.2,25.85ZM284,31.06c0-1.76-1.22-2.09-4.65-2.09-3.76,0-4.29,1.15-4.29,2.4,0,1.76,1.45,2.22,4.29,2.22C283.17,33.59,284,32.7,284,31.06Zm-.91-8.9c0-2.07-1.33-3-3.67-3-2.6,0-3.67.93-3.67,3s1.07,3,3.67,3S283.12,24.21,283.12,22.16Z" style="fill:#00263a"/><path d="M286.8,27.23c0-3.47,2.2-4.4,8.2-4.4h.81c0-2.58-.47-3.67-3.56-3.67a6.77,6.77,0,0,0-3.7,1.09l-.6-.89a8.34,8.34,0,0,1,4.36-1.25c4,0,4.61,1.45,4.61,4.94v4.89c0,1.43.09,1.6,1.33,1.6v1a1.27,1.27,0,0,1-.44,0c-1.47,0-1.89-.67-1.89-2.05-.78,1.52-2.07,2.27-4.94,2.27C287.66,30.81,286.8,29.28,286.8,27.23Zm9-2.31V23.87h-.76c-5.61,0-7.14.67-7.14,3.29,0,1.67.73,2.65,3.2,2.65C294.45,29.81,295.81,28.3,295.81,24.92Z" style="fill:#00263a"/><path d="M299.44,18.4h2.26l.18-3.92.91-.13v4h3.52v1h-3.52v8.14c0,1.21.18,2,2,2h1.56v1c-.09,0-1.58,0-1.69,0-2.58,0-2.94-1.11-2.94-2.94V19.42h-2.24Z" style="fill:#00263a"/><path d="M308.09,24.45c0-3.58,1-6.34,5.61-6.34,4.74,0,4.89,3.2,4.87,6.56h-9.39c0,3,.78,5.14,4.61,5.14a5.79,5.79,0,0,0,4-1.29l.62.82a7.08,7.08,0,0,1-4.6,1.47C309,30.81,308.09,28,308.09,24.45Zm1.11-.82h8.28c-.11-2.43-.27-4.5-3.81-4.5S309.34,21,309.2,23.63Z" style="fill:#00263a"/><path d="M68.63,44.39l-.13,1.29-.55,0V34.53h.73v4.53c.45-1,1.35-1.43,3.13-1.43,2.57,0,3.33,1.56,3.33,4.08s-.77,4.1-3.36,4.1C70,45.81,69.14,45.41,68.63,44.39Zm5.78-2.65c0-2.16-.58-3.42-2.72-3.42s-3,.8-3,3.42.88,3.4,3,3.4S74.41,43.88,74.41,41.74Z" style="fill:#4d8257"/><path d="M76.76,48v-.62h.62a1.14,1.14,0,0,0,1.23-.91l.33-.86-3.08-7.83h.76l2.71,6.95L82,37.81h.73l-3.46,8.77A1.82,1.82,0,0,1,77.42,48Z" style="fill:#4d8257"/><path d="M91.13,35h.73l4.26,10.69h-.76L94.28,43h-5.6l-1.06,2.69h-.74ZM94,42.27l-2.54-6.38-2.55,6.38Z" style="fill:#4d8257"/><path d="M97.71,37.84l.57,0,.09,1.28c.43-1,1.34-1.46,3.19-1.46,2.58,0,3.34,1.55,3.34,4.08s-.76,4.07-3.37,4.07c-1.79,0-2.66-.41-3.09-1.4V48h-.73Zm6.46,3.89c0-2.15-.6-3.41-2.72-3.41s-3,.78-3,3.41.87,3.38,3,3.38S104.17,43.88,104.17,41.73Z" style="fill:#4d8257"/><path d="M106.83,37.84l.58,0,.08,1.28c.43-1,1.35-1.46,3.2-1.46,2.58,0,3.33,1.55,3.33,4.08s-.75,4.07-3.36,4.07c-1.79,0-2.67-.41-3.1-1.4V48h-.73Zm6.46,3.89c0-2.15-.6-3.41-2.72-3.41s-3,.78-3,3.41.88,3.38,3,3.38S113.29,43.88,113.29,41.73Z" style="fill:#4d8257"/><path d="M117.38,42.62a1.06,1.06,0,0,0-.32.7c0,.54.39.66,1.76.66,2.7,0,3.69.35,3.69,2s-.88,2.28-3.74,2.28c-2.37,0-3.49-.4-3.49-2a1.83,1.83,0,0,1,1.65-2,.88.88,0,0,1-.56-.9,1.55,1.55,0,0,1,.4-1,2.22,2.22,0,0,1-1-2.13c0-1.77,1-2.61,3.08-2.61a4.6,4.6,0,0,1,.85.06l2.51-.2v.61H120.8a2.15,2.15,0,0,1,1.12,2.14c0,1.74-1,2.55-3.1,2.55A5.41,5.41,0,0,1,117.38,42.62ZM121.77,46c0-1.13-.78-1.35-3-1.35-2.42,0-2.76.75-2.76,1.55,0,1.13.93,1.43,2.76,1.43C121.22,47.6,121.77,47,121.77,46Zm-.58-5.73c0-1.34-.86-1.94-2.37-1.94-1.67,0-2.36.6-2.36,1.94s.69,1.9,2.36,1.9S121.19,41.55,121.19,40.24Z" style="fill:#4d8257"/><path d="M123.55,43.5c0-2.23,1.42-2.83,5.29-2.83h.51c0-1.67-.3-2.37-2.29-2.37a4.42,4.42,0,0,0-2.38.7l-.38-.57a5.42,5.42,0,0,1,2.8-.8c2.58,0,3,.93,3,3.18V44c0,.92.06,1,.86,1v.65a.75.75,0,0,1-.29,0c-.94,0-1.22-.43-1.22-1.32-.5,1-1.33,1.46-3.18,1.46C124.11,45.81,123.55,44.82,123.55,43.5Zm5.8-1.49v-.67h-.48c-3.61,0-4.6.43-4.6,2.12,0,1.08.47,1.7,2.06,1.7C128.48,45.16,129.35,44.19,129.35,42Z" style="fill:#4d8257"/><path d="M131.69,37.81h1.46l.11-2.52.59-.08v2.6h2.27v.66h-2.27v5.25c0,.77.12,1.27,1.26,1.27h1v.66c-.06,0-1,0-1.09,0-1.67,0-1.89-.72-1.89-1.89V38.47h-1.45Z" style="fill:#4d8257"/><path d="M137.26,41.71c0-2.3.66-4.08,3.61-4.08S144,39.69,144,41.86h-6c0,1.9.5,3.3,3,3.3a3.68,3.68,0,0,0,2.56-.83l.4.53a4.58,4.58,0,0,1-3,1C137.83,45.81,137.26,44,137.26,41.71Zm.72-.53h5.33c-.07-1.56-.17-2.89-2.45-2.89S138.06,39.48,138,41.18Z" style="fill:#4d8257"/><path d="M32.17,31.54l-.44-.44a10.53,10.53,0,1,0-1.15,1.15l.44.44V34l8.12,8.12,2.43-2.44-8.12-8.11Zm-8.46,0A7.31,7.31,0,1,1,31,24.23,7.27,7.27,0,0,1,23.71,31.54Z" style="fill:none"/><path d="M23.71,16.93A7.31,7.31,0,1,0,31,24.23,7.26,7.26,0,0,0,23.71,16.93Zm4.91,5.64-5.71,5.71c-.22.15-.6.3-.83.07L22,28.28l-3.19-3.2a.68.68,0,0,1,0-.91l.83-.84a.7.7,0,0,1,.92,0l2,2L27,21a.68.68,0,0,1,.91,0l.69.69A.68.68,0,0,1,28.62,22.57Z" style="fill:#4d8257"/><path d="M28,7.64A20.36,20.36,0,1,0,48.36,28,20.4,20.4,0,0,0,28,7.64ZM39.14,42.09,31,34V32.69l-.44-.44a10.56,10.56,0,1,1,1.15-1.15l.44.44h1.28l8.12,8.11Z" style="fill:#4d8257"/></g></g></svg>