<svg xmlns="http://www.w3.org/2000/svg" viewBox="0 0 318.39 56"><g id="Layer_2" data-name="Layer 2"><g id="Layer_1-2" data-name="Layer 1"><path id="Shape" d="M28,0A28,28,0,1,0,56,28,28.05,28.05,0,0,0,28,0Zm0,51.8A23.73,23.73,0,1,1,51.73,28.07,23.76,23.76,0,0,1,28,51.8Z" style="fill:#00263a"/><path d="M67.37,22.25c0-5.92,3.22-8.5,8.69-8.5,3,0,4.92.8,6.48,2.38L80,18.64a5.26,5.26,0,0,0-4-1.55c-3.51,0-5,1.78-5,5.2s1.24,5.21,5,5.21a5.39,5.39,0,0,0,4.19-1.67l2.4,2.36c-1.31,1.35-3.07,2.56-6.81,2.56C69.68,30.75,67.37,27.7,67.37,22.25Z" style="fill:#00263a"/><path d="M83.83,24.18c0-4.22,1.85-6.56,6.59-6.56S97,20,97,24.18s-1.82,6.57-6.56,6.57S83.83,28.41,83.83,24.18Zm9.66.09c0-2.13-.67-3.47-3.07-3.47s-3.07,1.34-3.07,3.47.64,3.49,3.07,3.49S93.49,26.41,93.49,24.27Z" style="fill:#00263a"/><path d="M99.14,18.11l2.72-.2.29,1.09c.55-.76,1.89-1.38,4.42-1.38,2.76,0,3.27.62,3.67,1.42.65-.82,2-1.42,4.68-1.42,3.8,0,4.4,2.11,4.4,5.25V30.5H115.8V23.56c0-1.54,0-2.65-2.13-2.65-2.43,0-2.69,1.14-2.69,2.8V30.5h-3.5V23.56c0-1.54,0-2.65-2.15-2.65-2.43,0-2.7,1.14-2.7,2.8V30.5H99.14Z" style="fill:#00263a"/><path d="M122,18.11l2.72-.2L125,19c.67-.8,1.93-1.4,4.6-1.4,4.32,0,5.39,2.94,5.39,6.56s-1.14,6.52-5.59,6.52c-2.27,0-3.33-.44-3.91-1.18v4.65H122Zm9.46,6.21c0-2-.45-3.52-2.74-3.52s-3.22,1.09-3.22,3.52.69,3.42,3.22,3.42C131,27.74,131.45,26.32,131.45,24.32Z" style="fill:#00263a"/><path d="M137.28,26.7V13.24h3.47v13c0,1,.2,1.32,1.25,1.32h.42v2.87a14.82,14.82,0,0,1-1.69.09C138.46,30.55,137.28,29.68,137.28,26.7Z" style="fill:#00263a"/><path d="M144.85,13.57h3.51v3.18h-3.51Zm0,4.34h3.47V30.5h-3.47Z" style="fill:#00263a"/><path d="M150.43,26.81c0-3.56,2.49-4.41,8.08-4.41H159c0-1.13-.31-1.71-2.49-1.71a7.35,7.35,0,0,0-3.65,1l-1.74-2.56a11.29,11.29,0,0,1,5.77-1.53c4.53,0,5.47,1.45,5.47,5v3.82c0,1,.07,1.16,1.09,1.16v2.85a7.29,7.29,0,0,1-1.47.09c-1.33,0-1.91-.27-2.4-1.25-.65.87-2,1.4-4.43,1.4C151.28,30.7,150.43,29,150.43,26.81ZM159,25.27v-.46h-.29c-4.45,0-5,.35-5,1.71,0,.93.51,1.38,2.11,1.38C158.06,27.9,159,27.12,159,25.27Z" style="fill:#00263a"/><path d="M165.61,18.11l2.71-.2.29,1.09c.67-.74,1.89-1.38,4.56-1.38,3.81,0,4.52,2.11,4.52,5.25V30.5h-3.47V23.56c0-1.54-.18-2.65-2.29-2.65-2.43,0-2.83,1.14-2.83,2.8V30.5h-3.49Z" style="fill:#00263a"/><path d="M179.78,24.18c0-3.65,1.18-6.56,6.61-6.56a6.57,6.57,0,0,1,5.12,2.05L189.06,22a3.35,3.35,0,0,0-2.67-1.16c-2.49,0-3.09,1.36-3.09,3.45s.55,3.49,3.11,3.49a3.74,3.74,0,0,0,2.85-1.22l2.22,2.14a6.68,6.68,0,0,1-5.25,2C181,30.7,179.78,27.88,179.78,24.18Z" style="fill:#00263a"/><path d="M192.4,24.18c0-3.51,1.16-6.56,6.54-6.56,5.54,0,5.72,3.69,5.61,7.9h-8.77c.2,1.51.93,2.4,3.18,2.4a6.06,6.06,0,0,0,4-1.16L204.68,29A8.57,8.57,0,0,1,199,30.75C193.51,30.75,192.4,27.76,192.4,24.18ZM195.78,23h5.58c-.08-1.45-.37-2.5-2.53-2.5S196,21.49,195.78,23Z" style="fill:#00263a"/><path d="M207.58,14h1.13V30.5h-1.13Z" style="fill:#00263a"/><path d="M212.69,18.38l.89-.05.14,1.71c.49-1.06,1.64-2,4.53-2,4,0,4.41,2,4.41,5V30.5h-1.14V23.18c0-2.4-.2-4.05-3.51-4.05-3.51,0-4.18,1.89-4.18,4.43V30.5h-1.14Z" style="fill:#00263a"/><path d="M224.51,18.33h1.18L230,29.25l4.29-10.92h1.16l-4.87,12.28h-1.2Z" style="fill:#00263a"/><path d="M236.52,24.38c0-3.58,1-6.34,5.61-6.34,4.74,0,4.9,3.21,4.87,6.57h-9.39c0,2.95.78,5.13,4.61,5.13a5.77,5.77,0,0,0,4-1.29l.63.83a7.19,7.19,0,0,1-4.61,1.47C237.41,30.75,236.52,28,236.52,24.38Zm1.12-.82h8.27c-.11-2.43-.26-4.49-3.8-4.49S237.77,20.91,237.64,23.56Z" style="fill:#00263a"/><path d="M249,29.41l.6-.87a7.74,7.74,0,0,0,4.28,1.18c2.38,0,3.53-.51,3.53-2.53,0-1.63-1-1.94-3.53-2.5-2.76-.6-4.36-1.09-4.36-3.51,0-1.94,1.15-3.14,4.33-3.14a8.15,8.15,0,0,1,4.25,1l-.53.93a7.41,7.41,0,0,0-3.69-.91c-2.5,0-3.25.82-3.25,2.11,0,1.58,1,1.94,3.36,2.45,2.91.62,4.54,1.09,4.54,3.51,0,2.76-1.58,3.59-4.7,3.59A8.57,8.57,0,0,1,249,29.41Z" style="fill:#00263a"/><path d="M260.11,18.33h2.27l.18-3.91.91-.14v4H267v1h-3.52V27.5c0,1.2.18,2,2,2H267v1c-.09,0-1.58,0-1.7,0-2.58,0-2.93-1.11-2.93-2.93V19.35h-2.25Z" style="fill:#00263a"/><path d="M270,14.39h1.14v2.16H270Zm0,3.94h1.14V30.5H270Z" style="fill:#00263a"/><path d="M277,25.78a1.72,1.72,0,0,0-.49,1.09c0,.85.6,1,2.74,1,4.18,0,5.72.55,5.72,3.05,0,2.33-1.36,3.53-5.81,3.53-3.67,0-5.41-.62-5.41-3a2.83,2.83,0,0,1,2.56-3.05,1.37,1.37,0,0,1-.87-1.4,2.36,2.36,0,0,1,.63-1.58,3.47,3.47,0,0,1-1.6-3.32c0-2.74,1.46-4.05,4.78-4.05a7.7,7.7,0,0,1,1.31.09l3.89-.31v1h-2.13a3.32,3.32,0,0,1,1.73,3.31c0,2.72-1.51,4-4.8,4A8.1,8.1,0,0,1,277,25.78ZM283.85,31c0-1.76-1.22-2.09-4.65-2.09-3.76,0-4.29,1.16-4.29,2.4,0,1.76,1.44,2.23,4.29,2.23C283,33.53,283.85,32.64,283.85,31Zm-.91-8.9c0-2.07-1.33-3-3.67-3-2.6,0-3.67.93-3.67,3s1.07,3,3.67,3S282.94,24.14,282.94,22.09Z" style="fill:#00263a"/><path d="M286.61,27.16c0-3.47,2.21-4.4,8.21-4.4h.8c0-2.58-.46-3.67-3.56-3.67a6.76,6.76,0,0,0-3.69,1.09l-.6-.89A8.34,8.34,0,0,1,292.13,18c4,0,4.61,1.45,4.61,4.94v4.9c0,1.42.09,1.6,1.33,1.6v1a1.27,1.27,0,0,1-.44,0c-1.47,0-1.89-.66-1.89-2-.78,1.51-2.07,2.27-4.94,2.27C287.48,30.75,286.61,29.21,286.61,27.16Zm9-2.31V23.8h-.75c-5.61,0-7.14.67-7.14,3.3,0,1.67.73,2.64,3.2,2.64C294.27,29.74,295.62,28.23,295.62,24.85Z" style="fill:#00263a"/><path d="M299.25,18.33h2.27l.18-3.91.91-.14v4h3.52v1h-3.52V27.5c0,1.2.18,2,2,2h1.56v1c-.09,0-1.58,0-1.69,0-2.58,0-2.94-1.11-2.94-2.93V19.35h-2.25Z" style="fill:#00263a"/><path d="M307.91,24.38c0-3.58,1-6.34,5.61-6.34s4.89,3.21,4.87,6.57H309c0,2.95.78,5.13,4.6,5.13a5.8,5.8,0,0,0,4-1.29l.62.83a7.15,7.15,0,0,1-4.61,1.47C308.8,30.75,307.91,28,307.91,24.38Zm1.11-.82h8.28c-.11-2.43-.27-4.49-3.81-4.49S309.16,20.91,309,23.56Z" style="fill:#00263a"/><path d="M68.44,44.32l-.13,1.29-.54,0V34.47h.73V39c.44-1,1.35-1.43,3.12-1.43,2.58,0,3.34,1.56,3.34,4.08s-.77,4.1-3.36,4.1C69.78,45.74,69,45.34,68.44,44.32Zm5.79-2.65c0-2.16-.59-3.42-2.72-3.42s-3,.8-3,3.42.87,3.4,3,3.4S74.23,43.81,74.23,41.67Z" style="fill:#fff"/><path d="M76.58,48v-.61h.62a1.15,1.15,0,0,0,1.23-.92l.33-.86-3.08-7.82h.76l2.71,7,2.7-7h.73l-3.45,8.77A1.83,1.83,0,0,1,77.24,48Z" style="fill:#fff"/><path d="M91,34.9h.73l4.26,10.68h-.76L94.1,42.89H88.5l-1.06,2.69h-.75Zm2.89,7.3-2.53-6.37L88.76,42.2Z" style="fill:#fff"/><path d="M97.53,37.78l.57,0L98.18,39c.43-1,1.35-1.46,3.2-1.46,2.58,0,3.34,1.55,3.34,4.08s-.76,4.07-3.37,4.07c-1.79,0-2.66-.41-3.09-1.4V48h-.73ZM104,41.66c0-2.15-.6-3.41-2.72-3.41s-3,.79-3,3.41.87,3.38,3,3.38S104,43.81,104,41.66Z" style="fill:#fff"/><path d="M106.65,37.78l.57,0,.09,1.27c.43-1,1.35-1.46,3.19-1.46,2.58,0,3.34,1.55,3.34,4.08s-.76,4.07-3.36,4.07c-1.79,0-2.67-.41-3.1-1.4V48h-.73Zm6.46,3.88c0-2.15-.6-3.41-2.72-3.41s-3,.79-3,3.41.88,3.38,3,3.38S113.11,43.81,113.11,41.66Z" style="fill:#fff"/><path d="M117.19,42.55a1.11,1.11,0,0,0-.31.7c0,.54.39.66,1.76.66,2.7,0,3.68.36,3.68,2s-.87,2.28-3.74,2.28c-2.36,0-3.48-.4-3.48-2a1.83,1.83,0,0,1,1.65-2,.88.88,0,0,1-.56-.9,1.57,1.57,0,0,1,.4-1,2.22,2.22,0,0,1-1-2.13c0-1.76,1-2.61,3.08-2.61a4.6,4.6,0,0,1,.85.06l2.5-.2V38h-1.37a2.17,2.17,0,0,1,1.12,2.14c0,1.75-1,2.55-3.1,2.55A5.55,5.55,0,0,1,117.19,42.55Zm4.4,3.35c0-1.13-.78-1.35-3-1.35-2.42,0-2.77.75-2.77,1.55,0,1.13.94,1.43,2.77,1.43C121,47.53,121.59,47,121.59,45.9ZM121,40.17c0-1.33-.86-1.94-2.37-1.94-1.67,0-2.36.61-2.36,1.94s.69,1.9,2.36,1.9S121,41.49,121,40.17Z" style="fill:#fff"/><path d="M123.37,43.44c0-2.24,1.42-2.84,5.29-2.84h.51c0-1.66-.3-2.37-2.29-2.37a4.33,4.33,0,0,0-2.38.71l-.39-.58a5.5,5.5,0,0,1,2.81-.8c2.58,0,3,.93,3,3.18v3.15c0,.92.06,1,.86,1v.64a.75.75,0,0,1-.29,0c-.94,0-1.22-.43-1.22-1.32-.5,1-1.33,1.46-3.18,1.46C123.93,45.74,123.37,44.75,123.37,43.44Zm5.8-1.5v-.67h-.49c-3.61,0-4.6.43-4.6,2.12,0,1.08.48,1.71,2.07,1.71C128.3,45.1,129.17,44.12,129.17,41.94Z" style="fill:#fff"/><path d="M131.51,37.75H133l.11-2.52.59-.09v2.61h2.26v.66h-2.26v5.24c0,.77.11,1.28,1.26,1.28h1v.65c-.05,0-1,0-1.09,0-1.66,0-1.89-.72-1.89-1.89v-5.3h-1.44Z" style="fill:#fff"/><path d="M137.08,41.64c0-2.3.66-4.08,3.61-4.08s3.15,2.06,3.14,4.23h-6.05c0,1.9.5,3.31,3,3.31a3.73,3.73,0,0,0,2.56-.83l.4.53a4.58,4.58,0,0,1-3,.94C137.65,45.74,137.08,44,137.08,41.64Zm.72-.53h5.33c-.08-1.56-.18-2.89-2.45-2.89S137.88,39.41,137.8,41.11Z" style="fill:#fff"/><path d="M23.71,16.86A7.31,7.31,0,1,0,31,24.16,7.26,7.26,0,0,0,23.71,16.86Zm4.91,5.64-5.71,5.71c-.22.15-.6.3-.83.07L22,28.21,18.81,25a.68.68,0,0,1,0-.91l.83-.84a.7.7,0,0,1,.92,0l2,2L27,20.91a.68.68,0,0,1,.91,0l.69.68A.68.68,0,0,1,28.62,22.5Z" style="fill:#fff"/><path d="M28,7.57A20.37,20.37,0,1,0,48.36,27.93,20.41,20.41,0,0,0,28,7.57ZM39.14,42,31,33.9V32.62l-.44-.44A10.56,10.56,0,1,1,31.73,31l.44.44h1.28l8.12,8.11Z" style="fill:#fff"/></g></g></svg>