<svg height='100px' width='100px'  fill="#000000" xmlns="http://www.w3.org/2000/svg" xmlns:xlink="http://www.w3.org/1999/xlink" version="1.1" x="0px" y="0px" viewBox="-1949 1951 100 100" style="enable-background:new -1949 1951 100 100;" xml:space="preserve"><g><path d="M-1909,1956.7c2.3-0.4,4.6-0.6,6.9-0.6c2.5,0,5.1,0.1,7.5,0.5c0.7,0.1,1.5,0.3,2.2,0.6c0.2,0.1,0.5,0.3,0.5,0.6   c0,1.1,0,2.2,0,3.3c5.8-1.7,11.7-3.3,17.5-5c-0.6,5.6-1.2,11.1-1.7,16.7c1,0.6,1.6,1.7,2,2.7c0.5,1.4,0.6,2.9,0.6,4.3   c0,0.2,0,0.4,0,0.6c0.9,3.4,1,7,0,10.3c-0.7,2.5-2.1,4.9-4.2,6.4c-1.3,0.9-2.9,1.5-4.5,1.6c-1.2,0.1-2.5-0.1-3.7-0.4   c-0.6,3.7-1.6,7.3-2.9,10.8c-0.6,1.4-0.9,2.9-1.2,4.4c-0.5,2.7-0.9,5.5-1.1,8.3c-0.1,1.1-0.2,2.1-0.1,3.2c0,0.8,0.5,1.5,0.9,2.2   c1.1,1.8,2.4,3.5,3.7,5.2c1.1,1.5,2.3,3,3.5,4.5c0.3,0.4,0.5,1,0.3,1.5c-0.2,0.5-0.6,0.8-1,1.2c-2,1.9-4,3.7-6.1,5.5   c-0.3,0.3-0.7,0.4-1.1,0.6c-1,0.3-2.2,0.1-3-0.5c-0.3-0.3-0.6-0.7-0.5-1.1c0.1-0.6,0.4-1.1,0.8-1.5c1.2-1.3,2.4-2.6,3.6-4   c-1.2-1.6-2.3-3.3-3.5-4.9c-1.2-1.7-2.4-3.4-3.4-5.2c-0.3-0.5-0.6-1-0.7-1.6c-0.1-0.8-0.1-1.6,0-2.4c0.2-4.4,0.6-8.7,0.9-13.1   c0-0.1,0-0.4-0.2-0.3c-0.3,0-0.5,0.2-0.7,0.4c-0.8,0.6-1.5,1.3-2.2,2c-2.4,2.6-4.9,5-7.2,7.7c-0.7,0.8-1.5,1.7-2,2.6   c-0.2,0.3,0,0.6,0.1,0.9c0.4,1,0.9,2,1.5,3c1.7,3.2,3.5,6.4,5.4,9.5c0.2,0.3,0.2,0.7,0.1,1c-0.1,0.3-0.4,0.6-0.7,0.7   c-1.6,0.9-3.2,1.9-4.8,2.8c-1.5,0.9-3,1.9-4.5,2.8c-0.5,0.4-1.1,0.6-1.7,0.7c-0.9,0.1-1.8-0.4-2.4-1c-0.3-0.3-0.5-0.9-0.4-1.3   c0.2-0.6,0.6-1,1.1-1.3c2-1.2,4-2.5,6-3.7c-1.4-2.7-2.8-5.5-4.2-8.2c-0.9-1.8-1.8-3.6-2.5-5.5c-0.2-0.5-0.4-1-0.5-1.6   c0-0.4,0.2-0.9,0.4-1.2c0.6-1.1,1.4-2.1,2.2-3.1c1.3-1.6,2.7-3.1,4-4.6c0.5-0.6,1-1.1,1.4-1.8c0.8-1.4,1.1-3,1.1-4.5   c0-2.1-0.5-4.2-1.1-6.2c-1.2-0.7-2.5-1.3-3.7-2c-1.7,0.4-3.5,0.6-5.2,0.1c-1.3-0.3-2.6-1-3.6-1.9c-1.2-1.1-2.2-2.5-2.8-4   c-0.7-1.7-1.1-3.6-1.3-5.5c-0.1-1.9,0-3.7,0.4-5.6c0.1-0.3,0-0.6-0.1-0.9c-0.3-2.1-0.2-4.3,0.6-6.3c0.5-1.1,1.2-2.1,2.3-2.6   c-0.6-5.5-1.1-11-1.7-16.4c4.1,1.7,8.3,3.4,12.4,5.2c0-1.2,0-2.3,0-3.5c0-0.3,0.2-0.4,0.4-0.5   C-1910.3,1957-1909.6,1956.9-1909,1956.7 M-1903.4,1966.2c0.2,11.9,0.4,23.9,0.5,35.8c7.7-2.5,15.4-5,23.1-7.5   c0.2-2.1,0.4-4.2,0.7-6.3c-1.9-0.2-3.8-0.4-5.6-0.5c-0.9-0.1-1.8-0.8-2.1-1.7c-0.3-0.7-0.1-1.6,0.3-2.3c-0.6-0.4-1.1-1-1.2-1.8   c-0.1-0.7,0.1-1.4,0.5-1.9c-0.9-0.6-1.3-1.8-1-2.8c0.2-0.9,1-1.6,1.9-1.8c-0.2-0.5-0.2-1.1,0-1.7c0.3-1.1,1.4-1.8,2.6-1.7   c2.1,0.2,4.2,0.4,6.4,0.6c0.5-4.7,1-9.5,1.5-14.2C-1885.2,1961-1894.3,1963.6-1903.4,1966.2 M-1922,1958.7c0.5,4.6,1,9.2,1.4,13.8   c2-0.2,4-0.3,5.9-0.5c0.6-0.1,1.2,0.1,1.7,0.4c1,0.6,1.4,2,1,3c1,0.2,1.8,1.1,1.9,2.2c0.1,0.9-0.3,1.9-1.1,2.4   c0.4,0.6,0.6,1.4,0.4,2.1s-0.6,1.2-1.2,1.6c0.3,0.5,0.5,1.2,0.4,1.8c-0.2,1.1-1.1,2-2.2,2.1c-1.7,0.1-3.4,0.3-5.1,0.4   c0.2,2.1,0.4,4.3,0.7,6.4c4.9,2.6,9.7,5.2,14.6,7.7c-0.2-12-0.4-24.1-0.5-36.1C-1910.1,1963.6-1916.1,1961.1-1922,1958.7    M-1915.3,1973.6c-2,0.2-4,0.3-6.1,0.5c-0.2,0-0.4,0.1-0.6,0.3c-0.4,0.4-0.7,0.9-1,1.4c-0.7,1.6-0.7,3.4-0.6,5.2   c0.2,1.6,0.6,3.3,1.6,4.6c0.4,0.4,0.8,0.9,1.3,1c2.1-0.2,4.3-0.3,6.4-0.5c0.4,0,0.7-0.2,0.8-0.6c0.2-0.4,0-1-0.4-1.3   c-0.3-0.2-0.6-0.1-0.9-0.1c-1.5,0.1-3,0.2-4.5,0.4c-0.3,0-0.7-0.1-0.8-0.4c-0.2-0.5,0.1-1.1,0.6-1.1c2-0.2,4-0.3,6-0.5   c0.5,0,1-0.5,0.9-1.1c0-0.5-0.6-1-1.1-0.9c-2,0.2-4,0.3-5.9,0.5c-0.4,0.1-0.8-0.2-0.9-0.6s0.3-0.9,0.7-0.9c2.3-0.2,4.6-0.4,7-0.6   c0.5,0,0.9-0.5,0.9-1s-0.5-1-1-0.9c-2.3,0.2-4.6,0.4-6.9,0.6c-0.4,0.1-0.8-0.2-0.9-0.6c-0.1-0.4,0.2-0.9,0.7-1   c1.8-0.2,3.6-0.3,5.4-0.4c0.3,0,0.5-0.1,0.7-0.3c0.4-0.4,0.3-1.1-0.1-1.4C-1914.2,1973.4-1914.8,1973.6-1915.3,1973.6    M-1884.3,1973.6c-0.4,0.1-0.7,0.5-0.7,1s0.4,0.9,0.9,0.9c1.8,0.2,3.7,0.4,5.5,0.5c0.5,0,0.8,0.6,0.7,1c-0.1,0.3-0.5,0.6-0.8,0.5   c-2.3-0.2-4.6-0.4-6.9-0.7c-0.5-0.1-1.1,0.4-1.1,0.9c-0.1,0.5,0.4,1,0.9,1c2.3,0.2,4.6,0.4,6.9,0.7c0.4,0,0.8,0.4,0.7,0.9   c0,0.4-0.5,0.8-0.9,0.7c-2-0.2-4-0.4-5.9-0.6c-0.5-0.1-1,0.3-1.1,0.8s0.3,1.1,0.9,1.1c2,0.2,4,0.4,6,0.6c0.4,0,0.8,0.5,0.7,0.9   c0,0.4-0.5,0.7-0.9,0.7c-1.6-0.2-3.2-0.3-4.9-0.5c-0.3,0-0.7,0.2-0.9,0.4c-0.2,0.4-0.2,0.9,0.1,1.2c0.2,0.2,0.5,0.3,0.8,0.3   c2.1,0.2,4.1,0.4,6.2,0.6c0.4,0,0.7-0.3,1-0.5c1-0.9,1.5-2.2,1.9-3.5c0.4-1.5,0.5-3,0.4-4.5c-0.1-1.2-0.5-2.5-1.2-3.4   c-0.2-0.2-0.5-0.5-0.8-0.6c-2.2-0.2-4.4-0.4-6.5-0.6C-1883.9,1973.5-1884.1,1973.5-1884.3,1973.6z"></path><path d="M-1900.6,1970.6c2.1-0.4,4.2-0.8,6.2-1.2c1.2,0.7,2.3,1.5,3.5,2.2c-0.4,1.4-0.9,2.7-1.4,4.1c-1.2,0.7-2.3,1.4-3.5,2.1   c-1.2-0.5-2.5-0.9-3.8-1.4c-0.6-0.8-1.2-1.6-1.8-2.5C-1901.1,1972.9-1900.8,1971.7-1900.6,1970.6 M-1898.7,1972.4   c-0.6,1-0.4,2.4,0.5,3.2c0.8,0.7,1.9,0.9,2.9,0.4c0.6-0.2,1-0.7,1.3-1.2c-0.8,0.2-1.6-0.5-1.6-1.2c-0.1-0.8,0.7-1.4,1.4-1.4   c-0.4-0.5-0.9-0.9-1.6-1.1C-1896.9,1970.8-1898.2,1971.3-1898.7,1972.4z"></path></g></svg>