<?xml version="1.0" encoding="UTF-8"?>
<svg width="175px" height="193px" viewBox="0 0 175 193" version="1.1" xmlns="http://www.w3.org/2000/svg" xmlns:xlink="http://www.w3.org/1999/xlink">
    <!-- Generator: Sketch 47.1 (45422) - http://www.bohemiancoding.com/sketch -->
    <title>usability</title>
    <desc>Created with Sketch.</desc>
    <defs></defs>
    <g id="Website" stroke="none" stroke-width="1" fill="none" fill-rule="evenodd">
        <g id="03---PRODUCT" transform="translate(-118.000000, -604.000000)" fill-rule="nonzero">
            <g id="usability" transform="translate(118.000000, 604.000000)">
                <g id="Group">
                    <rect id="Rectangle-path" fill="#FFFFFF" x="3.31081081" y="3.04210526" width="168.496622" height="163.915789"></rect>
                    <path d="M174.822635,169.940351 L0.295608108,169.940351 L0.295608108,0 L174.763514,0 L174.763514,169.940351 L174.822635,169.940351 Z M6.32601351,163.915789 L168.79223,163.915789 L168.79223,6.0245614 L6.32601351,6.0245614 L6.32601351,163.915789 Z" id="Shape" fill="#0B2538"></path>
                    <rect id="Rectangle-path" fill="#0B2538" x="6.32601351" y="24.277193" width="162.466216" height="6.08421053"></rect>
                    <rect id="Rectangle-path" fill="#0B2538" x="12.3564189" y="12.1087719" width="6.03040541" height="6.08421053"></rect>
                    <rect id="Rectangle-path" fill="#0B2538" x="24.3581081" y="12.1087719" width="6.03040541" height="6.08421053"></rect>
                    <rect id="Rectangle-path" fill="#0B2538" x="36.4189189" y="12.1087719" width="6.03040541" height="6.08421053"></rect>
                    <rect id="Rectangle-path" fill="#0B2538" x="48.4206081" y="6.0245614" width="6.03040541" height="18.1929825"></rect>
                    <rect id="Rectangle-path" fill="#0B2538" x="60.4814189" y="12.1087719" width="102.280405" height="6.08421053"></rect>
                    <g transform="translate(18.327703, 42.350877)" id="Rectangle-path">
                        <rect fill="#4DACE9" x="0.0591216216" y="0.119298246" width="138.403716" height="30.3614035"></rect>
                        <rect fill="#0B2538" x="90.2787162" y="103.312281" width="48.125" height="6.08421053"></rect>
                        <rect fill="#0B2538" x="90.2787162" y="91.2035088" width="48.125" height="6.08421053"></rect>
                        <rect fill="#0B2538" x="0.0591216216" y="103.312281" width="48.125" height="6.08421053"></rect>
                        <rect fill="#0B2538" x="0.0591216216" y="91.2035088" width="48.125" height="6.08421053"></rect>
                        <rect fill="#883082" x="0.0591216216" y="36.5649123" width="138.403716" height="48.554386"></rect>
                    </g>
                </g>
                <g id="Group" transform="translate(46.000000, 42.000000)">
                    <path d="M55.2430556,81.4807843 L55.2430556,135.722353 C55.2430556,142.35451 49.8083333,147.802353 43.0597222,147.802353 C36.3111111,147.802353 30.8763889,142.413725 30.8763889,135.722353 L30.8763889,81.4807843 L55.2430556,81.4807843 Z" id="Shape" fill="#4DACE9"></path>
                    <path d="M82.5361111,42.3392157 C82.5361111,63.9529412 64.8583333,81.54 43,81.54 C21.2013889,81.54 3.46388889,64.0121569 3.46388889,42.3392157 C3.46388889,20.7254902 21.1416667,3.13843137 43,3.13843137 C64.8583333,3.13843137 82.5361111,20.6662745 82.5361111,42.3392157 Z" id="Shape" fill="#FFFFFF"></path>
                    <path d="M43.0575005,84.4963785 C19.5878935,84.4963785 0.5375,65.5483489 0.5375,42.3370128 C0.5375,19.1256766 19.6476126,0.177647059 43.0575005,0.177647059 C66.5271075,0.177647059 85.5775009,19.1256766 85.5775009,42.3370128 C85.5775009,65.5483489 66.5271075,84.4963785 43.0575005,84.4963785 Z M43.0575005,6.15811888 C22.9321632,6.15811888 6.56912928,22.3823692 6.56912928,42.3370128 C6.56912928,62.2916564 22.9321632,78.5159067 43.0575005,78.5159067 C63.1828378,78.5159067 79.5458716,62.2916564 79.5458716,42.3370128 C79.5458716,22.3823692 63.1828378,6.15811888 43.0575005,6.15811888 Z" id="Shape" fill="#0B2538"></path>
                    <path d="M43.0597222,150.763137 C34.6986111,150.763137 27.8902778,144.012549 27.8902778,135.722353 L27.8902778,78.4607843 L33.9819444,78.4607843 L33.9819444,135.722353 C33.9819444,140.696471 38.0430556,144.782353 43.1194444,144.782353 C48.1361111,144.782353 52.2569444,140.755686 52.2569444,135.722353 L52.2569444,78.4607843 L58.3486111,78.4607843 L58.3486111,135.722353 C58.2291667,144.012549 51.4208333,150.763137 43.0597222,150.763137 Z" id="Shape" fill="#0B2538"></path>
                    <rect id="Rectangle-path" fill="#0B2538" x="40.0138889" y="126.662353" width="6.09166667" height="6.04"></rect>
                    <path d="M36.9680556,57.38 C36.1916667,57.38 35.4152778,57.0839216 34.8180556,56.4917647 L22.6944444,44.4709804 L26.9944444,40.207451 L37.0277778,50.1556863 L59.1847222,28.1866667 L63.4847222,32.4501961 L39.1777778,56.5509804 C38.5208333,57.0839216 37.7444444,57.38 36.9680556,57.38 Z" id="Shape" fill="#0B2538"></path>
                </g>
            </g>
        </g>
    </g>
</svg>